<svg xmlns="http://www.w3.org/2000/svg" width="146" height="212" viewBox="0 0 146 212">
    <g fill="none" fill-rule="evenodd">
        <g>
            <g transform="translate(-1152 -162) translate(1153 163)">
                <rect width="145" height="211" x="-.5" y="-.5" fill="#F4F4F4" stroke="#000" rx="4"/>
                <path fill="#000" fill-rule="nonzero" d="M42.71 184.15h4c1.822 0 3.144.26 3.968.778.823.519 1.235 1.343 1.235 2.474 0 .768-.18 1.398-.54 1.89-.361.492-.84.788-1.438.888v.088c.815.181 1.402.521 1.762 1.02.36.497.54 1.16.54 1.985 0 1.172-.423 2.086-1.27 2.743-.846.656-1.996.984-3.449.984H42.71v-12.85zm2.725 5.09h1.582c.738 0 1.273-.115 1.604-.344.331-.228.497-.606.497-1.133 0-.492-.18-.846-.54-1.06-.361-.213-.931-.32-1.71-.32h-1.433v2.856zm0 2.161v3.349h1.775c.75 0 1.304-.144 1.662-.43.357-.288.536-.727.536-1.319 0-1.066-.762-1.6-2.285-1.6h-1.688zM62.67 197l-.931-3.059h-4.685L56.123 197h-2.936l4.535-12.902h3.331L65.606 197H62.67zm-4.93-5.344h3.348l-1.454-4.702-.116-.4c-.05-.18-.089-.335-.117-.461l-.202.73c-.278.974-.765 2.584-1.46 4.833zm14.361-1.872H77.2v6.662c-.826.27-1.604.459-2.334.567-.73.109-1.475.163-2.237.163-1.939 0-3.42-.57-4.442-1.71-1.023-1.14-1.534-2.776-1.534-4.908 0-2.075.593-3.692 1.78-4.852 1.186-1.16 2.831-1.74 4.935-1.74 1.318 0 2.59.263 3.814.79l-.905 2.18c-.938-.468-1.913-.703-2.927-.703-1.178 0-2.121.396-2.83 1.187-.709.79-1.063 1.854-1.063 3.19 0 1.395.285 2.46.856 3.195.572.736 1.402 1.103 2.492 1.103.569 0 1.146-.058 1.732-.176v-2.68H72.1v-2.268zm13.034 0h5.098v6.662c-.826.27-1.604.459-2.334.567-.73.109-1.475.163-2.236.163-1.94 0-3.42-.57-4.443-1.71-1.023-1.14-1.534-2.776-1.534-4.908 0-2.075.593-3.692 1.78-4.852 1.186-1.16 2.831-1.74 4.935-1.74 1.318 0 2.59.263 3.814.79l-.905 2.18c-.937-.468-1.913-.703-2.927-.703-1.177 0-2.12.396-2.83 1.187-.709.79-1.063 1.854-1.063 3.19 0 1.395.285 2.46.857 3.195.571.736 1.402 1.103 2.491 1.103.569 0 1.146-.058 1.732-.176v-2.68h-2.435v-2.268zm12.156-.343l2.68-5.29h2.936l-4.263 7.848V197h-2.707v-4.913l-4.263-7.937h2.953l2.664 5.291z"/>
                <g>
                    <g>
                        <path stroke="#231F20" stroke-width=".9" d="M13.86 6.48s9.54 3.51 21.87 3.24c12.33-.27 21.96-3.87 21.96-3.87" transform="translate(36 16)"/>
                        <path fill="#231F20" fill-rule="nonzero" d="M11.43 18.63c2.7.81 6.12-.18 8.37-1.89 2.43-1.8 3.42-4.77 4.23-7.56.18-.72-.9-.99-1.08-.27-.72 2.16-1.35 4.68-3.06 6.3-1.98 1.89-5.49 3.15-8.1 2.34-.72-.18-1.08.9-.36 1.08zM59.94 17.1c-2.52.72-6.03-.36-7.92-2.16-1.62-1.53-2.34-3.87-3.06-5.94-.18-.72-1.35-.36-1.08.27.81 2.61 1.8 5.49 4.14 7.11 2.25 1.62 5.49 2.61 8.19 1.8.72-.27.36-1.35-.27-1.08z" transform="translate(36 16)"/>
                        <path stroke="#231F20" stroke-dasharray=".45" stroke-width=".5" d="M11.25 19.98s3.96 1.98 8.73-1.8c4.77-3.78 5.13-8.55 5.13-8.55M60.3 19.44s-3.96 1.98-8.73-1.8c-4.77-3.78-5.13-8.55-5.13-8.55" transform="translate(36 16)"/>
                        <path fill="#FFF" fill-rule="nonzero" stroke="#231F20" stroke-width=".675" d="M42.93 5.13L44.28 14.31 46.44 13.77 45.27 5.13M29.43 5.4L27.99 14.49 25.92 14.04 27.09 5.4" transform="translate(36 16)"/>
                        <path stroke="#231F20" stroke-width=".9" d="M35.73 44.37L35.1 5.4" transform="translate(36 16)"/>
                        <path stroke="#231F20" stroke-width=".675" d="M35.82 34.02s1.17.63 2.88-.81 1.71-3.6 1.71-3.6V9.63" transform="translate(36 16)"/>
                        <g fill-rule="nonzero">
                            <path fill="#BCBEC0" d="M32.58 1.89c2.7.09 5.49.09 8.01-.9-2.52 1.98-5.58 3.06-8.82 3.51-3.15.54-12.87.81-12.87.81-3.15.09-6.39.27-9.54-.18C6.21 4.68 3.06 3.6.54 1.62c2.52.99 5.31.9 8.01.9 3.42-.09 6.84-.09 10.26-.18 0-.09 10.35-.45 13.77-.45z" transform="translate(36 16) translate(15.3)"/>
                            <path fill="#231F20" d="M32.58 2.43c2.88 0 5.4-.09 8.1-.9-.18-.36-.27-.72-.45-.99-5.49 4.05-12.33 3.87-18.81 4.05C14.31 4.86 6.93 5.4.9.99c-.18.36-.27.72-.45.99 6.03 1.8 12.96.9 19.17.72 4.32-.09 8.64-.27 12.96-.27.72 0 .72-1.08 0-1.17-4.14 0-8.28.18-12.42.27C13.95 1.71 6.75 2.7.72.9c-.63-.18-.9.63-.45.99 6.21 4.5 13.86 4.05 21.15 3.69 6.75-.27 13.68-.09 19.44-4.23.45-.36.18-1.26-.45-.99-2.61.81-5.13.9-7.83.9-.72.09-.72 1.17 0 1.17z" transform="translate(36 16) translate(15.3)"/>
                        </g>
                        <path stroke="#231F20" stroke-width=".9" d="M55.98 1.08c2.88 8.01 5.04 16.83 6.12 25.29l1.35 5.49c3.15 13.5 7.83 45.9 7.65 52.02 0 .45.9 9.09-1.62 25.02-3.15 20.52-9.27 37.08-9.27 38.25-5.49 2.25-11.79 1.8-17.46.09-.27-.09-.45-.18-.63-.36-.27-.27-.27-.72-.27-1.08 0-1.08-.09-4.23-.09-5.22l-5.58-94.14-.45-2.07-4.86 89.73c0 1.08-.54 11.16-.54 12.15 0 .36 0 .81-.27 1.08-.18.18-.45.27-.63.36-5.67 1.71-10.44 2.34-15.93.09 0-1.17-6.03-8.37-12.06-42.3-2.43-13.32-.9-27.27-.9-27.27-.18-10.17 5.22-36.09 5.22-36.09 1.08-8.46 7.38-32.67 10.26-40.68" transform="translate(36 16)"/>
                        <g fill="#231F20" fill-rule="nonzero">
                            <path d="M19.98.63L19.8.72 19.8.63zM19.35.81L18.9.9 18.9.81 19.35.72zM18.45.99L18 1.08 18 .99 18.45.9zM17.55 1.17L17.1 1.26 17.1 1.08 17.55.99zM16.74 1.26L16.29 1.35 16.2 1.26 16.65 1.17zM15.84 1.44L15.39 1.53 15.39 1.35 15.84 1.26zM14.94 1.53L14.49 1.62 14.49 1.44 14.94 1.44zM14.04 1.71L13.59 1.71 13.59 1.53 14.04 1.53zM13.14 1.8L12.69 1.8 12.69 1.62 13.14 1.62zM12.24 1.89L11.79 1.89 11.79 1.71 12.24 1.71zM11.43 1.98L10.98 1.98 10.89 1.8 11.34 1.8zM10.53 2.07L10.08 2.07 9.99 1.89 10.44 1.8zM9.63 2.07L9.18 2.07 9.18 1.89 9.63 1.89zM8.73 2.16L8.28 2.16 8.28 1.98 8.73 1.89zM7.83 2.16L7.38 2.16 7.38 1.98 7.83 1.98zM6.93 2.16L6.48 2.16 6.48 1.98 6.93 1.98z" transform="translate(36 16) translate(41.4 140.4)"/>
                            <path d="M5.711 1.823H6.711V2.823H5.711z" transform="translate(36 16) translate(41.4 140.4) rotate(-87.172 5.8 2.048)"/>
                            <path d="M4.779 1.688H5.779V2.6879999999999997H4.779z" transform="translate(36 16) translate(41.4 140.4) rotate(-85.492 4.869 1.913)"/>
                            <path d="M4.23 1.98L3.78 1.89 3.78 1.8 4.23 1.89zM3.33 1.89L2.88 1.8 2.88 1.71 3.33 1.71zM2.43 1.71L1.98 1.62 1.98 1.53 2.43 1.62zM1.53 1.53L1.17 1.35 1.17 1.35 1.62 1.44zM.72 1.26L.45 1.17z" transform="translate(36 16) translate(41.4 140.4)"/>
                        </g>
                        <g fill="#231F20" fill-rule="nonzero">
                            <path d="M20.61.63L20.43.72 20.43.72zM19.98.81L19.53.99 19.53.9zM19.08 1.08L18.63 1.17 18.63 1.08 19.08.99zM18.18 1.35L17.73 1.44 17.73 1.26 18.18 1.17zM17.28 1.53L16.83 1.62 16.83 1.44 17.28 1.35zM16.38 1.62L15.93 1.71 15.93 1.62 16.38 1.53zM15.57 1.8L15.12 1.89 15.03 1.71 15.48 1.62zM14.58 1.98L14.13 1.98 14.13 1.8 14.58 1.8zM13.68 2.07L13.23 2.16 13.23 1.89 13.68 1.89zM12.78 2.16L12.33 2.25 12.33 1.98 12.78 1.98zM11.88 2.25L11.43 2.34 11.43 2.07 11.88 2.07zM10.98 2.34L10.53 2.43 10.53 2.16 10.98 2.16zM10.08 2.43L9.63 2.43 9.63 2.25 10.08 2.25zM9.18 2.52L8.73 2.52 8.73 2.34 9.18 2.25zM8.28 2.52L7.83 2.52 7.83 2.34 8.28 2.34zM7.38 2.52L6.93 2.61 6.93 2.43 7.38 2.43zM6.48 2.61L5.94 2.61 5.94 2.43 6.39 2.43zM5.49 2.61L5.04 2.61 5.04 2.52 5.49 2.43zM4.59 2.61L4.14 2.61 4.14 2.52 4.59 2.52zM3.69 2.61L3.24 2.61 3.24 2.52 3.69 2.52zM2.79 2.61L2.34 2.61 2.34 2.52 2.79 2.52zM1.89 2.61L1.44 2.61 1.44 2.52 1.89 2.52zM.99 2.61L.72 2.52.99 2.52z" transform="translate(36 16) translate(9.9 140.4)"/>
                        </g>
                        <path fill="#231F20" fill-rule="nonzero" d="M19.89 16.47c.54-1.26 2.16-3.78.63-4.77-1.71-1.08-3.6-1.89-5.49-2.43-.18-.09-.54.09-.54.27-.36 2.79-1.08 5.49-1.71 8.19-.09.54.72.81.9.27.63-2.7 1.35-5.4 1.71-8.19l-.54.27c1.35.36 2.52.9 3.69 1.53.99.45 1.98.72 1.53 1.98-.27.9-.63 1.71-.99 2.52-.27.63.63.9.81.36z" transform="translate(36 16)"/>
                        <path stroke="#231F20" stroke-dasharray=".45" stroke-width=".5" d="M15.21 11.34c.09 0 5.31 2.16 5.31 2.16" transform="translate(36 16)"/>
                    </g>
                </g>
            </g>
        </g>
    </g>
</svg>
