<svg xmlns="http://www.w3.org/2000/svg" width="146" height="212" viewBox="0 0 146 212">
    <g fill="none" fill-rule="evenodd">
        <g>
            <g transform="translate(-1327 -162) translate(1328 163)">
                <rect width="145" height="211" x="-.5" y="-.5" fill="#F4F4F4" stroke="#000" rx="4"/>
                <path fill="#000" fill-rule="nonzero" d="M29.783 184.15h3.999c1.822 0 3.145.26 3.968.778.823.519 1.235 1.343 1.235 2.474 0 .768-.18 1.398-.54 1.89-.361.492-.84.788-1.438.888v.088c.815.181 1.402.521 1.763 1.02.36.497.54 1.16.54 1.985 0 1.172-.423 2.086-1.27 2.743-.847.656-1.997.984-3.45.984h-4.807v-12.85zm2.724 5.09h1.582c.739 0 1.273-.115 1.604-.344.331-.228.497-.606.497-1.133 0-.492-.18-.846-.54-1.06-.36-.213-.93-.32-1.71-.32h-1.433v2.856zm0 2.161v3.349h1.776c.75 0 1.303-.144 1.66-.43.358-.288.537-.727.537-1.319 0-1.066-.762-1.6-2.285-1.6h-1.688zm21.033-.843c0 2.127-.528 3.761-1.582 4.904-1.055 1.142-2.567 1.714-4.536 1.714-1.968 0-3.48-.572-4.535-1.714-1.054-1.143-1.582-2.783-1.582-4.922s.529-3.772 1.587-4.9c1.057-1.128 2.573-1.692 4.548-1.692s3.485.569 4.53 1.705c1.047 1.137 1.57 2.772 1.57 4.905zm-9.378 0c0 1.435.272 2.516.817 3.243.545.726 1.36 1.09 2.443 1.09 2.174 0 3.261-1.445 3.261-4.333 0-2.895-1.08-4.342-3.243-4.342-1.084 0-1.901.365-2.452 1.094-.551.73-.826 1.812-.826 3.248zm23.704 0c0 2.127-.528 3.761-1.582 4.904-1.055 1.142-2.567 1.714-4.535 1.714-1.97 0-3.48-.572-4.536-1.714-1.054-1.143-1.582-2.783-1.582-4.922s.53-3.772 1.587-4.9c1.057-1.128 2.573-1.692 4.548-1.692s3.485.569 4.53 1.705c1.047 1.137 1.57 2.772 1.57 4.905zm-9.378 0c0 1.435.272 2.516.817 3.243.545.726 1.36 1.09 2.444 1.09 2.173 0 3.26-1.445 3.26-4.333 0-2.895-1.08-4.342-3.243-4.342-1.084 0-1.901.365-2.452 1.094-.55.73-.826 1.812-.826 3.248zM75.486 197H72.76v-10.582h-3.489v-2.268h9.703v2.268h-3.49V197zm10.925-10.767c-1.026 0-1.82.386-2.382 1.156-.563.77-.844 1.844-.844 3.221 0 2.866 1.075 4.298 3.226 4.298.902 0 1.995-.225 3.278-.677v2.286c-1.055.44-2.232.659-3.533.659-1.87 0-3.3-.567-4.29-1.7-.99-1.135-1.485-2.762-1.485-4.883 0-1.336.244-2.507.73-3.511.486-1.005 1.185-1.776 2.096-2.312.911-.536 1.979-.804 3.204-.804 1.248 0 2.502.302 3.761.905l-.879 2.215c-.48-.229-.963-.428-1.45-.598-.486-.17-.964-.255-1.432-.255zm16.47-2.083v8.315c0 .95-.212 1.781-.637 2.496-.425.715-1.038 1.263-1.841 1.643-.803.381-1.752.572-2.848.572-1.652 0-2.935-.424-3.85-1.27-.914-.847-1.37-2.006-1.37-3.476v-8.28h2.715v7.867c0 .99.2 1.716.598 2.18.398.462 1.058.694 1.977.694.891 0 1.537-.233 1.938-.7.402-.465.603-1.196.603-2.192v-7.849h2.715zm8.104 12.85h-2.725v-10.582h-3.489v-2.268h9.703v2.268h-3.49V197z"/>
                <g>
                    <path fill="#231F20" fill-rule="nonzero" d="M58.972 5.796c-7.452 2.668-15.548 6.532-23.736 5.428-.552-.092-.828.828-.276.92 8.372 1.104 16.468-2.668 24.196-5.428.644-.276.368-1.196-.184-.92z" transform="translate(37 16)"/>
                    <path fill="#231F20" fill-rule="nonzero" d="M34.592 11.04c-7.912-.368-15.916-1.748-23.368-4.232-.552-.184-.828.736-.276.92 7.544 2.576 15.64 3.864 23.644 4.324.644-.092.644-1.012 0-1.012zM35.42 27.508c2.208-.368 3.22-2.208 3.496-4.324.552-3.496.46-7.268.368-10.856 0-.552-.92-.552-.92 0 0 2.3 0 4.6-.092 6.9-.092 2.576.184 6.808-3.128 7.36-.552.184-.276 1.012.276.92z" transform="translate(37 16)"/>
                    <path fill="#231F20" fill-rule="nonzero" d="M9.2 15.18c4.14 1.104 12.236 1.38 12.604-4.508 0-.552-.92-.552-.92 0-.276 5.244-8.004 4.508-11.408 3.588-.644-.184-.828.736-.276.92z" transform="translate(37 16)"/>
                    <path fill="#231F20" fill-rule="nonzero" d="M11.408 2.576C6.44 17.204 6.716 32.936 7.36 48.208c.46 10.12 1.84 20.056 2.208 30.084.092 2.944.368 5.888.184 8.832-.276 3.588-.828 7.084-1.288 10.58-1.38 9.384-3.036 18.768-4.692 28.244-1.104 6.348-2.76 13.064-3.036 19.504-.092 1.932 1.656 1.84 3.312 2.3 5.888 1.748 12.236 2.668 18.308 1.104 1.564-.368 3.128-.736 4.692-.828 1.472-.092 3.496.184 4.876-.184.552-.184.828-.276.92-.92.276-1.104-.46-2.852-.644-3.956-.644-3.036-1.196-5.98-1.564-9.016-1.748-12.236-1.932-24.656-1.84-36.984.092-17.48 1.564-34.96 5.244-52.072.368-1.656.736-3.404 1.104-5.06h-.92c1.38 5.428 2.668 10.948 3.772 16.376 1.656 9.108 2.392 18.584 2.76 27.784.46 11.04.368 22.172-.184 33.212-.276 6.44-.828 12.88-1.84 19.32-.46 2.852-1.104 5.612-1.564 8.372-.092.644-.552 1.932-.092 2.484.736 1.012 3.22.46 4.232.46 3.588.184 6.9 1.472 10.396 1.748 3.312.276 6.624-.184 9.752-.828 2.116-.46 4.784-.92 6.716-1.932 1.196-.644.828-1.656.644-2.944-.368-3.036-.828-6.072-1.38-9.2-1.564-9.568-3.22-19.044-4.784-28.612-1.196-7.268-2.944-14.904-2.76-22.264.092-3.864.276-7.728.368-11.592.184-4.508.92-8.924 1.288-13.432 1.288-15.088 2.024-30.912-.368-45.908-.644-4.048-1.656-8.096-2.944-11.96-.184-.552-1.104-.276-.92.276 4.968 14.812 4.692 30.728 3.956 46.184-.46 10.12-1.84 20.148-2.208 30.268-.092 2.852-.368 5.796-.184 8.648.276 3.22.736 6.44 1.196 9.66 1.38 9.384 2.944 18.676 4.508 27.968 1.196 6.9 2.668 13.892 3.22 20.792 0 .276.092.644.092.92-.092.46.368-.092-.184.184-1.748.92-4.232 1.288-6.164 1.748-3.68.828-7.544 1.288-11.224.828-3.128-.46-6.072-1.472-9.384-1.656-.644 0-3.128.276-3.588-.092-.092-.092.184-1.196.184-1.38.46-2.392 1.012-4.692 1.38-7.084 1.012-5.888 1.564-11.776 1.932-17.756.644-11.224.828-22.448.46-33.672-.276-9.2-1.104-18.4-2.392-27.508-.736-5.244-2.024-10.396-3.22-15.548-.276-1.38-.736-2.852-1.104-4.232-.092-.46-.828-.46-.92 0-1.196 6.164-2.668 12.328-3.588 18.584-1.288 9.476-2.3 19.044-2.576 28.612-.368 10.764-.276 21.528.368 32.292.276 5.428.736 10.948 1.564 16.284.46 2.852 1.012 5.704 1.564 8.556.184.736.276 1.38.46 2.116.184 1.012.276.644-.552.828-1.288.276-2.944.092-4.324.184-1.288.092-2.668.276-3.956.644-3.588.92-6.9 1.288-10.58.92-2.944-.276-5.888-1.012-8.648-1.84-.644-.184-1.472-.368-2.116-.644-.46-.276-.092.368-.184-.184-.368-1.932.46-4.508.828-6.44.552-3.772 1.196-7.452 1.84-11.224 1.564-9.108 3.128-18.216 4.6-27.416.92-5.98 2.024-11.96 1.84-18.032-.092-3.68-.276-7.36-.368-11.132-.184-4.6-1.012-9.2-1.38-13.8-1.104-14.444-1.84-29.532.552-43.884.644-3.864 1.564-7.636 2.852-11.316.644-.276-.276-.552-.46 0z" transform="translate(37 16)"/>
                    <g stroke="#231F20" stroke-width=".5">
                        <path d="M.92 6.348s.092.092.184.092" transform="translate(37 16) translate(8.28 9.2)"/>
                        <path stroke-dasharray=".454 .454" d="M1.472 6.716c.828.46 2.76 1.012 5.888.736 4.6-.552 6.44-3.496 6.44-3.496l.828-2.392" transform="translate(37 16) translate(8.28 9.2)"/>
                        <path d="M14.72 1.288L14.812 1.012" transform="translate(37 16) translate(8.28 9.2)"/>
                    </g>
                    <path fill="#231F20" fill-rule="nonzero" d="M60.444 13.708c-3.404.92-11.132 1.564-11.408-3.588 0-.552-.92-.552-.92 0 .368 5.98 8.464 5.612 12.604 4.508.46-.184.276-1.012-.276-.92z" transform="translate(37 16)"/>
                    <g stroke="#231F20" stroke-width=".5">
                        <path d="M14.628 5.888s-.092.092-.184.092" transform="translate(37 16) translate(46 9.2)"/>
                        <path stroke-dasharray=".454 .454" d="M14.076 6.256c-.828.46-2.76 1.012-5.888.736-4.6-.552-6.44-3.496-6.44-3.496L.92 1.012" transform="translate(37 16) translate(46 9.2)"/>
                        <path d="M0.828 0.736L0.736 0.552" transform="translate(37 16) translate(46 9.2)"/>
                    </g>
                    <path fill="#FFF" fill-rule="nonzero" stroke="#231F20" stroke-width=".69" d="M43.24 5.98L44.62 15.272 46.736 14.72 45.54 5.98M26.772 5.98L25.392 15.272 23.184 14.72 24.38 5.98" transform="translate(37 16)"/>
                    <g fill-rule="nonzero">
                        <path fill="#BCBEC0" d="M23.644 7.176c-6.532-.644-13.064-1.84-19.412-3.588C3.036 3.22 1.84 2.852.828 2.116c1.656-.368 3.404-.368 5.152-.368 7.176.092 35.972-.276 39.376-.552l1.748.092c-1.104.552-2.208.92-3.312 1.38-3.22 1.196-6.44 2.392-9.844 3.22-3.312.736-6.808 1.104-10.212.46.092 5.796-.184 30.268-.092 33.12" transform="translate(37 16) translate(11.04)"/>
                        <path fill="#231F20" d="M23.644 6.716c-3.956-.368-7.82-1.012-11.776-1.748-3.496-.736-7.82-1.196-10.856-3.22 0 .276-.092.552-.092.828 3.956-.736 8.464-.276 12.512-.368 4.6 0 9.2-.092 13.892-.092 6.532-.092 13.156-.552 19.688-.368L46.736.92c-6.992 3.22-15.272 6.256-23 5.06-.276 0-.552.092-.552.46.184 11.04-.276 22.08-.092 33.12 0 .552.92.552.92 0-.184-11.04.276-22.08.092-33.12-.184.184-.368.276-.552.46 8.096 1.288 16.468-1.84 23.736-5.152.46-.184.184-.828-.276-.828-6.716-.276-13.524.276-20.24.368-4.6.092-9.2.092-13.8.092-4.048 0-8.372-.368-12.328.368-.46.092-.368.644-.092.828C3.588 4.6 8.004 5.152 11.592 5.888c3.956.828 8.004 1.38 11.96 1.84.644 0 .644-.92.092-1.012z" transform="translate(37 16) translate(11.04)"/>
                    </g>
                    <path fill="#231F20" fill-rule="nonzero" d="M17.388 15.088c.46-.828 1.656-3.312.552-3.956-1.012-.644-2.76-.828-3.864-1.196-.644-.184-1.288-.276-2.024-.46-.276 0-.46.092-.552.276-.46 1.748-1.104 3.404-1.748 4.968-.184.552.644.828.92.276.644-1.656 1.38-3.312 1.748-4.968l-.552.276c1.196.184 2.208.46 3.404.828.46.092.92.276 1.38.368.736.184.736 0 .828.552.092.644-.46 1.84-.736 2.392-.46.736.368 1.196.644.644z" transform="translate(37 16)"/>
                    <path stroke="#231F20" stroke-dasharray=".46" stroke-width=".5" d="M1.196 144.44s3.68 1.932 9.2 2.944c5.98 1.104 11.5-.184 13.984-1.472 2.576-1.288 5.98 0 5.98 0l1.932-.552M68.632 144.44s-3.68 1.932-9.2 2.944c-5.98 1.104-11.5-.184-13.984-1.472-2.576-1.288-5.98 0-5.98 0l-1.932-.552" transform="translate(37 16)"/>
                    <path fill="#BCBEC0" fill-rule="nonzero" stroke="#231F20" stroke-dasharray=".46" stroke-width=".5" d="M13.708 2.852h24.38L55.476 2.3" transform="translate(37 16)"/>
                    <path stroke="#231F20" stroke-dasharray=".46" stroke-width=".5" d="M11.868 10.764c.092 0 6.072 2.024 6.072 2.024" transform="translate(37 16)"/>
                </g>
            </g>
        </g>
    </g>
</svg>
