<svg xmlns="http://www.w3.org/2000/svg" width="144" height="210" viewBox="0 0 144 210">
    <g fill="none" fill-rule="evenodd">
        <g>
            <g transform="translate(-1328 -163) translate(1328 163)">
                <rect width="144" height="210" fill="#F4F4F4" rx="4"/>
                <path fill="#000" fill-rule="nonzero" d="M31.229 184.15h3.63c1.704 0 2.938.255 3.7.765.761.51 1.142 1.315 1.142 2.417 0 .762-.212 1.39-.637 1.885-.425.495-1.044.816-1.859.963v.088c1.951.334 2.927 1.359 2.927 3.076 0 1.148-.388 2.045-1.165 2.69-.776.644-1.862.966-3.256.966h-4.482v-12.85zm1.494 5.502h2.46c1.055 0 1.814-.165 2.277-.496.463-.331.694-.89.694-1.675 0-.72-.258-1.24-.773-1.56-.516-.319-1.336-.479-2.461-.479h-2.197v4.21zm0 1.266v4.808h2.68c1.037 0 1.818-.201 2.343-.602.524-.402.786-1.03.786-1.886 0-.797-.268-1.383-.804-1.758s-1.352-.562-2.448-.562h-2.557zm21.322-.36c0 2.056-.52 3.673-1.56 4.851s-2.486 1.767-4.338 1.767c-1.892 0-3.353-.579-4.38-1.736-1.03-1.157-1.543-2.79-1.543-4.9 0-2.092.515-3.713 1.547-4.865 1.03-1.151 2.496-1.727 4.394-1.727 1.846 0 3.287.586 4.324 1.758 1.037 1.172 1.556 2.79 1.556 4.852zm-10.24 0c0 1.74.371 3.06 1.112 3.96.742.899 1.818 1.348 3.23 1.348 1.424 0 2.5-.448 3.226-1.345.727-.896 1.09-2.217 1.09-3.963 0-1.729-.362-3.04-1.086-3.933-.723-.894-1.794-1.34-3.212-1.34-1.424 0-2.506.449-3.248 1.348-.74.9-1.111 2.208-1.111 3.925zm24.258 0c0 2.056-.52 3.673-1.56 4.851s-2.485 1.767-4.337 1.767c-1.893 0-3.353-.579-4.381-1.736-1.029-1.157-1.543-2.79-1.543-4.9 0-2.092.516-3.713 1.547-4.865 1.031-1.151 2.496-1.727 4.395-1.727 1.845 0 3.287.586 4.324 1.758 1.037 1.172 1.555 2.79 1.555 4.852zm-10.239 0c0 1.74.37 3.06 1.112 3.96.741.899 1.818 1.348 3.23 1.348 1.424 0 2.499-.448 3.226-1.345.726-.896 1.09-2.217 1.09-3.963 0-1.729-.362-3.04-1.086-3.933-.724-.894-1.794-1.34-3.212-1.34-1.424 0-2.507.449-3.248 1.348-.741.9-1.112 2.208-1.112 3.925zM74.884 197H73.39v-11.522h-4.07v-1.328h9.633v1.328h-4.07V197zm11.505-11.698c-1.412 0-2.527.47-3.345 1.41-.817.94-1.226 2.228-1.226 3.863 0 1.682.394 2.981 1.182 3.898.789.917 1.912 1.376 3.371 1.376.897 0 1.919-.161 3.067-.484v1.31c-.89.334-1.989.5-3.295.5-1.893 0-3.353-.573-4.382-1.722-1.028-1.148-1.542-2.78-1.542-4.895 0-1.325.247-2.485.742-3.48.496-.997 1.21-1.765 2.145-2.304.935-.539 2.035-.808 3.3-.808 1.348 0 2.526.246 3.533.738l-.632 1.283c-.973-.457-1.946-.685-2.918-.685zm15.556-1.152v8.315c0 1.465-.442 2.616-1.327 3.454-.885.838-2.1 1.257-3.647 1.257-1.547 0-2.744-.422-3.59-1.266-.847-.844-1.27-2.004-1.27-3.48v-8.28h1.493v8.385c0 1.072.293 1.896.88 2.47.585.574 1.447.861 2.583.861 1.084 0 1.92-.288 2.505-.866.586-.577.88-1.404.88-2.482v-8.368h1.493zm7.357 12.85h-1.494v-11.522h-4.07v-1.328h9.633v1.328h-4.07V197z"/>
                <g>
                    <path fill="#231F20" fill-rule="nonzero" d="M58.972 5.796c-7.452 2.668-15.548 6.532-23.736 5.428-.552-.092-.828.828-.276.92 8.372 1.104 16.468-2.668 24.196-5.428.644-.276.368-1.196-.184-.92z" transform="translate(37 16)"/>
                    <path fill="#231F20" fill-rule="nonzero" d="M34.592 11.04c-7.912-.368-15.916-1.748-23.368-4.232-.552-.184-.828.736-.276.92 7.544 2.576 15.64 3.864 23.644 4.324.644-.092.644-1.012 0-1.012zM35.42 27.508c2.208-.368 3.22-2.208 3.496-4.324.552-3.496.46-7.268.368-10.856 0-.552-.92-.552-.92 0 0 2.3 0 4.6-.092 6.9-.092 2.576.184 6.808-3.128 7.36-.552.184-.276 1.012.276.92z" transform="translate(37 16)"/>
                    <path fill="#231F20" fill-rule="nonzero" d="M9.2 15.18c4.14 1.104 12.236 1.38 12.604-4.508 0-.552-.92-.552-.92 0-.276 5.244-8.004 4.508-11.408 3.588-.644-.184-.828.736-.276.92z" transform="translate(37 16)"/>
                    <path fill="#231F20" fill-rule="nonzero" d="M11.408 2.576C6.44 17.204 6.716 32.936 7.36 48.208c.46 10.12 1.84 20.056 2.208 30.084.092 2.944.368 5.888.184 8.832-.276 3.588-.828 7.084-1.288 10.58-1.38 9.384-3.036 18.768-4.692 28.244-1.104 6.348-2.76 13.064-3.036 19.504-.092 1.932 1.656 1.84 3.312 2.3 5.888 1.748 12.236 2.668 18.308 1.104 1.564-.368 3.128-.736 4.692-.828 1.472-.092 3.496.184 4.876-.184.552-.184.828-.276.92-.92.276-1.104-.46-2.852-.644-3.956-.644-3.036-1.196-5.98-1.564-9.016-1.748-12.236-1.932-24.656-1.84-36.984.092-17.48 1.564-34.96 5.244-52.072.368-1.656.736-3.404 1.104-5.06h-.92c1.38 5.428 2.668 10.948 3.772 16.376 1.656 9.108 2.392 18.584 2.76 27.784.46 11.04.368 22.172-.184 33.212-.276 6.44-.828 12.88-1.84 19.32-.46 2.852-1.104 5.612-1.564 8.372-.092.644-.552 1.932-.092 2.484.736 1.012 3.22.46 4.232.46 3.588.184 6.9 1.472 10.396 1.748 3.312.276 6.624-.184 9.752-.828 2.116-.46 4.784-.92 6.716-1.932 1.196-.644.828-1.656.644-2.944-.368-3.036-.828-6.072-1.38-9.2-1.564-9.568-3.22-19.044-4.784-28.612-1.196-7.268-2.944-14.904-2.76-22.264.092-3.864.276-7.728.368-11.592.184-4.508.92-8.924 1.288-13.432 1.288-15.088 2.024-30.912-.368-45.908-.644-4.048-1.656-8.096-2.944-11.96-.184-.552-1.104-.276-.92.276 4.968 14.812 4.692 30.728 3.956 46.184-.46 10.12-1.84 20.148-2.208 30.268-.092 2.852-.368 5.796-.184 8.648.276 3.22.736 6.44 1.196 9.66 1.38 9.384 2.944 18.676 4.508 27.968 1.196 6.9 2.668 13.892 3.22 20.792 0 .276.092.644.092.92-.092.46.368-.092-.184.184-1.748.92-4.232 1.288-6.164 1.748-3.68.828-7.544 1.288-11.224.828-3.128-.46-6.072-1.472-9.384-1.656-.644 0-3.128.276-3.588-.092-.092-.092.184-1.196.184-1.38.46-2.392 1.012-4.692 1.38-7.084 1.012-5.888 1.564-11.776 1.932-17.756.644-11.224.828-22.448.46-33.672-.276-9.2-1.104-18.4-2.392-27.508-.736-5.244-2.024-10.396-3.22-15.548-.276-1.38-.736-2.852-1.104-4.232-.092-.46-.828-.46-.92 0-1.196 6.164-2.668 12.328-3.588 18.584-1.288 9.476-2.3 19.044-2.576 28.612-.368 10.764-.276 21.528.368 32.292.276 5.428.736 10.948 1.564 16.284.46 2.852 1.012 5.704 1.564 8.556.184.736.276 1.38.46 2.116.184 1.012.276.644-.552.828-1.288.276-2.944.092-4.324.184-1.288.092-2.668.276-3.956.644-3.588.92-6.9 1.288-10.58.92-2.944-.276-5.888-1.012-8.648-1.84-.644-.184-1.472-.368-2.116-.644-.46-.276-.092.368-.184-.184-.368-1.932.46-4.508.828-6.44.552-3.772 1.196-7.452 1.84-11.224 1.564-9.108 3.128-18.216 4.6-27.416.92-5.98 2.024-11.96 1.84-18.032-.092-3.68-.276-7.36-.368-11.132-.184-4.6-1.012-9.2-1.38-13.8-1.104-14.444-1.84-29.532.552-43.884.644-3.864 1.564-7.636 2.852-11.316.644-.276-.276-.552-.46 0z" transform="translate(37 16)"/>
                    <g stroke="#231F20" stroke-width=".5">
                        <path d="M.92 6.348s.092.092.184.092" transform="translate(37 16) translate(8.28 9.2)"/>
                        <path stroke-dasharray=".454 .454" d="M1.472 6.716c.828.46 2.76 1.012 5.888.736 4.6-.552 6.44-3.496 6.44-3.496l.828-2.392" transform="translate(37 16) translate(8.28 9.2)"/>
                        <path d="M14.72 1.288L14.812 1.012" transform="translate(37 16) translate(8.28 9.2)"/>
                    </g>
                    <path fill="#231F20" fill-rule="nonzero" d="M60.444 13.708c-3.404.92-11.132 1.564-11.408-3.588 0-.552-.92-.552-.92 0 .368 5.98 8.464 5.612 12.604 4.508.46-.184.276-1.012-.276-.92z" transform="translate(37 16)"/>
                    <g stroke="#231F20" stroke-width=".5">
                        <path d="M14.628 5.888s-.092.092-.184.092" transform="translate(37 16) translate(46 9.2)"/>
                        <path stroke-dasharray=".454 .454" d="M14.076 6.256c-.828.46-2.76 1.012-5.888.736-4.6-.552-6.44-3.496-6.44-3.496L.92 1.012" transform="translate(37 16) translate(46 9.2)"/>
                        <path d="M0.828 0.736L0.736 0.552" transform="translate(37 16) translate(46 9.2)"/>
                    </g>
                    <path fill="#FFF" fill-rule="nonzero" stroke="#231F20" stroke-width=".69" d="M43.24 5.98L44.62 15.272 46.736 14.72 45.54 5.98M26.772 5.98L25.392 15.272 23.184 14.72 24.38 5.98" transform="translate(37 16)"/>
                    <g fill-rule="nonzero">
                        <path fill="#BCBEC0" d="M23.644 7.176c-6.532-.644-13.064-1.84-19.412-3.588C3.036 3.22 1.84 2.852.828 2.116c1.656-.368 3.404-.368 5.152-.368 7.176.092 35.972-.276 39.376-.552l1.748.092c-1.104.552-2.208.92-3.312 1.38-3.22 1.196-6.44 2.392-9.844 3.22-3.312.736-6.808 1.104-10.212.46.092 5.796-.184 30.268-.092 33.12" transform="translate(37 16) translate(11.04)"/>
                        <path fill="#231F20" d="M23.644 6.716c-3.956-.368-7.82-1.012-11.776-1.748-3.496-.736-7.82-1.196-10.856-3.22 0 .276-.092.552-.092.828 3.956-.736 8.464-.276 12.512-.368 4.6 0 9.2-.092 13.892-.092 6.532-.092 13.156-.552 19.688-.368L46.736.92c-6.992 3.22-15.272 6.256-23 5.06-.276 0-.552.092-.552.46.184 11.04-.276 22.08-.092 33.12 0 .552.92.552.92 0-.184-11.04.276-22.08.092-33.12-.184.184-.368.276-.552.46 8.096 1.288 16.468-1.84 23.736-5.152.46-.184.184-.828-.276-.828-6.716-.276-13.524.276-20.24.368-4.6.092-9.2.092-13.8.092-4.048 0-8.372-.368-12.328.368-.46.092-.368.644-.092.828C3.588 4.6 8.004 5.152 11.592 5.888c3.956.828 8.004 1.38 11.96 1.84.644 0 .644-.92.092-1.012z" transform="translate(37 16) translate(11.04)"/>
                    </g>
                    <path fill="#231F20" fill-rule="nonzero" d="M17.388 15.088c.46-.828 1.656-3.312.552-3.956-1.012-.644-2.76-.828-3.864-1.196-.644-.184-1.288-.276-2.024-.46-.276 0-.46.092-.552.276-.46 1.748-1.104 3.404-1.748 4.968-.184.552.644.828.92.276.644-1.656 1.38-3.312 1.748-4.968l-.552.276c1.196.184 2.208.46 3.404.828.46.092.92.276 1.38.368.736.184.736 0 .828.552.092.644-.46 1.84-.736 2.392-.46.736.368 1.196.644.644z" transform="translate(37 16)"/>
                    <path stroke="#231F20" stroke-dasharray=".46" stroke-width=".5" d="M1.196 144.44s3.68 1.932 9.2 2.944c5.98 1.104 11.5-.184 13.984-1.472 2.576-1.288 5.98 0 5.98 0l1.932-.552M68.632 144.44s-3.68 1.932-9.2 2.944c-5.98 1.104-11.5-.184-13.984-1.472-2.576-1.288-5.98 0-5.98 0l-1.932-.552" transform="translate(37 16)"/>
                    <path fill="#BCBEC0" fill-rule="nonzero" stroke="#231F20" stroke-dasharray=".46" stroke-width=".5" d="M13.708 2.852h24.38L55.476 2.3" transform="translate(37 16)"/>
                    <path stroke="#231F20" stroke-dasharray=".46" stroke-width=".5" d="M11.868 10.764c.092 0 6.072 2.024 6.072 2.024" transform="translate(37 16)"/>
                </g>
            </g>
        </g>
    </g>
</svg>
