<svg xmlns="http://www.w3.org/2000/svg" width="144" height="210" viewBox="0 0 144 210">
    <g fill="none" fill-rule="evenodd">
        <g>
            <g transform="translate(-1677 -163) translate(1677 163)">
                <rect width="144" height="210" fill="#F4F4F4" rx="4"/>
                <path fill="#000" fill-rule="nonzero" d="M41.752 183.948c1.846 0 3.288.586 4.325 1.758 1.037 1.172 1.555 2.79 1.555 4.852 0 2.056-.52 3.673-1.56 4.851s-2.486 1.767-4.337 1.767c-1.893 0-3.353-.579-4.381-1.736-1.029-1.157-1.543-2.79-1.543-4.9 0-2.092.516-3.713 1.547-4.865 1.031-1.151 2.496-1.727 4.394-1.727zm-13.306.202c1.705 0 2.938.255 3.7.765s1.143 1.315 1.143 2.417c0 .762-.213 1.39-.638 1.885-.424.495-1.044.816-1.859.963v.088c1.952.334 2.927 1.359 2.927 3.076 0 1.148-.388 2.045-1.164 2.69-.777.644-1.862.966-3.257.966h-4.482v-12.85h3.63zm21.92 0l3.401 6.425 3.428-6.425h1.617l-4.29 7.867V197h-1.51v-4.913l-4.281-7.937h1.635zm17.376 0v1.328h-5.67v4.702H67.4v1.327h-5.326V197h-1.494v-12.85h7.163zm5.651 0c1.576 0 2.74.302 3.494.906.753.603 1.13 1.511 1.13 2.724 0 1.7-.862 2.848-2.585 3.446l3.49 5.774h-1.767l-3.112-5.344h-2.68V197h-1.494v-12.85h3.524zm9.097 0V197h-1.494v-12.85h1.494zm10.687 0v1.328h-5.669v4.14h5.326v1.318h-5.326v4.728h5.67V197h-7.164v-12.85h7.163zm4.535 0l7.005 10.74h.07l-.079-1.524c-.04-.859-.055-1.472-.043-1.842v-7.374h1.397V197h-1.705l-7.023-10.784h-.07c.094 1.265.14 2.426.14 3.48V197h-1.38v-12.85h1.688zm15.82 0c1.999 0 3.551.554 4.659 1.662 1.107 1.107 1.661 2.654 1.661 4.64 0 2.121-.576 3.743-1.727 4.865-1.151 1.122-2.808 1.683-4.97 1.683h-3.56v-12.85h3.938zm-71.78 1.134c-1.423 0-2.506.45-3.247 1.35-.741.899-1.112 2.207-1.112 3.924 0 1.74.37 3.06 1.112 3.96.741.899 1.818 1.348 3.23 1.348 1.424 0 2.499-.448 3.225-1.345.727-.896 1.09-2.217 1.09-3.963 0-1.729-.362-3.04-1.085-3.933-.724-.894-1.795-1.34-3.213-1.34zm-12.884 5.634H26.31v4.808h2.68c1.038 0 1.819-.201 2.343-.602.524-.402.787-1.03.787-1.886 0-.797-.268-1.383-.805-1.758-.536-.375-1.352-.562-2.447-.562zm84.392-5.476h-2.17v10.266h1.819c1.78 0 3.12-.438 4.016-1.314.897-.876 1.345-2.172 1.345-3.89 0-1.675-.42-2.938-1.261-3.787-.841-.85-2.09-1.275-3.749-1.275zm-39.955.018h-1.942v4.913h2.048c1.054 0 1.828-.21 2.32-.628.492-.42.738-1.048.738-1.886 0-.85-.25-1.462-.751-1.837s-1.305-.562-2.413-.562zm-44.798-.018H26.31v4.21h2.461c1.055 0 1.813-.165 2.276-.496.463-.331.695-.89.695-1.675 0-.72-.258-1.24-.774-1.56-.515-.319-1.336-.479-2.46-.479z"/>
                <g>
                    <path fill="#000" fill-rule="nonzero" d="M5.093 21.504c4.512.192 9.312.192 13.44-1.824 3.648-1.728 4.608-4.512 5.088-8.352.096-.576-.864-.576-.96 0-.288 2.016-.576 4.224-2.016 5.76-1.248 1.248-3.168 2.016-4.8 2.496-3.552 1.056-7.2.96-10.848.864-.48.096-.48 1.056.096 1.056zM42.34 10.752c.577 3.456 1.537 7.2 4.993 8.832 3.36 1.632 7.968 1.056 11.52.576.576-.096.576-1.056 0-.96-3.168.384-6.72.768-9.792 0-4.128-1.152-5.088-4.992-5.76-8.736-.192-.576-1.056-.288-.96.288z" transform="translate(39 16)"/>
                    <g fill-rule="nonzero">
                        <path fill="#BCBEC0" d="M23.232 5.952c-2.016-.288-4.128-.48-6.144-.48-1.056 0-2.112 0-3.168-.192-.864-.096-1.632-.384-2.496-.48-1.056-.192-2.208-.192-3.264-.384-2.4-.384-4.704-1.248-7.008-2.208l2.112-.576c14.304.192 28.608-.864 42.816 0-6.912 2.976-14.688 3.072-22.272 3.552-.192 0-.48.096-.576.288-.096.096 0 .192 0 .288 0 2.016.096 4.128.096 6.144l-.672 39.264" transform="translate(39 16) translate(8.74)"/>
                        <path fill="#000" d="M23.232 5.472c-3.936-.48-7.776-.48-11.712-1.152-1.632-.288-3.264-.288-4.8-.672-1.824-.48-3.648-1.152-5.376-1.92v.96c2.784-.768 5.664-.48 8.64-.576 3.936 0 7.968-.096 11.904-.192 8.064-.192 16.224-.288 24.288.192 0-.288-.096-.672-.096-.96-4.416 1.824-9.024 2.592-13.728 2.976-2.208.192-4.512.288-6.72.48-.768 0-2.208-.192-2.688.576-.672.96-.096 3.744 0 4.896v2.016c0 1.056 0 2.112-.096 3.168-.192 9.12-.288 18.336-.48 27.456-.096 2.784-.096 5.568-.192 8.352 0 .576.96.576.96 0 .192-13.056.672-26.208.672-39.264 0-1.056 0-2.016-.096-3.072 0-1.824-.192-2.88 1.728-3.264 2.304-.48 4.8-.288 7.2-.48 4.608-.384 9.216-1.248 13.536-2.976.48-.192.48-.864-.096-.96-8.352-.48-16.8-.384-25.248-.192-4.128.096-8.256.192-12.384.192-2.592 0-4.896-.096-7.488.576-.48.096-.384.768 0 .96 1.728.768 3.552 1.44 5.376 1.92 1.824.48 3.744.48 5.664.864 3.648.672 7.392.48 11.136 1.056.672.096.672-.864.096-.96z" transform="translate(39 16) translate(8.74)"/>
                    </g>
                    <path stroke="#000" stroke-width=".96" d="M8.069 8.064s7.392 3.36 21.696 2.976c14.304-.384 21.696-1.44 26.88-3.648" transform="translate(39 16)"/>
                    <path fill="#FFF" fill-rule="nonzero" stroke="#000" stroke-width=".96" d="M27.077 5.184L26.405 13.824 24.965 13.824 25.733 5.184zM38.789 4.992L39.461 13.536 40.901 13.536 40.133 4.992z" transform="translate(39 16)"/>
                    <path stroke="#000" stroke-dasharray=".48" stroke-width=".5" d="M41.477 10.656s.384 8.448 6.24 10.08c3.744 1.056 6.144.96 12 .384M24.389 11.328s-.576 8.352-6.912 10.08c-4.032 1.056-6.624 1.344-12.864.768" transform="translate(39 16)"/>
                    <path stroke="#000" stroke-width=".96" d="M9.893 2.208S.773 33.12 2.02 48.864c1.248 15.744-.672 52.896-.672 52.896v37.152H.197v8.064s5.856 3.168 24.096 1.44l1.632-7.968-1.248-.384s1.248-3.168 1.248-5.184c-.096-2.112 0-10.848 0-10.848l1.632-24.288 2.4-32.928L31.3 50.4M54.82 1.632s9.025 31.776 7.68 47.424c-1.343 15.648.769 52.992.769 52.992V139.2h1.152v8.064s-6.24 3.168-25.632 1.44l-1.728-7.968 1.248-.384s-1.344-3.168-1.248-5.184c.096-2.112 0-10.848 0-10.848l-1.824-24.288L32.74 67.2 31.3 51.168v-.288" transform="translate(39 16)"/>
                    <path stroke="#000" stroke-width=".96" d="M7.685 21.12L9.509 13.536 19.205 14.592 18.437 19.2" transform="translate(39 16)"/>
                    <path stroke="#000" stroke-dasharray=".48" stroke-width=".5" d="M9.22 14.784c.48 0 3.649 1.344 9.793 1.344" transform="translate(39 16)"/>
                    <path stroke="#000" stroke-width=".72" d="M31.589 35.808s2.976.48 4.512-5.856V11.04" transform="translate(39 16)"/>
                    <path fill="#000" fill-rule="nonzero" d="M.389 139.584c7.968 1.92 16.224 3.456 24.192.96.576-.192.384-1.152-.288-.96-7.872 2.4-15.936.864-23.712-.96-.576-.192-.864.768-.192.96zM23.429 143.04c-.576.864-2.208 1.248-3.168 1.44-1.152.288-2.304.384-3.456.384-.288 0-.288.48 0 .48 1.44 0 2.88-.192 4.224-.576.96-.288 2.112-.576 2.784-1.44.192-.288-.192-.48-.384-.288zM1.157 140.352c2.016 1.92 4.896 2.592 7.488 2.976.288 0 .288-.48 0-.48-2.496-.288-5.28-1.056-7.2-2.784-.192-.192-.576.096-.288.288zM62.693 139.008c-7.776 1.824-15.84 3.456-23.712.96-.576-.192-.864.768-.288.96 7.968 2.496 16.224.864 24.192-.96.672-.192.384-1.152-.192-.96zM37.733 141.696c.576.864 1.824 1.152 2.784 1.44 1.344.384 2.784.576 4.224.576.288 0 .288-.48 0-.48-1.152 0-2.304-.096-3.456-.384-.96-.288-2.496-.576-3.168-1.44-.096-.192-.48 0-.384.288z" transform="translate(39 16)"/>
                    <path fill="#000" fill-rule="nonzero" d="M64.229 138.912c-2.688 2.976-6.72 4.32-10.56 4.896-.288 0-.192.48.096.48 3.936-.576 7.968-2.016 10.752-4.992.288-.288-.096-.576-.288-.384z" transform="translate(39 16)"/>
                </g>
            </g>
        </g>
    </g>
</svg>
