<svg xmlns="http://www.w3.org/2000/svg" width="146" height="212" viewBox="0 0 146 212">
    <g fill="none" fill-rule="evenodd">
        <g>
            <g transform="translate(-1676 -162) translate(1677 163)">
                <rect width="145" height="211" x="-.5" y="-.5" fill="#F4F4F4" stroke="#000" rx="4"/>
                <path fill="#000" fill-rule="nonzero" d="M39.568 183.948c1.975 0 3.485.569 4.531 1.705 1.046 1.137 1.569 2.772 1.569 4.905 0 2.127-.527 3.761-1.582 4.904-1.055 1.142-2.566 1.714-4.535 1.714-1.969 0-3.48-.572-4.535-1.714-1.055-1.143-1.582-2.783-1.582-4.922s.528-3.772 1.586-4.9c1.058-1.128 2.574-1.692 4.548-1.692zm-13.658.202c1.822 0 3.145.26 3.968.778.824.519 1.235 1.343 1.235 2.474 0 .768-.18 1.398-.54 1.89-.36.492-.84.788-1.437.888v.088c.814.181 1.402.521 1.762 1.02.36.497.54 1.16.54 1.985 0 1.172-.423 2.086-1.27 2.743-.846.656-1.996.984-3.45.984h-4.807v-12.85h4zm23.757 0l2.663 5.291 2.68-5.29h2.936l-4.262 7.848V197h-2.707v-4.913l-4.263-7.937h2.953zm17.262 0v2.233h-4.685v3.313h4.36v2.224h-4.36V197h-2.68v-12.85h7.365zm6.258 0c1.746 0 3.038.318 3.876.954.837.636 1.256 1.601 1.256 2.896 0 .756-.208 1.428-.624 2.017-.416.589-1.005 1.05-1.766 1.384l3.266 4.852.513.747h-3.023l-3.068-4.93h-1.45V197h-2.725v-12.85h3.745zm10.863 0V197h-2.725v-12.85h2.725zm10.635 0v2.233h-4.676v2.821h4.35v2.233h-4.35v3.313h4.676V197h-7.4v-12.85h7.4zm6.117 0l5.58 9.624h.062l-.084-1.769c-.032-.767-.047-1.358-.047-1.773v-6.082h2.452V197h-3.463l-5.59-9.72h-.08l.078 1.268c.054.97.084 1.72.09 2.252v6.2h-2.435v-12.85h3.437zm15.231 0c2.098 0 3.727.554 4.887 1.662 1.16 1.107 1.74 2.654 1.74 4.64 0 2.115-.602 3.735-1.806 4.86-1.204 1.126-2.943 1.688-5.216 1.688h-3.639v-12.85h4.034zm-76.465 2.066c-1.084 0-1.901.365-2.452 1.094-.55.73-.826 1.812-.826 3.248 0 1.435.272 2.516.817 3.243.545.726 1.36 1.09 2.444 1.09 2.174 0 3.26-1.445 3.26-4.333 0-2.895-1.08-4.342-3.243-4.342zM26.323 191.4h-1.687v3.349h1.775c.75 0 1.304-.144 1.661-.43.358-.288.536-.727.536-1.319 0-1.066-.761-1.6-2.285-1.6zm89.85-5.018h-1.45v8.367h1.17c2.625 0 3.937-1.41 3.937-4.228 0-2.76-1.219-4.14-3.656-4.14zm-43.18 0h-.826v3.471h.879c.861 0 1.497-.143 1.907-.43.41-.287.615-.738.615-1.354 0-.61-.21-1.043-.628-1.3-.419-.258-1.068-.387-1.947-.387zm-46.925 0h-1.432v2.856h1.582c.738 0 1.273-.114 1.604-.343.33-.228.496-.606.496-1.133 0-.492-.18-.846-.54-1.06-.36-.213-.93-.32-1.71-.32z"/>
                <g>
                    <path fill="#000" fill-rule="nonzero" d="M5.093 21.504c4.512.192 9.312.192 13.44-1.824 3.648-1.728 4.608-4.512 5.088-8.352.096-.576-.864-.576-.96 0-.288 2.016-.576 4.224-2.016 5.76-1.248 1.248-3.168 2.016-4.8 2.496-3.552 1.056-7.2.96-10.848.864-.48.096-.48 1.056.096 1.056zM42.34 10.752c.577 3.456 1.537 7.2 4.993 8.832 3.36 1.632 7.968 1.056 11.52.576.576-.096.576-1.056 0-.96-3.168.384-6.72.768-9.792 0-4.128-1.152-5.088-4.992-5.76-8.736-.192-.576-1.056-.288-.96.288z" transform="translate(39 16)"/>
                    <g fill-rule="nonzero">
                        <path fill="#BCBEC0" d="M23.232 5.952c-2.016-.288-4.128-.48-6.144-.48-1.056 0-2.112 0-3.168-.192-.864-.096-1.632-.384-2.496-.48-1.056-.192-2.208-.192-3.264-.384-2.4-.384-4.704-1.248-7.008-2.208l2.112-.576c14.304.192 28.608-.864 42.816 0-6.912 2.976-14.688 3.072-22.272 3.552-.192 0-.48.096-.576.288-.096.096 0 .192 0 .288 0 2.016.096 4.128.096 6.144l-.672 39.264" transform="translate(39 16) translate(8.74)"/>
                        <path fill="#000" d="M23.232 5.472c-3.936-.48-7.776-.48-11.712-1.152-1.632-.288-3.264-.288-4.8-.672-1.824-.48-3.648-1.152-5.376-1.92v.96c2.784-.768 5.664-.48 8.64-.576 3.936 0 7.968-.096 11.904-.192 8.064-.192 16.224-.288 24.288.192 0-.288-.096-.672-.096-.96-4.416 1.824-9.024 2.592-13.728 2.976-2.208.192-4.512.288-6.72.48-.768 0-2.208-.192-2.688.576-.672.96-.096 3.744 0 4.896v2.016c0 1.056 0 2.112-.096 3.168-.192 9.12-.288 18.336-.48 27.456-.096 2.784-.096 5.568-.192 8.352 0 .576.96.576.96 0 .192-13.056.672-26.208.672-39.264 0-1.056 0-2.016-.096-3.072 0-1.824-.192-2.88 1.728-3.264 2.304-.48 4.8-.288 7.2-.48 4.608-.384 9.216-1.248 13.536-2.976.48-.192.48-.864-.096-.96-8.352-.48-16.8-.384-25.248-.192-4.128.096-8.256.192-12.384.192-2.592 0-4.896-.096-7.488.576-.48.096-.384.768 0 .96 1.728.768 3.552 1.44 5.376 1.92 1.824.48 3.744.48 5.664.864 3.648.672 7.392.48 11.136 1.056.672.096.672-.864.096-.96z" transform="translate(39 16) translate(8.74)"/>
                    </g>
                    <path stroke="#000" stroke-width=".96" d="M8.069 8.064s7.392 3.36 21.696 2.976c14.304-.384 21.696-1.44 26.88-3.648" transform="translate(39 16)"/>
                    <path fill="#FFF" fill-rule="nonzero" stroke="#000" stroke-width=".96" d="M27.077 5.184L26.405 13.824 24.965 13.824 25.733 5.184zM38.789 4.992L39.461 13.536 40.901 13.536 40.133 4.992z" transform="translate(39 16)"/>
                    <path stroke="#000" stroke-dasharray=".48" stroke-width=".5" d="M41.477 10.656s.384 8.448 6.24 10.08c3.744 1.056 6.144.96 12 .384M24.389 11.328s-.576 8.352-6.912 10.08c-4.032 1.056-6.624 1.344-12.864.768" transform="translate(39 16)"/>
                    <path stroke="#000" stroke-width=".96" d="M9.893 2.208S.773 33.12 2.02 48.864c1.248 15.744-.672 52.896-.672 52.896v37.152H.197v8.064s5.856 3.168 24.096 1.44l1.632-7.968-1.248-.384s1.248-3.168 1.248-5.184c-.096-2.112 0-10.848 0-10.848l1.632-24.288 2.4-32.928L31.3 50.4M54.82 1.632s9.025 31.776 7.68 47.424c-1.343 15.648.769 52.992.769 52.992V139.2h1.152v8.064s-6.24 3.168-25.632 1.44l-1.728-7.968 1.248-.384s-1.344-3.168-1.248-5.184c.096-2.112 0-10.848 0-10.848l-1.824-24.288L32.74 67.2 31.3 51.168v-.288" transform="translate(39 16)"/>
                    <path stroke="#000" stroke-width=".96" d="M7.685 21.12L9.509 13.536 19.205 14.592 18.437 19.2" transform="translate(39 16)"/>
                    <path stroke="#000" stroke-dasharray=".48" stroke-width=".5" d="M9.22 14.784c.48 0 3.649 1.344 9.793 1.344" transform="translate(39 16)"/>
                    <path stroke="#000" stroke-width=".72" d="M31.589 35.808s2.976.48 4.512-5.856V11.04" transform="translate(39 16)"/>
                    <path fill="#000" fill-rule="nonzero" d="M.389 139.584c7.968 1.92 16.224 3.456 24.192.96.576-.192.384-1.152-.288-.96-7.872 2.4-15.936.864-23.712-.96-.576-.192-.864.768-.192.96zM23.429 143.04c-.576.864-2.208 1.248-3.168 1.44-1.152.288-2.304.384-3.456.384-.288 0-.288.48 0 .48 1.44 0 2.88-.192 4.224-.576.96-.288 2.112-.576 2.784-1.44.192-.288-.192-.48-.384-.288zM1.157 140.352c2.016 1.92 4.896 2.592 7.488 2.976.288 0 .288-.48 0-.48-2.496-.288-5.28-1.056-7.2-2.784-.192-.192-.576.096-.288.288zM62.693 139.008c-7.776 1.824-15.84 3.456-23.712.96-.576-.192-.864.768-.288.96 7.968 2.496 16.224.864 24.192-.96.672-.192.384-1.152-.192-.96zM37.733 141.696c.576.864 1.824 1.152 2.784 1.44 1.344.384 2.784.576 4.224.576.288 0 .288-.48 0-.48-1.152 0-2.304-.096-3.456-.384-.96-.288-2.496-.576-3.168-1.44-.096-.192-.48 0-.384.288z" transform="translate(39 16)"/>
                    <path fill="#000" fill-rule="nonzero" d="M64.229 138.912c-2.688 2.976-6.72 4.32-10.56 4.896-.288 0-.192.48.096.48 3.936-.576 7.968-2.016 10.752-4.992.288-.288-.096-.576-.288-.384z" transform="translate(39 16)"/>
                </g>
            </g>
        </g>
    </g>
</svg>
