<svg xmlns="http://www.w3.org/2000/svg" width="144" height="210" viewBox="0 0 144 210">
    <g fill="none" fill-rule="evenodd">
        <g>
            <g transform="translate(-1503 -163) translate(1503 163)">
                <rect width="144" height="210" fill="#F4F4F4" rx="4"/>
                <path fill="#000" fill-rule="nonzero" d="M48.288 183.966c1.348 0 2.525.246 3.533.738l-.633 1.283c-.972-.457-1.945-.685-2.917-.685-1.413 0-2.527.47-3.345 1.41-.817.94-1.226 2.228-1.226 3.863 0 1.682.394 2.981 1.182 3.898.788.917 1.912 1.376 3.37 1.376.897 0 1.92-.161 3.068-.484v1.31c-.89.334-1.989.5-3.296.5-1.892 0-3.353-.573-4.38-1.722-1.03-1.148-1.543-2.78-1.543-4.895 0-1.325.247-2.485.742-3.48.495-.997 1.21-1.765 2.145-2.304.934-.539 2.034-.808 3.3-.808zm34.348 0c1.37 0 2.648.252 3.832.756l-.58 1.318c-1.16-.492-2.277-.738-3.349-.738-1.564 0-2.786.466-3.665 1.397-.879.932-1.318 2.224-1.318 3.876 0 1.735.423 3.05 1.27 3.946.846.897 2.09 1.345 3.73 1.345.891 0 1.761-.102 2.611-.307v-3.955h-2.874v-1.336h4.368v6.249c-.68.216-1.371.38-2.074.492-.703.111-1.518.167-2.443.167-1.946 0-3.46-.579-4.544-1.736-1.084-1.157-1.626-2.779-1.626-4.865 0-1.336.268-2.506.804-3.511.536-1.005 1.308-1.772 2.316-2.303 1.008-.53 2.188-.795 3.542-.795zm12.384-.018c1.845 0 3.287.586 4.324 1.758 1.037 1.172 1.555 2.79 1.555 4.852 0 2.056-.52 3.673-1.56 4.851s-2.485 1.767-4.337 1.767c-1.893 0-3.353-.579-4.381-1.736-1.029-1.157-1.543-2.79-1.543-4.9 0-2.092.516-3.713 1.547-4.865 1.031-1.151 2.496-1.727 4.395-1.727zm-36.326.15L63.748 197h-1.547l-1.6-4.087h-5.15L53.87 197h-1.512l5.08-12.902h1.257zm10.345.052c1.576 0 2.74.302 3.494.906.753.603 1.13 1.511 1.13 2.724 0 1.7-.862 2.848-2.585 3.446l3.49 5.774H72.8l-3.112-5.344h-2.68V197h-1.494v-12.85h3.524zm25.98 1.134c-1.423 0-2.506.45-3.247 1.35-.741.899-1.112 2.207-1.112 3.924 0 1.74.37 3.06 1.112 3.96.741.899 1.818 1.348 3.23 1.348 1.424 0 2.499-.448 3.226-1.345.726-.896 1.09-2.217 1.09-3.963 0-1.729-.362-3.04-1.086-3.933-.724-.894-1.794-1.34-3.212-1.34zm-36.975.448c-.129.563-.314 1.181-.554 1.855l-1.511 3.981h4.157l-1.494-3.981c-.194-.504-.393-1.122-.598-1.855zm10.907-.272H67.01v4.913h2.048c1.054 0 1.828-.21 2.32-.628.492-.42.738-1.048.738-1.886 0-.85-.25-1.462-.751-1.837s-1.305-.562-2.413-.562z"/>
                <g>
                    <path stroke="#231F20" stroke-width=".96" d="M9.792 17.568s3.456 2.016 7.68-.576 5.376-6.912 5.376-6.912M62.688 17.184s-4.032 2.016-8.928-.576c-4.896-2.592-6.24-6.912-6.24-6.912" transform="translate(34 16)"/>
                    <path stroke="#231F20" stroke-width=".96" d="M11.52 7.008s5.472 3.648 17.568 3.744c12.096.096 12.864 0 12.864 0S52.32 9.696 59.808 6.528" transform="translate(34 16)"/>
                    <path fill="#231F20" fill-rule="nonzero" d="M12.864 1.152C2.688 45.216 3.648 90.624 1.248 135.552c-.096 2.496-.768 5.376-.48 7.872.096.576 0 .48.192.96.384.672 1.536 1.152 2.304 1.344 2.304.96 4.896 1.248 7.392 1.536 4.704.48 9.408.48 14.112 0 2.688-.288 5.472-.576 7.968-1.536.768-.288 2.112-.672 2.496-1.344.192-.288.192-.384.288-.864.48-2.688.096-5.856.096-8.64 0-5.472-.096-10.848-.192-16.32-.48-25.152-1.536-50.4.672-75.552-.288 0-.672.096-.96.096.768 5.376.672 11.52.96 17.088.576 11.808.96 23.616 1.248 35.424.384 12.768.576 25.536.48 38.304 0 2.784-.096 5.472-.192 8.256 0 .672-.192 1.536.096 2.208.672 1.44 3.168 2.016 4.512 2.4 10.944 2.88 21.12 1.152 31.968-1.248.192 0 .384-.288.384-.48 0-3.936-.768-7.968-1.056-11.904-.48-4.8-.768-9.504-1.152-14.304-.672-9.6-1.152-19.2-1.728-28.896-1.152-19.392-2.4-38.688-5.088-57.888-1.536-10.56-3.264-21.024-6.432-31.2-.192-.576-1.152-.384-.96.288 4.128 13.344 6.048 27.456 7.68 41.28 1.632 13.728 2.592 27.456 3.456 41.184.768 13.536 1.44 27.072 2.496 40.608.288 3.264.48 6.528.864 9.888.192 1.824.384 3.552.48 5.376.192 1.44.672 3.264.48 4.608-.192.96.288.384-.576.768-.672.288-1.44.288-2.112.48-1.344.288-2.688.576-4.128.864-2.112.384-4.224.768-6.336 1.056-5.856.768-12.384.192-18.048-1.344-1.152-.288-3.168-.768-3.744-1.92v-1.056c.096-1.92.096-3.84.096-5.664.288-18.72-.192-37.536-.864-56.256-.288-8.832-.672-17.568-1.056-26.4-.192-3.84-.096-7.872-.672-11.712-.096-.576-.864-.384-.96.096-1.824 21.024-1.44 42.24-.96 63.36.288 10.272.48 20.544.384 30.816v3.648c0 .576.288 2.4.096 2.88-.096.192-.384.192-.48.384-.96.96-3.264 1.344-4.512 1.632-3.936.864-8.064 1.056-12.096 1.056-3.84 0-7.776-.096-11.616-.96-1.248-.288-3.264-.672-4.128-1.632l-.288-.288c-.288-.48.192-1.92.192-2.496l.288-4.608c1.152-21.024 1.44-42.048 2.592-62.976 1.248-24.192 3.648-48.384 9.12-72.096.096-.864-.864-1.152-.96-.576z" transform="translate(34 16)"/>
                    <path fill="#231F20" fill-rule="nonzero" d="M18.048 16.992c.48-1.056 1.728-3.84.576-4.704-1.056-.768-2.88-1.152-4.032-1.632-.672-.288-1.344-.384-2.112-.576-.192-.096-.576.096-.576.288-.384 2.496-1.152 4.896-1.824 7.296-.192.576.768.864.96.288.672-2.4 1.44-4.8 1.824-7.296l-.576.288c1.248.288 2.304.672 3.552 1.152l1.44.576c.672.384.864.288.864.96 0 .864-.48 2.016-.768 2.88-.48.576.384 1.056.672.48z" transform="translate(34 16)"/>
                    <path stroke="#231F20" stroke-dasharray=".48" stroke-width=".5" d="M12.288 11.712c.096 0 6.336 2.112 6.336 2.112" transform="translate(34 16)"/>
                    <path stroke="#231F20" stroke-width=".72" d="M35.616 44.736c-.192-.384-.576-38.784-.576-38.784" transform="translate(34 16)"/>
                    <path stroke="#231F20" stroke-width=".5" d="M35.328 32.352s1.344.288 3.168-1.728c1.44-1.632 1.44-3.456 1.44-3.456v-16.32" transform="translate(34 16)"/>
                    <path fill="#FFF" fill-rule="nonzero" stroke="#231F20" stroke-width=".72" d="M42.432 5.568L43.872 15.36 46.176 14.784 44.928 5.568M28.032 5.856L26.592 15.552 24.288 15.072 25.536 5.856" transform="translate(34 16)"/>
                    <g fill-rule="nonzero">
                        <path fill="#BCBEC0" d="M25.056 3.168C17.28 3.648.864 1.344.864 1.344 4.416 3.36 8.352 4.704 12.48 5.28c1.152.192 4.32.48 5.472.48 9.984.576 19.2-.384 28.224-4.704 0 0-14.304 1.728-21.12 2.112z" transform="translate(34 16) translate(12.48)"/>
                        <path fill="#231F20" d="M25.056 2.688C16.992 3.072 8.832 1.92.96.864.48.768.096 1.44.576 1.728c6.72 3.648 14.016 4.608 21.6 4.608 8.448.096 16.608-1.44 24.288-4.896.384-.192.192-.96-.288-.864-7.008.864-14.112 1.632-21.12 2.112-.576 0-.576.96 0 .96 7.104-.384 14.112-1.248 21.12-2.112l-.288-.864C38.4 4.128 30.336 5.568 22.08 5.472 14.688 5.376 7.584 4.512.96.96c-.096.288-.288.576-.384.864C8.544 2.88 16.8 4.032 24.96 3.648c.672-.096.672-1.056.096-.96z" transform="translate(34 16) translate(12.48)"/>
                    </g>
                    <g fill="#231F20" fill-rule="nonzero">
                        <path d="M.384.672L.768.864.768.864zM1.248 1.056L1.632 1.152 1.632 1.248zM2.112 1.344L2.592 1.44 2.592 1.536 2.112 1.44zM3.072 1.632L3.456 1.728 3.456 1.824 2.976 1.728zM3.936 1.824L4.416 2.016 4.416 2.112 3.936 1.92zM4.896 2.112L5.376 2.208 5.28 2.304 4.896 2.208zM5.856 2.304L6.24 2.4 6.24 2.496 5.76 2.4zM6.72 2.496L7.2 2.496 7.2 2.688 6.72 2.592z" transform="translate(34 16) translate(.96 138.24)"/>
                        <path d="M7.844 2.414H8.844000000000001V3.414H7.844z" transform="translate(34 16) translate(.96 138.24) rotate(-81.773 7.94 2.654)"/>
                        <path d="M8.75 2.634H9.75V3.634H8.75z" transform="translate(34 16) translate(.96 138.24) rotate(-83.021 8.846 2.874)"/>
                        <path d="M9.679 2.724H10.679V3.724H9.679z" transform="translate(34 16) translate(.96 138.24) rotate(-84.22 9.775 2.964)"/>
                        <path d="M10.629 2.806H11.629V3.806H10.629z" transform="translate(34 16) translate(.96 138.24) rotate(-85.378 10.725 3.046)"/>
                        <path d="M11.609 2.872H12.609V3.872H11.609z" transform="translate(34 16) translate(.96 138.24) rotate(-86.492 11.705 3.112)"/>
                        <path d="M12.609 2.921H13.609V3.921H12.609z" transform="translate(34 16) translate(.96 138.24) rotate(-87.573 12.705 3.16)"/>
                        <path d="M13.528 2.952H14.528V3.952H13.528z" transform="translate(34 16) translate(.96 138.24) rotate(-88.623 13.624 3.192)"/>
                        <path d="M14.47 2.965H15.47V3.965H14.47z" transform="translate(34 16) translate(.96 138.24) rotate(-89.646 14.566 3.205)"/>
                        <path d="M15.261 3.066H16.261V4.066H15.261z" transform="translate(34 16) translate(.96 138.24) rotate(-.636 15.501 3.162)"/>
                        <path d="M16.222 3.071H17.222V4.071H16.222z" transform="translate(34 16) translate(.96 138.24) rotate(-1.601 16.462 3.167)"/>
                        <path d="M17.184 3.074H18.184V4.074H17.184z" transform="translate(34 16) translate(.96 138.24) rotate(-2.001 17.424 3.17)"/>
                        <path d="M18.145 3.072H19.145V4.072H18.145z" transform="translate(34 16) translate(.96 138.24) rotate(-2.921 18.385 3.168)"/>
                        <path d="M19.105 2.979H20.105V3.979H19.105z" transform="translate(34 16) translate(.96 138.24) rotate(-3.819 19.345 3.075)"/>
                        <path d="M20.06 2.874H21.06V3.874H20.06z" transform="translate(34 16) translate(.96 138.24) rotate(-4.704 20.3 2.97)"/>
                        <path d="M21.021 2.783H22.021V3.783H21.021z" transform="translate(34 16) translate(.96 138.24) rotate(-5.56 21.261 2.88)"/>
                        <path d="M21.984 2.784L22.464 2.688 22.464 2.88 21.984 2.976zM22.944 2.592L23.424 2.592 23.424 2.784 22.944 2.784zM23.808 2.496L24.288 2.4 24.384 2.592 23.904 2.688zM24.768 2.4L25.248 2.304 25.248 2.496 24.864 2.496zM25.728 2.208L26.208 2.112 26.208 2.304 25.728 2.4zM26.688 2.016L27.168 2.016 27.168 2.112 26.688 2.208zM27.648 1.92L28.128 1.824 28.128 1.92 27.648 2.016zM28.512 1.728L28.992 1.632 29.088 1.728 28.608 1.824zM29.472 1.536L29.952 1.44 29.952 1.536 29.472 1.632zM30.432 1.248L30.912 1.152 30.912 1.248 30.432 1.44zM31.392 1.056L31.872.96 31.872 1.056 31.392 1.152zM32.256.864L32.736.768 32.736.768zM33.216.576L33.696.48 33.696.48 33.216.672z" transform="translate(34 16) translate(.96 138.24)"/>
                    </g>
                    <g fill="#231F20" fill-rule="nonzero">
                        <path d="M36 .864L35.616 1.056 35.616 1.056zM35.136 1.248L34.752 1.344 34.656 1.344 35.136 1.152zM34.272 1.536L33.792 1.728 33.792 1.632zM33.312 1.824L32.928 2.016 32.928 1.92zM32.448 2.112L31.968 2.304 31.968 2.208 32.448 2.016z" transform="translate(34 16) translate(37.44 138.24)"/>
                        <path d="M30.986 2.321H31.986V3.321H30.986z" transform="translate(34 16) translate(37.44 138.24) rotate(-15.332 31.226 2.37)"/>
                        <path d="M30.149 2.583H31.149V3.583H30.149z" transform="translate(34 16) translate(37.44 138.24) rotate(-14.377 30.389 2.633)"/>
                        <path d="M29.182 2.789H30.182V3.789H29.182z" transform="translate(34 16) translate(37.44 138.24) rotate(-13.426 29.422 2.839)"/>
                        <path d="M28.221 2.982H29.221V3.982H28.221z" transform="translate(34 16) translate(37.44 138.24) rotate(-12.469 28.46 3.078)"/>
                        <path d="M27.36 3.169H28.36V4.1690000000000005H27.36z" transform="translate(34 16) translate(37.44 138.24) rotate(-11.519 27.6 3.265)"/>
                        <path d="M26.394 3.364H27.394V4.364H26.394z" transform="translate(34 16) translate(37.44 138.24) rotate(-10.55 26.634 3.46)"/>
                        <path d="M25.438 3.548H26.438V4.548H25.438z" transform="translate(34 16) translate(37.44 138.24) rotate(-9.585 25.678 3.644)"/>
                        <path d="M24.476 3.658H25.476V4.6579999999999995H24.476z" transform="translate(34 16) translate(37.44 138.24) rotate(-8.592 24.716 3.754)"/>
                        <path d="M23.525 3.854H24.525V4.854H23.525z" transform="translate(34 16) translate(37.44 138.24) rotate(-7.579 23.765 3.95)"/>
                        <path d="M22.562 3.949H23.562V4.949H22.562z" transform="translate(34 16) translate(37.44 138.24) rotate(-6.552 22.802 4.045)"/>
                        <path d="M21.698 4.029H22.698V5.029H21.698z" transform="translate(34 16) translate(37.44 138.24) rotate(-5.502 21.938 4.125)"/>
                        <path d="M20.737 4.122H21.737V5.122H20.737z" transform="translate(34 16) translate(37.44 138.24) rotate(-4.424 20.977 4.218)"/>
                        <path d="M19.773 4.125H20.773V5.125H19.773z" transform="translate(34 16) translate(37.44 138.24) rotate(-3.33 20.013 4.22)"/>
                        <path d="M18.817 4.133H19.817V5.133H18.817z" transform="translate(34 16) translate(37.44 138.24) rotate(-2.199 19.057 4.23)"/>
                        <path d="M17.86 4.231H18.86V5.231H17.86z" transform="translate(34 16) translate(37.44 138.24) rotate(-.533 18.1 4.327)"/>
                        <path d="M16.982 4.121H17.982V5.121H16.982z" transform="translate(34 16) translate(37.44 138.24) rotate(-89.341 17.078 4.361)"/>
                        <path d="M16.054 4.101H17.054V5.101H16.054z" transform="translate(34 16) translate(37.44 138.24) rotate(-88.116 16.15 4.341)"/>
                        <path d="M15.456 4.416L14.976 4.32 14.976 4.128 15.456 4.128zM14.496 4.32L14.016 4.32 14.016 4.128 14.496 4.128zM13.536 4.224L13.056 4.224 13.056 4.032 13.536 4.032zM12.576 4.128L12.096 4.128 12.096 3.936 12.576 3.936zM11.616 4.032L11.136 3.936 11.136 3.744 11.616 3.84zM10.656 3.84L10.176 3.744 10.272 3.648 10.752 3.744zM9.696 3.648L9.312 3.552 9.312 3.456 9.792 3.552zM8.832 3.456L8.352 3.36 8.352 3.264 8.832 3.36zM7.872 3.264L7.392 3.168 7.392 2.976 7.872 3.168zM6.912 2.976L6.432 2.88 6.528 2.784 7.008 2.88zM6.048 2.784L5.568 2.592 5.568 2.496 6.048 2.592zM5.088 2.4L4.608 2.304 4.704 2.208 5.088 2.304zM4.224 2.112L3.744 1.92 3.744 1.824 4.224 2.016zM3.264 1.728L2.88 1.536 2.88 1.536 3.36 1.728zM2.4 1.344L2.016 1.152 2.016 1.152 2.496 1.344zM1.536.96L1.152.768 1.152.672z" transform="translate(34 16) translate(37.44 138.24)"/>
                    </g>
                    <g fill="#231F20" fill-rule="nonzero">
                        <path d="M.576 32.736L.96 32.928.96 32.928zM1.44 33.12L1.824 33.408 1.824 33.408 1.44 33.216zM2.304 33.504L2.784 33.696 2.688 33.792 2.304 33.6zM3.168 33.888L3.648 34.08 3.648 34.08zM4.128 34.176L4.512 34.368 4.512 34.368 4.032 34.272zM4.992 34.464L5.472 34.56 5.472 34.656 4.992 34.56zM5.952 34.752L6.432 34.848 6.336 34.944 5.856 34.848zM6.816 34.944L7.296 35.04 7.296 35.136 6.816 35.04zM7.776 35.136L8.256 35.136 8.256 35.328 7.776 35.232zM8.736 35.232L9.216 35.328 9.216 35.424 8.736 35.328zM9.696 35.328L10.176 35.424 10.176 35.52 9.696 35.52zM10.656 35.424L11.136 35.424 11.136 35.616 10.656 35.52zM11.616 35.424L12.096 35.424 12.096 35.616 11.616 35.616zM12.576 35.424L13.056 35.424 13.056 35.52 12.576 35.616zM13.536 35.328L14.016 35.328 14.016 35.52 13.536 35.52zM14.4 35.232L14.88 35.232 14.976 35.328 14.496 35.424zM15.36 35.136L15.84 35.04 15.936 35.232 15.456 35.328zM16.32 34.944L16.8 34.848 16.8 35.04 16.32 35.136zM17.088 34.656L17.088 34.176 17.28 34.176 17.184 34.656zM17.184 33.696L17.28 33.216 17.472 33.216 17.376 33.696zM17.376 32.736L17.472 32.256 17.664 32.352 17.568 32.832zM17.568 31.776L17.664 31.296 17.856 31.392 17.76 31.872zM17.76 30.816L17.76 30.432 18.048 30.432 17.952 30.912zM17.856 29.952L17.952 29.472 18.144 29.472 18.144 29.952zM18.048 28.992L18.144 28.512 18.336 28.512 18.24 28.992zM18.24 28.032L18.336 27.552 18.528 27.552 18.432 28.032zM18.432 27.072L18.432 26.592 18.72 26.688 18.624 27.168zM18.528 26.112L18.624 25.632 18.912 25.728 18.816 26.208zM18.72 25.152L18.816 24.672 19.008 24.768 19.008 25.248zM18.912 24.288L19.008 23.808 19.2 23.808 19.104 24.288zM19.104 23.328L19.2 22.848 19.392 22.848 19.296 23.328zM19.296 22.368L19.296 21.888 19.584 21.888 19.488 22.368zM19.392 21.408L19.488 20.928 19.68 21.024 19.68 21.408zM19.584 20.448L19.68 19.968 19.872 20.064 19.776 20.544zM19.776 19.488L19.872 19.008 20.064 19.104 19.968 19.584zM19.968 18.624L20.064 18.144 20.256 18.144 20.16 18.624zM20.16 17.664L20.256 17.184 20.352 17.184 20.352 17.664zM20.256 16.704L20.352 16.224 20.544 16.224 20.448 16.704zM20.448 15.744L20.544 15.264 20.736 15.264 20.64 15.744zM20.64 14.784L20.736 14.304 20.928 14.4 20.832 14.88zM20.832 13.824L20.928 13.344 21.024 13.44 21.024 13.92zM21.024 12.96L21.12 12.48 21.216 12.48 21.12 12.96zM21.216 12L21.216 11.52 21.408 11.52 21.312 12zM21.312 11.04L21.408 10.56 21.6 10.56 21.504 11.04zM21.504 10.08L21.6 9.6 21.696 9.6 21.696 10.08zM21.696 9.12L21.792 8.64 21.888 8.736 21.792 9.12zM21.888 8.16L21.984 7.68 22.08 7.776 21.984 8.256zM22.08 7.296L22.176 6.816 22.272 6.816 22.176 7.296zM22.272 6.336L22.272 5.856 22.368 5.856zM22.368 5.376L22.464 4.896 22.56 4.896 22.464 5.376zM22.56 4.416L22.656 3.936 22.752 3.936 22.656 4.416zM22.752 3.456L22.848 2.976 22.848 2.976 22.848 3.456zM22.944 2.496L23.04 2.112 23.04 2.112 22.944 2.592zM23.136 1.632L23.232 1.152z" transform="translate(34 16) translate(5.76 10.56)"/>
                    </g>
                    <g fill="#231F20" fill-rule="nonzero">
                        <path d="M26.016 32.736L25.536 32.928 25.536 32.928zM25.152 33.12L24.672 33.312 24.672 33.312zM24.288 33.504L23.808 33.6 23.808 33.6 24.192 33.408zM23.328 33.792L22.944 33.984 22.848 33.888zM22.464 34.08L21.984 34.272 21.984 34.176zM21.504 34.368L21.12 34.56 21.024 34.464 21.504 34.272zM20.64 34.656L20.16 34.752 20.16 34.656 20.544 34.56zM19.68 34.848L19.2 34.944 19.2 34.848 19.68 34.752zM18.72 35.04L18.24 35.136 18.24 35.04 18.72 34.944zM17.76 35.232L17.28 35.328 17.28 35.136 17.76 35.136zM16.896 35.328L16.416 35.424 16.32 35.232 16.8 35.232zM15.936 35.424L15.456 35.52 15.456 35.328 15.84 35.328zM14.976 35.52L14.496 35.52 14.496 35.424 14.976 35.328zM14.016 35.52L13.536 35.52 13.536 35.424 14.016 35.424zM13.056 35.52L12.576 35.52 12.576 35.328 13.056 35.424zM12.096 35.52L11.616 35.52 11.616 35.328 12.096 35.328zM11.136 35.424L10.656 35.424 10.656 35.232 11.136 35.232zM10.176 35.328L9.696 35.232 9.696 35.04 10.176 35.136zM9.216 35.136L8.736 35.04 8.736 34.848 9.216 34.944zM8.256 34.944L7.776 34.848 7.776 34.848 7.68 34.752 7.68 34.752 7.872 34.752 7.872 34.752 7.872 34.656 8.256 34.752zM7.584 34.272L7.488 33.888 7.68 33.792 7.776 34.272zM7.392 33.408L7.296 32.928 7.584 32.832 7.68 33.312zM7.2 32.448L7.2 31.968 7.392 31.968 7.488 32.352zM7.104 31.488L7.008 31.008 7.2 31.008 7.296 31.488zM6.912 30.528L6.816 30.048 7.008 30.048 7.104 30.528zM6.72 29.568L6.624 29.184 6.816 29.088 6.912 29.568zM6.528 28.704L6.432 28.224 6.624 28.128 6.72 28.608zM6.336 27.744L6.24 27.264 6.432 27.168 6.528 27.648zM6.144 26.784L6.048 26.304 6.24 26.304 6.336 26.784zM5.952 25.824L5.856 25.344 6.048 25.344 6.144 25.824zM5.76 24.864L5.664 24.48 5.856 24.384 5.952 24.864zM5.568 24L5.472 23.52 5.664 23.424 5.76 23.904zM5.376 23.04L5.28 22.56 5.472 22.464 5.568 22.944zM5.184 22.08L5.088 21.6 5.28 21.6 5.376 22.08zM4.992 21.12L4.896 20.64 5.088 20.64 5.184 21.12zM4.8 20.16L4.704 19.68 4.896 19.68 4.992 20.16zM4.608 19.296L4.512 18.816 4.704 18.72 4.8 19.2zM4.416 18.336L4.32 17.856 4.512 17.76 4.608 18.24zM4.224 17.376L4.128 16.896 4.32 16.896 4.416 17.376zM4.032 16.416L3.936 15.936 4.128 15.936 4.224 16.416zM3.936 15.456L3.84 14.976 3.936 14.976 4.032 15.456zM3.744 14.496L3.648 14.112 3.744 14.016 3.84 14.496zM3.552 13.632L3.456 13.152 3.552 13.056 3.648 13.536zM3.36 12.672L3.264 12.192 3.36 12.192 3.456 12.672zM3.168 11.712L3.072 11.232 3.168 11.232 3.264 11.712zM2.976 10.752L2.88 10.272 2.976 10.272 3.072 10.752zM2.784 9.792L2.688 9.408 2.784 9.312 2.88 9.792zM2.592 8.928L2.496 8.448 2.592 8.352 2.688 8.832zM2.4 7.968L2.304 7.488 2.4 7.488 2.496 7.968zM2.208 7.008L2.112 6.528 2.208 6.528 2.304 7.008zM2.016 6.048L1.92 5.568 2.016 5.568 2.112 6.048zM1.92 5.088L1.824 4.608 1.824 4.608zM1.728 4.224L1.632 3.744 1.632 3.648 1.728 4.128zM1.536 3.264L1.44 2.784 1.44 2.784zM1.344 2.304L1.248 1.824 1.248 1.824zM1.152 1.344L1.152 1.152z" transform="translate(34 16) translate(40.32 9.6)"/>
                    </g>
                    <g fill="#FFF" fill-rule="nonzero" stroke="#231F20" stroke-linejoin="round" stroke-width=".72">
                        <path d="M7.296 1.632L7.2 5.568l-.384 24.384S2.304 33.12.576 31.68C-1.248 30.144 2.304 5.184 2.304 5.184" transform="translate(34 16) translate(.96 67.2)"/>
                        <path d="M1.728.48h5.568L7.2 8.448S3.84 10.656.096 10.656L1.728.48z" transform="translate(34 16) translate(.96 67.2)"/>
                    </g>
                    <g fill="#FFF" fill-rule="nonzero" stroke="#231F20" stroke-linejoin="round" stroke-width=".72">
                        <path d="M.096 1.152l.096 3.936.384 24.384s4.512 3.168 6.24 1.728C8.544 29.76 5.088 4.8 5.088 4.8" transform="translate(34 16) translate(66.24 68.16)"/>
                        <path d="M5.664.096H.096l.096 7.968s3.36.96 7.104.96L5.664.096z" transform="translate(34 16) translate(66.24 68.16)"/>
                    </g>
                </g>
            </g>
        </g>
    </g>
</svg>
