<svg xmlns="http://www.w3.org/2000/svg" width="146" height="212" viewBox="0 0 146 212">
    <g fill="none" fill-rule="evenodd">
        <g>
            <g transform="translate(-1677 -162) translate(1678 163)">
                <rect width="145" height="211" x="-.5" y="-.5" fill="#F4F4F4" stroke="#000" rx="4"/>
                <path fill="#000" fill-rule="nonzero" d="M33.869 186.233c-1.026 0-1.82.386-2.382 1.156-.563.77-.844 1.844-.844 3.221 0 2.866 1.075 4.298 3.226 4.298.902 0 1.995-.225 3.278-.677v2.286c-1.055.44-2.232.659-3.533.659-1.87 0-3.3-.567-4.29-1.7-.99-1.135-1.485-2.762-1.485-4.883 0-1.336.244-2.507.73-3.511.486-1.005 1.185-1.776 2.096-2.312.911-.536 1.979-.804 3.204-.804 1.248 0 2.502.302 3.761.905l-.879 2.215c-.48-.229-.963-.428-1.45-.598-.486-.17-.964-.255-1.432-.255zm16.47-2.083v8.315c0 .95-.212 1.781-.637 2.496-.425.715-1.038 1.263-1.841 1.643-.803.381-1.752.572-2.848.572-1.652 0-2.935-.424-3.85-1.27-.913-.847-1.37-2.006-1.37-3.476v-8.28h2.715v7.867c0 .99.2 1.716.598 2.18.398.462 1.058.694 1.977.694.891 0 1.537-.233 1.938-.7.402-.465.603-1.196.603-2.192v-7.849h2.715zM53.486 197v-12.85h2.724v10.6h5.212V197h-7.936zm21.832-6.442c0 2.127-.527 3.761-1.582 4.904-1.055 1.142-2.567 1.714-4.535 1.714-1.97 0-3.48-.572-4.535-1.714-1.055-1.143-1.583-2.783-1.583-4.922s.53-3.772 1.587-4.9c1.058-1.128 2.574-1.692 4.548-1.692 1.975 0 3.485.569 4.531 1.705 1.046 1.137 1.569 2.772 1.569 4.905zm-9.378 0c0 1.435.272 2.516.817 3.243.545.726 1.36 1.09 2.444 1.09 2.174 0 3.26-1.445 3.26-4.333 0-2.895-1.08-4.342-3.243-4.342-1.084 0-1.901.365-2.452 1.094-.55.73-.826 1.812-.826 3.248zM82.938 197h-2.725v-10.582h-3.489v-2.268h9.703v2.268h-3.489V197zm10.424 0h-2.725v-10.582h-3.49v-2.268h9.704v2.268h-3.49V197zm12.867 0h-7.4v-12.85h7.4v2.233h-4.676v2.821h4.35v2.233h-4.35v3.313h4.676V197zm10.266-3.568c0 1.16-.418 2.074-1.253 2.742-.835.668-1.996 1.002-3.485 1.002-1.37 0-2.584-.258-3.638-.774v-2.53c.867.386 1.6.658 2.201.816.6.159 1.15.238 1.648.238.598 0 1.056-.114 1.376-.343.32-.229.479-.568.479-1.02 0-.251-.07-.476-.211-.672-.14-.196-.347-.385-.62-.567-.223-.148-.635-.37-1.236-.663l-.43-.207c-.784-.369-1.373-.724-1.766-1.063-.393-.34-.706-.736-.94-1.187-.235-.451-.352-.978-.352-1.582 0-1.137.385-2.03 1.156-2.68.77-.651 1.835-.976 3.195-.976.668 0 1.305.079 1.911.237.607.158 1.241.381 1.903.668l-.879 2.118c-.685-.281-1.252-.477-1.7-.589-.449-.11-.89-.167-1.323-.167-.516 0-.911.12-1.187.36-.275.241-.413.554-.413.941 0 .24.056.45.167.629.111.178.289.351.532.518l.15.095c.235.14.619.34 1.15.6l.427.206c1.201.574 2.024 1.15 2.47 1.727.445.577.668 1.285.668 2.123z"/>
                <g>
                    <g transform="translate(27 16)">
                        <path stroke="#231F20" stroke-linejoin="round" stroke-width=".5" d="M24.064 7.802c-.094.282.564.47.658.188.094.188.094.376.188.658.188-.188.282-.47.47-.658 0 .282.094.564.282.752l.846-.846c.094.376.282.658.376 1.034l.564-.564c.094.282.188.564.282.752.282-.094.564-.282.752-.47.094.282.188.47.282.752.188-.188.282-.376.47-.47-.094.376.094.658.282.94.094-.282.282-.47.564-.658 0 .376.094.658.376.94.188-.282.282-.47.47-.752-.094.376.282.846.752.846l.282.564c.188-.188.376-.376.47-.658-.188.282 0 .752.376.752s.658-.376.564-.658c.188.376.47.564.846.752.094-.282.282-.564.376-.846.094.282.188.658.376.94.094.188.188.47.376.376.376 0 .188-.752.47-.94.188.564.47 1.034.94 1.316.188-.376.376-.752.47-1.128.188.47.564.846.94 1.128.094-.282.376-.658.658-.752.282-.094.752.188.658.47.188-.188.282-.376.47-.564 0 .47.846.564.94.094.094.47.752.564.94.188.188.188.282.47.47.658.282-.188.47-.376.658-.658l.282.564c.282-.094.47-.282.47-.47.188.47 1.034.282 1.034-.188.188.188.376.47.564.658.094.094.188.188.282.188.376 0 .094-.752.47-.94.188.188.376.376.376.564.282-.282.564-.47.846-.752.094.282.376.564.658.564.282 0 .564-.282.658-.564 0 .188.282.188.47.094s.282-.282.47-.282c.282-.094.564.282.658.564.282-.282.47-.564.752-.846.094.188.282.376.376.658.094-.188.282-.47.376-.658.188.188.47.376.752.376.282 0 .564-.282.47-.564.188.188.376.282.564.47.188-.282.282-.564.47-.752.094.282.282.47.47.47.094-.282.188-.658.282-.94.188.188.282.376.47.47.094-.282.188-.47.282-.752 0 .376.376.658.752.658.376-.094.564-.564.376-.846.282.282.564.47.846.658 0-.188.094-.376.094-.564.376.188.752.47 1.128.658-.094-.376-.282-.658-.376-1.034.282.376.658.752 1.128.94V8.648c.188.376.47.658.658 1.034.094-.282.094-.564.188-.846l.658.658c.094-.282.094-.658.188-.94.282.376.564.752.94 1.034.094-.282.188-.564.188-.94.282.094.564.188.846.47.188-.094.282-.282.376-.564l.282.282c.094-.188.188-.47.282-.658.188.188.376.282.564.47l.282-.846c.282.282.846.188.94-.188"/>
                        <g fill="#231F20" fill-rule="nonzero">
                            <path d="M23.594 2.82c.188 1.598.188 3.29.094 4.888-.094 1.598-.282 3.29-.658 4.888 0-1.598.094-3.29.188-4.888.094-1.692.188-3.29.376-4.888zM19.74 3.572c.376 1.316.658 2.632.846 3.948l.564 3.948.282 1.974.188.94c0 .188.094.282.094.47v.094h-.188c-.094.094 0 0 0 0v-.094c.188-1.316.188-2.632.282-3.948.094 1.316.188 2.632.094 4.042v.094c0 .094 0 .094-.094.188s-.188.094-.188 0l-.094-.094c0-.094 0-.094-.094-.094 0-.094 0-.094-.094-.094-.094-.188-.094-.376-.094-.47l-.188-1.034-.376-1.974-.47-3.948c-.188-1.316-.282-2.632-.47-3.948zM15.322 3.76c0 .94 0 1.88.094 2.726l.094 2.726c0 .94.094 1.88 0 2.726 0 .94 0 1.88-.188 2.726-.094-1.88-.282-3.666-.282-5.546V6.392c0-.752 0-1.692.282-2.632zM11.092 3.76c.094 1.786.094 3.478 0 5.17-.094 1.692-.188 3.478-.47 5.17-.094-1.692-.094-3.478 0-5.17.188-1.692.282-3.478.47-5.17zM8.554 3.666c-.188 1.692-.47 3.384-.752 4.982-.376 1.692-.752 3.29-1.222 4.888.188-1.692.47-3.384.752-4.982.282-1.598.658-3.29 1.222-4.888zM13.348 4.136c.094 2.256.094 4.512 0 6.768-.094 2.256-.188 4.512-.47 6.768-.094-2.256-.094-4.512 0-6.768.094-2.256.188-4.512.47-6.768zM4.982 2.162c.282 1.692.47 3.29.564 4.982.094 1.692.188 3.29.094 4.982-.282-1.692-.47-3.29-.564-4.982-.094-1.598-.094-3.29-.094-4.982zM3.196.94c.094 1.692.094 3.384 0 4.982-.094 1.692-.188 3.29-.47 4.982-.094-1.692-.094-3.384 0-4.982.094-1.692.188-3.384.47-4.982z" transform="translate(27.26 7.52)"/>
                            <g>
                                <path d="M1.034 48.88L1.034 48.41 1.034 48.41zM1.034 47.94L1.034 47.47 1.034 47.47zM1.034 47L1.034 46.53 1.034 46.53zM1.034 46.06L1.034 45.59 1.034 45.59zM1.034 45.12L1.034 44.65 1.034 44.65zM1.034 44.18L1.034 43.71 1.128 43.71 1.128 44.18zM1.034 43.24L1.034 42.77 1.128 42.77 1.128 43.24zM1.034 42.3L1.034 41.83 1.128 41.83 1.128 42.3zM.94 41.36L.94 40.89 1.128 40.89 1.128 41.36zM.94 40.42L.94 39.95 1.128 39.95 1.128 40.42zM.94 39.48L.94 39.01 1.128 39.01 1.128 39.48zM.94 38.54L.94 38.07 1.128 38.07 1.128 38.54zM.94 37.6L.94 37.13 1.128 37.13 1.128 37.6zM.94 36.66L.94 36.19 1.128 36.19 1.128 36.66zM.94 35.72L.94 35.25 1.128 35.25 1.128 35.72zM.94 34.78L.94 34.31 1.128 34.31 1.128 34.78zM.94 33.84L.94 33.37 1.128 33.37 1.128 33.84zM.94 32.9L.94 32.43 1.128 32.43 1.128 32.9zM.94 31.96L.94 31.49 1.128 31.49 1.128 31.96zM.94 31.02L.94 30.55 1.128 30.55 1.128 31.02zM.94 30.08L.94 29.61 1.128 29.61 1.128 30.08zM.94 29.14L.94 28.67 1.128 28.67 1.128 29.14zM.94 28.2L.94 27.73 1.128 27.73 1.128 28.2zM.94 27.26L.94 26.79 1.222 26.79 1.128 27.26zM.94 26.32L.94 25.85 1.222 25.85 1.222 26.32zM.94 25.38L.94 24.91 1.222 24.91 1.222 25.38zM.94 24.44L.94 23.97 1.222 23.97 1.222 24.44zM.94 23.5L.94 23.03 1.222 23.03 1.222 23.5z" transform="translate(27.26 7.52) translate(15.98 3.76)"/>
                                <path d="M0.799 22.23H1.799V23.23H0.799z" transform="translate(27.26 7.52) translate(15.98 3.76) rotate(-89.922 1.034 22.324)"/>
                                <path d="M.94 21.62L.94 21.15 1.222 21.15 1.222 21.62zM.94 20.68L.94 20.21 1.222 20.21 1.222 20.68zM.94 19.74L.94 19.27 1.222 19.27 1.222 19.74zM.94 18.8L.94 18.33 1.222 18.33 1.222 18.8zM.94 17.86L.94 17.39 1.222 17.39 1.222 17.86zM1.034 16.92L1.034 16.45 1.222 16.45 1.222 16.92zM1.034 15.98L1.034 15.51 1.222 15.51 1.222 15.98zM1.034 15.04L1.034 14.57 1.222 14.57 1.222 15.04zM1.034 14.1L1.034 13.63 1.222 13.63 1.222 14.1zM1.034 13.16L1.034 12.69 1.222 12.69 1.222 13.16zM1.034 12.22L1.034 11.75 1.222 11.75 1.222 12.22zM1.034 11.28L1.034 10.81 1.222 10.81 1.222 11.28zM1.034 10.34L1.034 9.87 1.222 9.87 1.222 10.34zM1.034 9.4L1.034 8.93 1.222 8.93 1.222 9.4zM1.034 8.46L1.034 7.99 1.222 7.99 1.222 8.46zM1.034 7.52L1.034 7.05 1.222 7.05 1.222 7.52zM1.034 6.58L1.034 6.11 1.222 6.11 1.222 6.58zM1.034 5.64L1.034 5.17 1.222 5.17 1.222 5.64zM1.034 4.7L1.034 4.23 1.222 4.23 1.222 4.7zM1.034 3.76L1.034 3.29 1.128 3.29 1.128 3.76zM1.034 2.82L1.034 2.35 1.128 2.35 1.128 2.82zM1.034 1.88L1.034 1.41 1.128 1.41 1.128 1.88zM1.034.94L1.034.564 1.128.564 1.128.94z" transform="translate(27.26 7.52) translate(15.98 3.76)"/>
                            </g>
                            <path d="M25.944 2.538c.376.752.564 1.598.658 2.444.188.846.282 1.692.188 2.538-.376-.752-.564-1.598-.658-2.444-.094-.846-.188-1.692-.188-2.538zM28.764 1.598c.188 1.598.188 3.29.094 4.888-.094 1.598-.282 3.29-.658 4.888 0-1.598.094-3.29.188-4.888.094-1.692.188-3.29.376-4.888zM31.302.94c.188 1.598.188 3.29.094 4.888-.094 1.598-.282 3.29-.658 4.888 0-1.598.094-3.29.188-4.888.094-1.598.188-3.196.376-4.888zM34.122.658c.188 1.034.564 1.88.846 2.82.376.94.752 1.88.94 2.82-.47-.658-.94-1.598-1.316-2.538-.188-.47-.282-.94-.376-1.504-.094-.564-.188-1.034-.094-1.598zM1.974 1.128c-.094 1.598-.376 3.29-.658 4.888C1.034 7.614.658 9.212.188 10.81c.094-1.598.376-3.29.658-4.888.376-1.692.658-3.29 1.128-4.794zM32.524 1.034c.564 1.504.94 3.102 1.222 4.794.282 1.598.47 3.29.47 4.888-.376-1.598-.658-3.196-.94-4.794-.282-1.692-.564-3.29-.752-4.888z" transform="translate(27.26 7.52)"/>
                        </g>
                        <path stroke="#231F20" stroke-linejoin="round" stroke-width=".705" d="M19.27 24.44s5.922-4.512 7.614-15.604M70.688 24.44s-5.828-4.512-7.426-15.604"/>
                        <path stroke="#231F20" stroke-linejoin="round" stroke-width=".5" d="M24.064 8.178c.376-1.41.658-2.82 1.034-4.23.094-.282.188-.658.47-.846.282-.188.752.094.658.376.188-.282.47-.47.846-.564-.282.282.188.846.564.752.376-.094.658-.564.846-.94.094.282.282.564.47.846.094-.094.282-.188.376-.376.188.188.376.376.564.658.376-.282.658-.564.846-.94.47 0 .282.94.752.94.376 0 .376-.752.752-.846.47-.094.564 1.034 1.034.94.188-.094.282-.376.47-.47.188-.094.376 0 .564.188 2.35 1.41 1.598.658 1.974.376 0 .282.282.658.564.658s.658-.188.658-.564c.188.47.752.658 1.128.47.376-.188.658-.564 1.034-.564.47.094.564.658.94.94.564.282.47-.282.752-.846.282.376 1.504.188 1.598.94.094.47.94.188 1.222-.094.188-.094.282-.282.47-.376.376-.094.658.376.752.752.564.094.658-1.222 1.222-1.034.188.094.282.188.376.282.282.094.564-.376.752-.564.47-.376 1.222 0 1.598.47.282-.376.564-.658.846-1.034.282.282.47.47.846.658.282.094.752.094.94-.188.188-.282.376-.752.752-.658.094 0 .282.188.282.282 0 .658-.658 1.316 1.786.564.094-.188.094-.376.188-.564.094.47.564.752 1.034.658.47-.094.846-.564.752-1.034.188.376.564.752 1.034.752.47 0 .94-.376.752-.752.282.188.564.376.846.658.094-.282.282-.658.47-.94l.846.846c.094-.376.47-.47.846-.282.282.188.47.47.658.752.188-.282.282-.658.282-1.034.188.094.282.188.47.282.282.094.282-.564.564-.658.282-.094.47.188.564.47.564 1.504 1.222 3.008 1.786 4.606"/>
                        <g fill="#231F20" fill-rule="nonzero">
                            <path d="M2.068.846c0 .376-.094.846-.094 1.222L1.786 3.29l-.188 1.128c-.094.376-.094.752-.188 1.222 0-1.692.188-3.29.658-4.794zM1.41.564c0 .376-.094.846-.094 1.222l-.188 1.222L.94 4.136c-.094.376-.094.752-.188 1.222 0-1.598.188-3.196.658-4.794zM3.666.94c0 .282.094.658.094.94v.94c0 .282-.094.658-.094.94-.094.282-.094.564-.282.94 0-1.316.094-2.538.282-3.76zM5.264.47c.094.282.094.658.094.94v.94c0 .282 0 .658-.094.94 0 .282-.094.658-.188.94.094-1.316.094-2.538.188-3.76zM4.606 1.598c.094.282.094.658.094.94v.94c0 .282 0 .658-.094.94 0 .282-.094.658-.188.94.094-1.222.094-2.444.188-3.76zM6.392 1.034c.094.376.188.658.188 1.034.094.376.094.752.094 1.034v1.034c0 .376-.094.752-.094 1.034-.094-1.222-.188-2.726-.188-4.136zM5.922 1.692c.094.376.188.658.188 1.034.094.376.094.752.094 1.034v1.034c0 .376-.094.752-.094 1.034-.094-1.316-.188-2.726-.188-4.136zM7.896.564c.094.564.094 1.034.188 1.598v3.196c0 .564-.094 1.034-.188 1.598V.564zM8.554.752c.094.564.094 1.034.188 1.598v3.196c0 .564-.094 1.034-.188 1.598V.752zM9.306 1.316c.094.47.188.94.282 1.504.094.47.094 1.034.094 1.504s0 1.034-.094 1.504c0 .47-.094 1.034-.188 1.504 0-2.068 0-4.042-.094-6.016zM10.34 1.316c.094.47.188.94.282 1.504.094.47.094 1.034.094 1.504s0 1.034-.094 1.504c0 .47-.094 1.034-.188 1.504 0-2.068 0-4.042-.094-6.016zM11.186 1.692c.094.47.188.94.188 1.41v1.41c0 .47-.094.94-.094 1.41l-.282 1.41c.282-1.88.282-3.76.188-5.64zM14.946 2.726c.094.47.094.94.094 1.41v1.41c0 .47 0 .94-.094 1.41 0 .47-.094.94-.188 1.41.094-1.88.094-3.76.188-5.64zM12.972 1.88c.094.47.094.94.188 1.41 0 .47 0 .94.094 1.41v1.41c0 .47-.094.94-.094 1.41-.188-1.88-.188-3.76-.188-5.64zM12.126 1.88c.094.47.094.94.188 1.41 0 .47 0 .94.094 1.41v1.41c0 .47-.094.94-.094 1.41-.188-1.88-.188-3.76-.188-5.64zM17.108 2.726c0 .47.094 1.034.094 1.504v1.504c0 .47-.094 1.034-.094 1.504-.094.47-.094 1.034-.188 1.504l.188-6.016zM18.612 2.256c.094.564.094 1.128.094 1.692V5.64c0 .564-.094 1.128-.094 1.692 0 .564-.094 1.128-.188 1.692l.188-6.768zM19.834 2.162c.094.564.282 1.034.376 1.598.094.564.188 1.034.282 1.598.094 1.128.282 2.256 0 3.29.094-1.128 0-2.162-.188-3.29-.188-1.034-.376-2.068-.47-3.196zM23.5 1.88c.094.47.094 1.034.094 1.504S23.5 4.418 23.5 4.888c-.094.47-.188 1.034-.282 1.504-.094.47-.188.94-.282 1.504.094-1.034.282-1.974.376-3.008.094-.94.282-1.974.188-3.008zM24.534 1.692c.094.47.282.94.376 1.504.094.47.188 1.034.282 1.504.094 1.034.188 2.068 0 3.008 0-1.034-.094-1.974-.282-3.008l-.376-3.008zM27.354 1.692c.094.376.188.846.282 1.222.094.376.094.846.094 1.222v1.222c0 .376-.094.846-.188 1.222 0-1.598 0-3.29-.188-4.888zM28.388 1.128c.094.47.188 1.034.188 1.504v1.504c0 .47 0 1.034-.094 1.504s-.094 1.034-.188 1.504c.094-1.034.094-1.974.094-3.008s.094-1.974 0-3.008zM26.414 1.316l.282 1.41c.094.47.094.94.094 1.504v1.504c0 .47-.094.94-.188 1.504 0-2.068 0-3.948-.188-5.922zM28.952.376c.094.376.282.846.376 1.222.094.47.188.846.188 1.316 0 .47.094.846.094 1.316v1.316c-.188-1.692-.47-3.478-.658-5.17zM31.772 1.128c.282.376.47.752.658 1.128.188.376.376.752.47 1.128.094.376.282.846.376 1.222.094.376.188.846.188 1.222-.376-1.598-1.034-3.196-1.692-4.7zM31.02 1.504c.282.376.47.752.658 1.128.188.376.376.752.47 1.128.094.376.282.846.376 1.222.094.376.188.846.188 1.222-.376-1.598-.94-3.196-1.692-4.7zM34.31.47c.376.846.564 1.786.658 2.726.094.47.094.94.094 1.41.094.47.094.94.282 1.316h-.094c.188-.094.282-.282.376-.564 0 .282-.094.47-.282.658-.282-.376-.282-.846-.376-1.316l-.188-1.504c-.094-.94-.282-1.786-.47-2.726zM33.464 1.128c.376.846.564 1.786.658 2.726.094.47.094.94.094 1.41.094.47.094.94.282 1.316h-.094c.188-.094.282-.282.376-.564 0 .282-.094.47-.282.658-.282-.376-.282-.846-.376-1.316l-.094-1.41c-.188-1.034-.376-1.974-.564-2.82zM37.882 1.316c.094.282.094.564.188.846.094.282.094.564.188.846 0 .282.094.564.094.846.094.282.094.564.094.846-.376-1.128-.564-2.256-.564-3.384zM36.472 1.316c.094.376.094.846.188 1.222l.188 1.222c0 .376.094.846.094 1.222.094.376.094.846.094 1.222-.47-1.504-.658-3.196-.564-4.888zM37.036.94c.094.376.094.846.188 1.222l.188 1.222c0 .376.094.846.094 1.222.094.376.094.846.094 1.222-.376-1.504-.564-3.196-.564-4.888zM38.822.658c.376 0 .47.47.47.752 0 .282.094.564.094.846v.846l.094.846c-.188-.564-.282-1.128-.282-1.692V1.41c0-.188 0-.282-.094-.47-.094-.094-.188-.282-.282-.282zM30.362 2.256c.188 0 .282.188.376.282.094.188.094.282.188.47.094.094.094.282.094.564 0 .094 0 .094-.094.188 0 0 0 .094-.094.094v.094c0 .282.094.564.094.846 0 .282.094.564.094.846-.188-.564-.282-1.128-.376-1.692V3.76c0-.094.094-.094.094-.188v-.47c-.094-.376-.094-.752-.376-.846z" transform="translate(24.44 2.82)"/>
                            <path d="M19.834 2.162c.564.282 1.034.752 1.316 1.316.376.564.47 1.222.564 1.786 0 .658-.094 1.316-.282 1.88-.188.564-.564 1.128-1.034 1.598.752-.94 1.222-2.162 1.128-3.384 0-1.316-.658-2.444-1.692-3.196zM2.068.846c.282.376.564.752.658 1.128.188.47.188.94.188 1.41-.094.47-.282.94-.564 1.316-.282.376-.564.658-.94.94.658-.564 1.128-1.316 1.316-2.256.094-.94-.282-1.786-.658-2.538z" transform="translate(24.44 2.82)"/>
                        </g>
                        <circle cx="41.924" cy="8.366" r="1.034" fill="#FFF" fill-rule="nonzero" stroke="#231F20" stroke-linejoin="round" stroke-width=".705"/>
                        <circle cx="46.624" cy="8.366" r="1.034" fill="#FFF" fill-rule="nonzero" stroke="#231F20" stroke-linejoin="round" stroke-width=".705"/>
                        <path stroke="#231F20" stroke-linejoin="round" stroke-width=".705" d="M25.568 3.102c-.47-.094-1.504-2.068-1.504-2.538.47.282 1.504.94 1.974.564.188.094.282.282.376.47.188 0 .282-.094.376-.282 0 .188.188.47.376.564.282-.188.47-.282.752-.47.282-.188.564-.282.846-.376.282 0 .658.094.752.376.188-.188.376-.376.564-.47 0 .282.094.564.376.752.188.188.658-.094.564-.282.188.376.564.752.846.564.282-.188.282-.846.658-.846.376 0 .47.658.846.564.188 0 .188-.188.376-.282.282-.094.47.282.564.47.376.564 1.504.376 1.692-.282-.188.282.188.658.47.658.376 0 .564-.376.658-.658.188.282.376.658.564.94.376-.282.752-.564 1.128-.94 0 .47.47.846.846.752.47-.094.752-.47.846-.94.094.282.188.658.282.94.376-.188.658-.47.846-.846.188.188.188.47.376.658.094.188.376.47.658.282.282-.188.376-.658.658-.658.094.376.376.658.658.846.094-.188.282-.282.376-.47 0 .282.094.658.376.658.282 0 .47-.282.564-.564.094-.282.376-.564.658-.376-.094.376.282.752.658.752.376-.094 1.41-.752 1.504-1.128.094.282-.47.94-.094 1.128.282.188.752.188.94-.094.094-.094.094-.282.188-.376.094-.188.94-1.034 1.128-1.034.94-.188 1.222.658 2.162.846.188-.282.47-.564.658-.752h1.41c.188 0 .376-.094.564-.282-.188.376.376.658.658.564.376-.094.564-.47.658-.846.094.376.47.94.846.752.282-.094.47-.564.658-.376.094.094.094.282.188.47.188.188.47 0 .658-.282.094-.282.188-.564.47-.564.188.188.282.47.47.658.376-.094.752-.47.94-.846.188.282.282.564.658.658.376.094.752-.188.658-.47.282.188.47.376.752.658.282-.564.846-1.034 1.504-1.128.094.188 0 .376-.094.564h.658c-.188.47-.564 1.41-1.034 1.692"/>
                        <path stroke="#231F20" stroke-dasharray=".47" stroke-linejoin="round" stroke-width=".5" d="M18.894 25.944s7.614-3.478 8.836-17.014M71.158 25.944s-7.614-3.478-8.836-17.014"/>
                        <path stroke="#231F20" stroke-linejoin="round" stroke-width=".94" d="M24.064 7.896c-4.7 11.562-6.768 21.714-7.614 34.122 0 .188-1.034 2.82-.282 2.82l-.376 2.068L1.41 139.684c-.376 2.35-1.598 3.29.564 4.324 14.382 7.05 38.258 3.948 38.258 3.948l4.042-87.796 2.444 87.984s4.136 1.034 4.982 1.128c7.426.94 17.484 2.162 36.566-5.17 2.256-.846.282-1.974-.094-4.324L73.79 47l-.376-2.068c.752 0-.282-2.632-.282-2.82-.94-12.408-2.914-22.56-7.614-34.122"/>
                        <path fill="#231F20" fill-rule="nonzero" d="M41.266 71.064c-.47 2.726-.94 5.452-1.504 8.178-.564 2.726-1.128 5.452-1.786 8.084-.658 2.726-1.316 5.358-1.974 8.084-.752 2.632-1.504 5.358-2.256 7.99L37.6 87.232l3.666-16.168zM47.094 72.568c-.094 4.23.376 8.554.94 12.784.658 4.23 1.41 8.46 2.256 12.596l2.256 12.596c.752 4.23 1.41 8.46 2.162 12.596-.846-4.23-1.692-8.366-2.538-12.596l-2.35-12.596c-.752-4.23-1.598-8.366-2.162-12.69-.282-2.162-.47-4.23-.658-6.392 0-1.974 0-4.136.094-6.298zM75.012 78.208c.094 3.948.188 7.99.188 11.938 0 3.948-.094 7.99-.282 11.938-.188 3.948-.376 7.99-.658 11.938-.282 3.948-.658 7.896-1.034 11.844l.658-11.938c.188-3.948.376-7.896.564-11.938.188-3.948.282-7.99.376-11.938l.188-11.844zM16.45 59.69c-.752.846-1.128 1.88-1.41 2.914-.282 1.034-.376 2.162-.376 3.196l-.376 6.486c-.188 4.324-.376 8.648-.47 12.972-.094 4.324-.094 8.648 0 12.972s.282 8.648.658 12.972c-.47-4.324-.846-8.554-1.034-12.878-.188-4.324-.188-8.648-.094-12.972s.282-8.648.658-12.972l.47-6.486c.094-1.034.188-2.162.47-3.196.282-1.222.752-2.256 1.504-3.008z"/>
                        <g fill="#231F20" fill-rule="nonzero">
                            <path d="M.47.846L.846 1.034.846 1.034zM1.316 1.222L1.786 1.41 1.786 1.41zM2.162 1.598L2.632 1.786 2.632 1.786zM3.102 1.88L3.478 2.068 3.478 2.068 3.008 1.974zM3.948 2.162L4.418 2.256 4.418 2.35 3.948 2.256zM4.888 2.444L5.264 2.538 5.264 2.632 4.794 2.538z" transform="translate(1.88 135.36)"/>
                            <path d="M5.906 2.547H6.906V3.547H5.906z" transform="translate(1.88 135.36) rotate(-75.671 5.956 2.782)"/>
                            <path d="M6.853 2.841H7.853V3.841H6.853z" transform="translate(1.88 135.36) rotate(-76.75 6.903 3.076)"/>
                            <path d="M7.742 3.024H8.742V4.024H7.742z" transform="translate(1.88 135.36) rotate(-77.748 7.792 3.26)"/>
                            <path d="M8.629 3.136H9.629V4.136H8.629z" transform="translate(1.88 135.36) rotate(-78.686 8.723 3.37)"/>
                            <path d="M9.527 3.39H10.527V4.390000000000001H9.527z" transform="translate(1.88 135.36) rotate(-79.56 9.62 3.625)"/>
                            <path d="M10.485 3.537H11.485V4.537H10.485z" transform="translate(1.88 135.36) rotate(-80.387 10.579 3.772)"/>
                            <path d="M11.337 3.664H12.337V4.664H11.337z" transform="translate(1.88 135.36) rotate(-81.17 11.43 3.899)"/>
                            <path d="M12.324 3.802H13.324V4.802H12.324z" transform="translate(1.88 135.36) rotate(-81.918 12.418 4.037)"/>
                            <path d="M13.066 4.042L13.536 4.136 13.536 4.324 13.066 4.23zM14.006 4.23L14.476 4.23 14.476 4.418 14.006 4.418zM14.946 4.324L15.416 4.324 15.416 4.512 14.946 4.512zM15.886 4.418L16.356 4.418 16.356 4.606 15.886 4.606zM16.826 4.512L17.296 4.512 17.296 4.7 16.826 4.7zM17.766 4.512L18.236 4.606 18.142 4.794 17.672 4.794zM18.706 4.606L19.176 4.606 19.082 4.888 18.612 4.888zM19.646 4.7L20.116 4.7 20.022 4.888 19.552 4.888zM20.586 4.7L21.056 4.794 20.962 4.982 20.492 4.982zM21.526 4.794L21.902 4.794 21.902 4.982 21.432 4.982zM22.372 4.794L22.842 4.888 22.842 5.076 22.372 5.076zM23.312 4.888L23.782 4.888 23.782 5.076 23.312 5.076zM24.252 4.888L24.722 4.982 24.722 5.17 24.252 5.076zM25.192 4.982L25.662 4.982 25.662 5.17 25.192 5.17zM26.132 4.982L26.602 5.076 26.602 5.17 26.132 5.17zM27.072 5.076L27.542 5.076 27.542 5.264 27.072 5.264zM28.012 5.076L28.482 5.17 28.482 5.264 28.012 5.264zM28.952 5.17L29.422 5.17 29.422 5.358 28.952 5.264zM29.892 5.17L30.362 5.17 30.362 5.358 29.892 5.358zM30.832 5.264L31.302 5.264 31.302 5.358 30.832 5.358zM31.772 5.264L32.242 5.264 32.242 5.452 31.772 5.358zM32.712 5.264L33.182 5.358 33.182 5.452 32.712 5.452zM33.652 5.358L34.122 5.358 34.122 5.452 33.652 5.452zM34.592 5.358L35.062 5.358 35.062 5.452 34.592 5.452zM35.532 5.452L36.002 5.452 36.002 5.452zM36.472 5.452L36.942 5.452 36.942 5.452zM37.506 5.452L37.976 5.452 37.976 5.452 37.412 5.452zM38.446 5.452L38.634 5.452z" transform="translate(1.88 135.36)"/>
                        </g>
                        <g fill="#231F20" fill-rule="nonzero">
                            <path d="M40.702.846L40.232 1.034 40.232 1.034zM39.762 1.222L39.386 1.41 39.386 1.41zM38.916 1.598L38.54 1.786 38.446 1.692zM38.07 1.88L37.6 2.068 37.6 1.974zM37.13 2.162L36.754 2.35 36.66 2.256 37.13 2.068zM36.284 2.444L35.814 2.632 35.814 2.444 36.284 2.35z" transform="translate(47 135.36)"/>
                            <path d="M34.86 2.641H35.86V3.641H34.86z" transform="translate(47 135.36) rotate(-14.3 35.095 2.691)"/>
                            <path d="M34.003 2.811H35.003V3.811H34.003z" transform="translate(47 135.36) rotate(-13.309 34.238 2.86)"/>
                            <path d="M33.096 3.094H34.096V4.093999999999999H33.096z" transform="translate(47 135.36) rotate(-12.392 33.33 3.144)"/>
                            <path d="M32.161 3.286H33.161V4.286H32.161z" transform="translate(47 135.36) rotate(-11.531 32.396 3.38)"/>
                            <path d="M31.198 3.389H32.198V4.388999999999999H31.198z" transform="translate(47 135.36) rotate(-10.726 31.433 3.483)"/>
                            <path d="M30.364 3.562H31.364V4.561999999999999H30.364z" transform="translate(47 135.36) rotate(-9.968 30.6 3.656)"/>
                            <path d="M29.426 3.757H30.426V4.757H29.426z" transform="translate(47 135.36) rotate(-9.248 29.661 3.85)"/>
                            <path d="M28.477 3.864H29.477V4.864H28.477z" transform="translate(47 135.36) rotate(-8.557 28.712 3.958)"/>
                            <path d="M28.012 4.136L27.542 4.23 27.542 4.042 28.012 3.948zM27.072 4.23L26.602 4.324 26.602 4.136 27.072 4.042zM26.132 4.418L25.662 4.418 25.662 4.23 26.132 4.23zM25.192 4.512L24.816 4.512 24.722 4.324 25.192 4.324zM24.346 4.606L23.876 4.606 23.782 4.418 24.252 4.418zM23.406 4.7L22.936 4.7 22.936 4.512 23.312 4.512zM22.466 4.794L21.996 4.794 21.996 4.606 22.466 4.512zM21.526 4.794L21.056 4.888 21.056 4.606 21.526 4.606zM20.586 4.888L20.116 4.888 20.116 4.7 20.586 4.7zM19.646 4.982L19.176 4.982 19.176 4.7 19.646 4.7zM18.706 4.982L18.236 4.982 18.236 4.794 18.706 4.794zM17.766 4.982L17.296 5.076 17.296 4.794 17.766 4.794zM16.826 5.076L16.356 5.076 16.356 4.888 16.826 4.888zM15.886 5.076L15.416 5.076 15.416 4.888 15.886 4.888zM14.946 5.17L14.476 5.17 14.476 4.982 14.946 4.982zM14.006 5.17L13.536 5.17 13.536 4.982 14.006 4.982zM13.066 5.17L12.596 5.264 12.596 5.076 13.066 5.076zM12.126 5.264L11.656 5.264 11.656 5.076 12.126 5.076zM11.186 5.264L10.716 5.264 10.716 5.17 11.186 5.076zM10.246 5.264L9.776 5.358 9.776 5.17 10.246 5.17zM9.306 5.358L8.836 5.358 8.836 5.17 9.306 5.17zM8.366 5.358L7.896 5.358 7.896 5.264 8.366 5.264zM7.426 5.358L6.956 5.452 6.956 5.264 7.426 5.264zM6.486 5.452L6.016 5.452 6.016 5.358 6.486 5.264zM5.546 5.452L5.076 5.452 5.076 5.358 5.546 5.358zM4.606 5.452L4.136 5.452 4.136 5.358 4.606 5.358zM3.666 5.452L3.196 5.452 3.196 5.452 3.666 5.358zM2.726 5.452L2.256 5.452 2.256 5.452zM1.786 5.452L1.316 5.452 1.316 5.452zM.846 5.452L.376 5.452.376 5.452z" transform="translate(47 135.36)"/>
                        </g>
                        <path fill="#231F20" fill-rule="nonzero" d="M42.018 36.19c-1.034-8.93-.94-17.86.376-26.79.094-.752-1.034-1.034-1.128-.282-1.316 9.024-1.504 18.048-.47 27.166.094.658 1.316.658 1.222-.094zM48.034 36.19c1.128-9.118.94-18.048-.47-27.166-.094-.752-1.222-.47-1.128.282 1.316 8.93 1.41 17.86.376 26.79-.094.846 1.128.846 1.222.094z"/>
                    </g>
                </g>
            </g>
        </g>
    </g>
</svg>
