<svg xmlns="http://www.w3.org/2000/svg" width="146" height="212" viewBox="0 0 146 212">
    <g fill="none" fill-rule="evenodd">
        <g>
            <g>
                <g transform="translate(-1501 -162) translate(1502 163)">
                    <rect width="145" height="211" x="-.5" y="-.5" fill="#F4F4F4" stroke="#000" rx="4"/>
                    <path fill="#000" fill-rule="nonzero" d="M46.605 184.15v2.233H41.92v3.313h4.36v2.224h-4.36V197h-2.68v-12.85h7.365zm5.238 0v10.6h5.212V197H49.12v-12.85h2.724zm13.694-.052L70.089 197h-2.935l-.932-3.059h-4.684L60.606 197H57.67l4.536-12.902h3.33zm9.914.052c1.746 0 3.038.318 3.876.954.838.636 1.256 1.601 1.256 2.896 0 .756-.208 1.428-.624 2.017-.416.589-1.004 1.05-1.766 1.384l2.674 3.979c.489.723.857 1.263 1.105 1.62H78.95l-3.068-4.93h-1.45V197h-2.724v-12.85h3.744zm15.539 0v2.233h-4.676v2.821h4.35v2.233h-4.35v3.313h4.676V197h-7.4v-12.85h7.4zm6.715 0c2.097 0 3.726.554 4.886 1.662 1.16 1.107 1.74 2.654 1.74 4.64 0 2.115-.602 3.735-1.806 4.86-1.204 1.126-2.942 1.688-5.216 1.688H93.67v-12.85h4.035zm.14 2.233h-1.45v8.367h1.169c2.625 0 3.937-1.41 3.937-4.228 0-2.76-1.218-4.14-3.656-4.14zm-33.96-.29l-.086.317c-.246.894-.771 2.642-1.576 5.246h3.349l-1.455-4.702-.115-.4c-.05-.18-.09-.335-.118-.461zm11.372.29h-.826v3.471h.88c.86 0 1.496-.143 1.906-.43.41-.287.616-.738.616-1.354 0-.61-.21-1.043-.629-1.3-.419-.258-1.068-.387-1.947-.387z"/>
                </g>
                <g>
                    <path fill="#BCBEC0" fill-rule="nonzero" stroke="#231F20" stroke-linecap="round" stroke-linejoin="round" stroke-width=".92" d="M56.948.092c-16.56 2.3-33.396.92-33.396.92l-2.116.184C27.876 4.324 35.144 5.98 42.32 5.98c1.196 0 5.704-.92 6.808-1.288 3.68-1.38 7.452-2.668 10.948-4.6h-3.128z" transform="translate(-1501 -162) translate(1502 163) translate(31 16)"/>
                    <path stroke="#231F20" stroke-linecap="round" stroke-linejoin="round" stroke-width=".92" d="M20.608 5.612s7.728 4.14 20.332 3.864C53.544 9.2 61.272 4.14 61.272 4.14" transform="translate(-1501 -162) translate(1502 163) translate(31 16)"/>
                    <path fill="#FFF" fill-rule="nonzero" stroke="#231F20" stroke-linecap="round" stroke-linejoin="round" stroke-width=".92" d="M34.408 5.336l-1.104 6.716s-1.472.184-1.932-.368c-.368-.552 1.196-6.624 1.196-6.624M46.552 5.428l1.104 6.716s1.472.184 1.932-.368c.368-.552-1.196-6.624-1.196-6.624" transform="translate(-1501 -162) translate(1502 163) translate(31 16)"/>
                    <path stroke="#231F20" stroke-linecap="round" stroke-linejoin="round" stroke-width=".92" d="M40.02 6.256l.368 32.108S37.26 75.9 37.72 106.076c.46 30.176 0 42.78 0 42.78s-12.328 2.024-26.68-1.656C.828 144.624 0 144.44 0 144.44l5.52-28.888s7.452-44.62 7.82-65.136c.276-19.78 7.912-49.22 7.912-49.22M40.388 38.64s3.956 36.708 3.496 67.068c-.46 30.36 0 43.056 0 43.056s12.328 2.024 26.68-1.656c8.924-2.3 11.04-2.76 11.04-2.76l-5.52-29.072s-7.452-44.988-7.82-65.688C67.896 29.624 60.26 0 60.26 0" transform="translate(-1501 -162) translate(1502 163) translate(31 16)"/>
                    <path fill="#231F20" fill-rule="nonzero" d="M17.572 18.4c.552 0 .552-.92 0-.92s-.552.92 0 .92z" transform="translate(-1501 -162) translate(1502 163) translate(31 16)"/>
                    <path stroke="#231F20" stroke-linecap="round" stroke-linejoin="round" stroke-width=".92" d="M29.992 9.016s.276 3.22-2.024 3.956c-2.3.736-6.808-.276-6.808-.276l-2.392-.644" transform="translate(-1501 -162) translate(1502 163) translate(31 16)"/>
                    <path stroke="#231F20" stroke-dasharray=".46" stroke-linecap="round" stroke-linejoin="round" stroke-width=".5" d="M30.82 8.556s.276 4.508-2.208 5.52c-2.484 1.012-7.544-.368-7.544-.368L18.4 12.88" transform="translate(-1501 -162) translate(1502 163) translate(31 16)"/>
                    <path stroke="#231F20" stroke-linecap="round" stroke-linejoin="round" stroke-width=".92" d="M51.152 8.648s-.276 3.22 2.024 3.956c2.3.736 6.808-.276 6.808-.276l2.392-.644" transform="translate(-1501 -162) translate(1502 163) translate(31 16)"/>
                    <path stroke="#231F20" stroke-dasharray=".46" stroke-linecap="round" stroke-linejoin="round" stroke-width=".5" d="M50.324 8.188s-.276 4.508 2.208 5.52c2.484 1.012 7.544-.368 7.544-.368l2.668-.828" transform="translate(-1501 -162) translate(1502 163) translate(31 16)"/>
                    <path stroke="#231F20" stroke-linecap="round" stroke-linejoin="round" stroke-width=".5" d="M20.608 12.512L21.436 9.476 28.06 11.04 27.324 13.156" transform="translate(-1501 -162) translate(1502 163) translate(31 16)"/>
                    <path stroke="#231F20" stroke-linecap="round" stroke-linejoin="round" stroke-width=".69" d="M40.204 28.612s2.668.92 3.588-1.656c.828-2.576.552-7.452.552-7.452l-.276-9.752" transform="translate(-1501 -162) translate(1502 163) translate(31 16)"/>
                    <g fill="#231F20" fill-rule="nonzero">
                        <path d="M.368 5.704L.828 5.796.828 5.796.828 5.796.828 5.796zM1.288 5.796h.46-.46zM2.208 5.796h.46-.46c0 .092 0 .092 0 0 0 .092 0 0 0 0zM3.128 5.888h.46-.46c0 .092 0 0 0 0zM4.048 5.888h.46s.092 0 .092.092c0 0 0 .092-.092.092l-.46-.184c0 .092-.092.092 0 0-.092 0 0 0 0 0zM4.968 5.888h.46s.092 0 .092.092c0 0 0 .092-.092.092h-.46c-.092 0-.092-.092 0-.184-.092.092-.092 0 0 0zM5.888 5.888h.46s.092 0 .092.092c0 0 0 .092-.092.092h-.46c-.092 0-.092-.092 0-.184-.092.092-.092 0 0 0zM6.808 5.98h.46s.092 0 .092.092c0 0 0 .092-.092.092h-.46c-.092-.092-.092-.092 0-.184-.092 0-.092 0 0 0zM7.728 5.888h.46s.092 0 .092.092c0 0 0 .092-.092.092h-.46c-.092 0-.092 0 0-.184-.092.092-.092 0 0 0zM8.556 5.888h.46s.092 0 .092.092c0 0 0 .092-.092.092h-.46v-.184c0 .092 0 0 0 0zM9.476 5.888h.46s.092 0 .092.092c0 0 0 .092-.092.092h-.46v-.184zM10.396 5.888h.46s.092 0 .092.092c0 0 0 .092-.092.092h-.46v-.184zM11.316 5.796h.46c.092 0 .092 0 .092.092s0 .092-.092.092h-.46v-.184c-.092.092 0 0 0 0zM12.236 5.796h.46c.092 0 .092 0 .092.092s0 .092-.092.092h-.46s-.092-.092 0-.184c-.092 0 0 0 0 0zM13.156 5.704h.46c.092 0 .092 0 .092.092s0 .092-.092.092h-.46c-.092 0-.092 0-.092-.092l.092-.092zM14.076 5.612h.46c.092 0 .092 0 .092.092s0 .092-.092.092h-.46c-.092 0-.092 0-.092-.092 0 0 .092 0 .092-.092zM14.996 5.612h.46c.092 0 .092 0 .092.092s0 .092-.092.092h-.46c-.092 0-.092 0-.092-.092s0-.092.092-.092zM15.916 5.52l.46-.092c.092 0 .092 0 .092.092s0 .092-.092.092h-.46c-.092 0-.092 0-.092-.092h.092zM16.836 5.428l.46-.092c.092 0 .092 0 .092.092s0 .092-.092.092l-.46.092c-.092 0-.092 0-.092-.092s0-.092.092-.092zM17.756 5.244l.46-.092c.092 0 .092 0 .092.092s0 .092-.092.092l-.46.092c-.092 0-.092 0-.092-.092l.092-.092zM18.676 5.152l.46-.092c.092 0 .092 0 .092.092s0 .092-.092.092l-.46.092c-.092 0-.092 0-.092-.092-.092 0 0-.092.092-.092zM19.596 5.06l.46-.092c.092 0 .092 0 .092.092s0 .092-.092.092l-.46.092c-.092 0-.092 0-.092-.092-.092 0 0-.092.092-.092zM20.424 4.876l.46-.092c.092 0 .092 0 .092.092s0 .092-.092.092l-.46.092c-.092 0-.092 0-.092-.092 0 0 .092 0 .092-.092zM21.344 4.784l.46-.092c.092 0 .092 0 .092.092s0 .092-.092.092l-.46.092c-.092 0-.092 0-.092-.092l.092-.092zM22.264 4.6l.46-.092c.092 0 .092 0 .092.092s0 .092-.092.092l-.46.092c-.092 0-.092 0-.092-.092 0 0 0-.092.092-.092zM23.184 4.416l.46-.092c.092 0 .092 0 .092.092s0 .092-.092.092l-.46.092c-.092 0-.092 0-.092-.092 0 0 0-.092.092-.092zM24.104 4.232l.46-.092c.092 0 .092 0 .092.092s0 .092-.092.092l-.46.092c-.092 0-.092 0-.092-.092s0 0 .092-.092zM24.932 4.048l.46-.092c.092 0 .092 0 .092.092s0 .092-.092.092l-.46.092c-.092 0-.092 0-.092-.092l.092-.092zM25.852 3.864l.46-.092s.092 0 .092.092c0 0 0 .092-.092.092l-.46.092c-.092 0-.092 0-.092-.092 0 0 0-.092.092-.092zM26.772 3.68l.46-.092s.092 0 .092.092c0 0 0 .092-.092.092l-.46.092s-.092 0-.092-.092 0-.092.092-.092zM27.6 3.404l.46-.092s.092 0 .092.092c0 0 0 .092-.092.092l-.46.092s-.092 0-.092-.092c.092 0 .092-.092.092-.092zM28.52 3.22l.46-.092s.092 0 .092.092c0 0 0 .092-.092.092l-.46.092s-.092 0-.092-.092.092-.092.092-.092zM29.44 2.944l.46-.092s.092 0 .092.092c0 0 0 .092-.092.092l-.46.092s-.092 0 0-.184c-.092.092-.092 0 0 0zM30.268 2.76l.46-.092s.092 0 .092.092c0 0 0 .092-.092.092l-.46.092V2.76zM31.188 2.484l.46-.092h.092v.092l-.46.092c-.092.092-.092 0-.092-.092 0 .092 0 0 0 0zM32.108 2.3l.46-.092h.092V2.3l-.46.092c-.092 0-.184 0-.092-.092-.092 0 0 0 0 0zM33.028 2.024l.46-.092h.092v.092l-.46.092c-.092.092-.184 0-.092-.092-.092.092-.092 0 0 0zM33.856 1.84l.46-.092h.092v.092h-.552c0 .092 0 .092 0 0zM34.776 1.656l.46-.092-.46.092zM35.696 1.38l.46-.092-.46.092c0 .092 0 .092 0 0 0 .092 0 0 0 0zM36.616 1.196l.46-.092-.46.092c0 .092 0 .092 0 0zM37.26 1.196L37.076 1.196z" transform="translate(-1501 -162) translate(1502 163) translate(31 16) translate(43.332 140.116)"/>
                    </g>
                    <g fill="#231F20" fill-rule="nonzero">
                        <path d="M37.904 5.704L37.536 5.796 37.444 5.796 37.536 5.796 37.536 5.796zM37.076 5.796h-.46.46zM36.156 5.888h-.46.46c0-.092 0 0 0 0zM35.236 5.98h-.46.46c0-.092 0-.092 0 0 0-.092 0 0 0 0zM34.316 5.98h-.46s-.092 0-.092-.092c0 0 0-.092.092-.092l.46.184c0-.092 0-.092 0 0zM33.396 6.072h-.46s-.092 0-.092-.092c0 0 0-.092.092-.092h.46v.184c0-.092 0-.092 0 0zM32.476 6.072h-.46s-.092 0-.092-.092c0 0 0-.092.092-.092h.46s.092.092 0 .184c.092-.092 0 0 0 0zM31.556 6.072h-.46s-.092 0-.092-.092c0 0 0-.092.092-.092h.46c0 .092.092.092 0 .184.092 0 0 0 0 0zM30.636 6.072h-.46s-.092 0-.092-.092c0 0 0-.092.092-.092h.46s.092.092 0 .184c.092 0 0 0 0 0zM29.716 6.072h-.46s-.092 0-.092-.092c0 0 0-.092.092-.092h.46c.092 0 .092.092 0 .184.092 0 .092 0 0 0zM28.796 6.072h-.46s-.092 0-.092-.092c0 0 0-.092.092-.092h.46c.092 0 .092 0 0 .184.092-.092.092 0 0 0zM27.876 5.98h-.46s-.092 0-.092-.092 0-.092.092-.092h.46c.092.092.092.092 0 .184.092 0 .092 0 0 0zM26.956 5.98h-.46c-.092 0-.092 0-.092-.092s0-.092.092-.092h.46c.092 0 .092.092 0 .184.092 0 .092 0 0 0zM26.036 5.98h-.46c-.092 0-.092 0-.092-.092s0-.092.092-.092h.46c.092 0 .092 0 0 .184.092-.092.092 0 0 0zM25.116 5.888h-.46c-.092 0-.092-.092-.092-.092 0-.092.092-.092.092-.092h.46c.092 0 .092.092.092.092 0 .092 0 .092-.092.092zM24.196 5.796h-.46c-.092 0-.092-.092-.092-.092 0-.092.092-.092.092-.092h.46c.092 0 .092.092.092.092 0 .092 0 .184-.092.092zM23.276 5.796h-.46c-.092 0-.092-.092-.092-.092 0-.092.092-.092.092-.092h.46c.092 0 .092.092.092.092.092 0 0 .092-.092.092zM22.448 5.704h-.46c-.092 0-.092-.092-.092-.092 0-.092.092-.092.092-.092l.46.092c.092 0 .092.092.092.092 0-.092-.092 0-.092 0zM21.528 5.612l-.46-.092c-.092 0-.092-.092-.092-.092 0-.092.092-.092.092-.092l.46.092c.092 0 .092.092.092.092 0 .092-.092.092-.092.092zM20.608 5.52l-.46-.092c-.092 0-.092-.092-.092-.092 0-.092.092-.092.092-.092l.46.092c.092 0 .092.092.092.092l-.092.092zM19.688 5.428l-.46-.092c-.092 0-.092-.092-.092-.092l.092-.092.46.092c.092 0 .092.092.092.092l-.092.092zM18.768 5.244l-.46-.092c-.092 0-.092-.092-.092-.092 0-.092.092-.092.092-.092l.46.092c.092 0 .092.092.092.092l-.092.092zM17.848 5.152l-.46-.092c-.092 0-.092-.092-.092-.092 0-.092.092-.092.092-.092l.46.092c.092 0 .092.092.092.092s0 .092-.092.092zM16.928 4.968l-.46-.092c-.092 0-.092-.092-.092-.092 0-.092.092-.092.092-.092l.46.092c.092 0 .092.092.092.092 0 .092 0 .092-.092.092zM16.008 4.784l-.46-.092c-.092 0-.092-.092-.092-.092 0-.092.092-.092.092-.092l.46.092c.092 0 .092.092.092.092s0 .092-.092.092zM15.088 4.6l-.46-.092c-.092 0-.092-.092-.092-.092 0-.092.092-.092.092-.092l.46.092c.092 0 .092.092.092.092s0 .184-.092.092zM14.26 4.416l-.46-.092c-.092 0-.092-.092-.092-.092 0-.092.092-.092.092-.092l.46.092c.092 0 .092.092.092.092 0 .092-.092.184-.092.092zM13.34 4.232l-.46-.092c-.092 0-.092-.092-.092-.092 0-.092.092-.092.092-.092l.46.092c.092 0 .092.092.092.092l-.092.092zM12.42 4.048l-.46-.092-.092-.092.092-.092.46.092c.092 0 .092.092.092.092 0 .092 0 .092-.092.092zM11.592 3.772l-.46-.092-.092-.092.092-.092.46.092.092.092c-.092.092-.092.184-.092.092zM10.672 3.588l-.46-.092-.092-.092.092-.092.46.092.092.092c0 .092-.092.092-.092.092zM9.752 3.312l-.46-.092-.092-.092.092-.092.46.092.092.092c0 .092 0 .092-.092.092zM8.832 3.128l-.46-.092-.092-.092.092-.092.46.092c.092 0 .184.092 0 .184.092 0 .092 0 0 0zM8.004 2.852l-.46-.092s-.092 0-.092-.092c0 0 0-.092.092-.092l.46.092c.092.092.092.092 0 .184.092 0 0 0 0 0zM7.084 2.668l-.46-.092s-.092 0 0-.092c0 0 0-.092.092 0l.46.092c0-.092 0 0-.092.092.092-.092.092 0 0 0zM6.164 2.392l-.46-.092s-.092 0 0-.092c0 0 0-.092.092 0l.46.092-.092.092c.092 0 .092 0 0 0zM5.336 2.208l-.46-.092v-.092h.092l.46.092c-.092-.092 0 0-.092.092 0-.092 0 0 0 0zM4.416 1.932l-.46-.092v-.092h.092l.368.184c.092-.092.092-.092 0 0 .092 0 0 0 0 0zM3.496 1.656l-.46-.092.46.092c.092 0 .092 0 0 0 .092 0 .092 0 0 0zM2.668 1.472l-.46-.092.46.092c0-.092 0 0 0 0zM1.748 1.288l-.46-.092.46.092c0-.092 0-.092 0 0zM1.012 1.196L1.288 1.196z" transform="translate(-1501 -162) translate(1502 163) translate(31 16) translate(.092 140.116)"/>
                    </g>
                </g>
            </g>
        </g>
    </g>
</svg>
