<svg xmlns="http://www.w3.org/2000/svg" width="144" height="210" viewBox="0 0 144 210">
    <g fill="none" fill-rule="evenodd">
        <g>
            <g>
                <g transform="translate(-1502 -163) translate(1502 163)">
                    <rect width="144" height="210" fill="#F4F4F4" rx="4"/>
                    <path fill="#000" fill-rule="nonzero" d="M48.288 184.15v1.328H42.62v4.702h5.326v1.327H42.62V197h-1.494v-12.85h7.163zm3.621 0v11.496h5.67V197h-7.164v-12.85h1.494zm12.42-.052L69.381 197h-1.547l-1.6-4.087h-5.15L59.503 197H57.99l5.08-12.902h1.257zm10.344.052c1.576 0 2.74.302 3.494.906.752.603 1.129 1.511 1.129 2.724 0 1.7-.861 2.848-2.584 3.446l3.49 5.774h-1.767l-3.112-5.344h-2.68V197h-1.495v-12.85h3.525zm14.765 0v1.328H83.77v4.14h5.326v1.318H83.77v4.728h5.668V197h-7.163v-12.85h7.163zm6.786 0c1.998 0 3.55.554 4.658 1.662 1.107 1.107 1.661 2.654 1.661 4.64 0 2.121-.576 3.743-1.727 4.865-1.151 1.122-2.808 1.683-4.97 1.683h-3.56v-12.85h3.938zm-.273 1.292h-2.17v10.266H95.6c1.78 0 3.12-.438 4.016-1.314.897-.876 1.345-2.172 1.345-3.89 0-1.675-.42-2.938-1.261-3.787-.841-.85-2.09-1.275-3.749-1.275zm-32.273.29c-.13.563-.314 1.181-.554 1.855l-1.512 3.981h4.158l-1.495-3.981c-.193-.504-.392-1.122-.597-1.855zm10.907-.272h-1.942v4.913h2.047c1.055 0 1.829-.21 2.32-.628.493-.42.739-1.048.739-1.886 0-.85-.25-1.462-.751-1.837s-1.306-.562-2.413-.562z"/>
                </g>
                <g>
                    <path fill="#BCBEC0" fill-rule="nonzero" stroke="#231F20" stroke-linecap="round" stroke-linejoin="round" stroke-width=".92" d="M56.948.092c-16.56 2.3-33.396.92-33.396.92l-2.116.184C27.876 4.324 35.144 5.98 42.32 5.98c1.196 0 5.704-.92 6.808-1.288 3.68-1.38 7.452-2.668 10.948-4.6h-3.128z" transform="translate(-1502 -163) translate(1502 163) translate(31 16)"/>
                    <path stroke="#231F20" stroke-linecap="round" stroke-linejoin="round" stroke-width=".92" d="M20.608 5.612s7.728 4.14 20.332 3.864C53.544 9.2 61.272 4.14 61.272 4.14" transform="translate(-1502 -163) translate(1502 163) translate(31 16)"/>
                    <path fill="#FFF" fill-rule="nonzero" stroke="#231F20" stroke-linecap="round" stroke-linejoin="round" stroke-width=".92" d="M34.408 5.336l-1.104 6.716s-1.472.184-1.932-.368c-.368-.552 1.196-6.624 1.196-6.624M46.552 5.428l1.104 6.716s1.472.184 1.932-.368c.368-.552-1.196-6.624-1.196-6.624" transform="translate(-1502 -163) translate(1502 163) translate(31 16)"/>
                    <path stroke="#231F20" stroke-linecap="round" stroke-linejoin="round" stroke-width=".92" d="M40.02 6.256l.368 32.108S37.26 75.9 37.72 106.076c.46 30.176 0 42.78 0 42.78s-12.328 2.024-26.68-1.656C.828 144.624 0 144.44 0 144.44l5.52-28.888s7.452-44.62 7.82-65.136c.276-19.78 7.912-49.22 7.912-49.22M40.388 38.64s3.956 36.708 3.496 67.068c-.46 30.36 0 43.056 0 43.056s12.328 2.024 26.68-1.656c8.924-2.3 11.04-2.76 11.04-2.76l-5.52-29.072s-7.452-44.988-7.82-65.688C67.896 29.624 60.26 0 60.26 0" transform="translate(-1502 -163) translate(1502 163) translate(31 16)"/>
                    <path fill="#231F20" fill-rule="nonzero" d="M17.572 18.4c.552 0 .552-.92 0-.92s-.552.92 0 .92z" transform="translate(-1502 -163) translate(1502 163) translate(31 16)"/>
                    <path stroke="#231F20" stroke-linecap="round" stroke-linejoin="round" stroke-width=".92" d="M29.992 9.016s.276 3.22-2.024 3.956c-2.3.736-6.808-.276-6.808-.276l-2.392-.644" transform="translate(-1502 -163) translate(1502 163) translate(31 16)"/>
                    <path stroke="#231F20" stroke-dasharray=".46" stroke-linecap="round" stroke-linejoin="round" stroke-width=".5" d="M30.82 8.556s.276 4.508-2.208 5.52c-2.484 1.012-7.544-.368-7.544-.368L18.4 12.88" transform="translate(-1502 -163) translate(1502 163) translate(31 16)"/>
                    <path stroke="#231F20" stroke-linecap="round" stroke-linejoin="round" stroke-width=".92" d="M51.152 8.648s-.276 3.22 2.024 3.956c2.3.736 6.808-.276 6.808-.276l2.392-.644" transform="translate(-1502 -163) translate(1502 163) translate(31 16)"/>
                    <path stroke="#231F20" stroke-dasharray=".46" stroke-linecap="round" stroke-linejoin="round" stroke-width=".5" d="M50.324 8.188s-.276 4.508 2.208 5.52c2.484 1.012 7.544-.368 7.544-.368l2.668-.828" transform="translate(-1502 -163) translate(1502 163) translate(31 16)"/>
                    <path stroke="#231F20" stroke-linecap="round" stroke-linejoin="round" stroke-width=".5" d="M20.608 12.512L21.436 9.476 28.06 11.04 27.324 13.156" transform="translate(-1502 -163) translate(1502 163) translate(31 16)"/>
                    <path stroke="#231F20" stroke-linecap="round" stroke-linejoin="round" stroke-width=".69" d="M40.204 28.612s2.668.92 3.588-1.656c.828-2.576.552-7.452.552-7.452l-.276-9.752" transform="translate(-1502 -163) translate(1502 163) translate(31 16)"/>
                    <g fill="#231F20" fill-rule="nonzero">
                        <path d="M.368 5.704L.828 5.796.828 5.796.828 5.796.828 5.796zM1.288 5.796h.46-.46zM2.208 5.796h.46-.46c0 .092 0 .092 0 0 0 .092 0 0 0 0zM3.128 5.888h.46-.46c0 .092 0 0 0 0zM4.048 5.888h.46s.092 0 .092.092c0 0 0 .092-.092.092l-.46-.184c0 .092-.092.092 0 0-.092 0 0 0 0 0zM4.968 5.888h.46s.092 0 .092.092c0 0 0 .092-.092.092h-.46c-.092 0-.092-.092 0-.184-.092.092-.092 0 0 0zM5.888 5.888h.46s.092 0 .092.092c0 0 0 .092-.092.092h-.46c-.092 0-.092-.092 0-.184-.092.092-.092 0 0 0zM6.808 5.98h.46s.092 0 .092.092c0 0 0 .092-.092.092h-.46c-.092-.092-.092-.092 0-.184-.092 0-.092 0 0 0zM7.728 5.888h.46s.092 0 .092.092c0 0 0 .092-.092.092h-.46c-.092 0-.092 0 0-.184-.092.092-.092 0 0 0zM8.556 5.888h.46s.092 0 .092.092c0 0 0 .092-.092.092h-.46v-.184c0 .092 0 0 0 0zM9.476 5.888h.46s.092 0 .092.092c0 0 0 .092-.092.092h-.46v-.184zM10.396 5.888h.46s.092 0 .092.092c0 0 0 .092-.092.092h-.46v-.184zM11.316 5.796h.46c.092 0 .092 0 .092.092s0 .092-.092.092h-.46v-.184c-.092.092 0 0 0 0zM12.236 5.796h.46c.092 0 .092 0 .092.092s0 .092-.092.092h-.46s-.092-.092 0-.184c-.092 0 0 0 0 0zM13.156 5.704h.46c.092 0 .092 0 .092.092s0 .092-.092.092h-.46c-.092 0-.092 0-.092-.092l.092-.092zM14.076 5.612h.46c.092 0 .092 0 .092.092s0 .092-.092.092h-.46c-.092 0-.092 0-.092-.092 0 0 .092 0 .092-.092zM14.996 5.612h.46c.092 0 .092 0 .092.092s0 .092-.092.092h-.46c-.092 0-.092 0-.092-.092s0-.092.092-.092zM15.916 5.52l.46-.092c.092 0 .092 0 .092.092s0 .092-.092.092h-.46c-.092 0-.092 0-.092-.092h.092zM16.836 5.428l.46-.092c.092 0 .092 0 .092.092s0 .092-.092.092l-.46.092c-.092 0-.092 0-.092-.092s0-.092.092-.092zM17.756 5.244l.46-.092c.092 0 .092 0 .092.092s0 .092-.092.092l-.46.092c-.092 0-.092 0-.092-.092l.092-.092zM18.676 5.152l.46-.092c.092 0 .092 0 .092.092s0 .092-.092.092l-.46.092c-.092 0-.092 0-.092-.092-.092 0 0-.092.092-.092zM19.596 5.06l.46-.092c.092 0 .092 0 .092.092s0 .092-.092.092l-.46.092c-.092 0-.092 0-.092-.092-.092 0 0-.092.092-.092zM20.424 4.876l.46-.092c.092 0 .092 0 .092.092s0 .092-.092.092l-.46.092c-.092 0-.092 0-.092-.092 0 0 .092 0 .092-.092zM21.344 4.784l.46-.092c.092 0 .092 0 .092.092s0 .092-.092.092l-.46.092c-.092 0-.092 0-.092-.092l.092-.092zM22.264 4.6l.46-.092c.092 0 .092 0 .092.092s0 .092-.092.092l-.46.092c-.092 0-.092 0-.092-.092 0 0 0-.092.092-.092zM23.184 4.416l.46-.092c.092 0 .092 0 .092.092s0 .092-.092.092l-.46.092c-.092 0-.092 0-.092-.092 0 0 0-.092.092-.092zM24.104 4.232l.46-.092c.092 0 .092 0 .092.092s0 .092-.092.092l-.46.092c-.092 0-.092 0-.092-.092s0 0 .092-.092zM24.932 4.048l.46-.092c.092 0 .092 0 .092.092s0 .092-.092.092l-.46.092c-.092 0-.092 0-.092-.092l.092-.092zM25.852 3.864l.46-.092s.092 0 .092.092c0 0 0 .092-.092.092l-.46.092c-.092 0-.092 0-.092-.092 0 0 0-.092.092-.092zM26.772 3.68l.46-.092s.092 0 .092.092c0 0 0 .092-.092.092l-.46.092s-.092 0-.092-.092 0-.092.092-.092zM27.6 3.404l.46-.092s.092 0 .092.092c0 0 0 .092-.092.092l-.46.092s-.092 0-.092-.092c.092 0 .092-.092.092-.092zM28.52 3.22l.46-.092s.092 0 .092.092c0 0 0 .092-.092.092l-.46.092s-.092 0-.092-.092.092-.092.092-.092zM29.44 2.944l.46-.092s.092 0 .092.092c0 0 0 .092-.092.092l-.46.092s-.092 0 0-.184c-.092.092-.092 0 0 0zM30.268 2.76l.46-.092s.092 0 .092.092c0 0 0 .092-.092.092l-.46.092V2.76zM31.188 2.484l.46-.092h.092v.092l-.46.092c-.092.092-.092 0-.092-.092 0 .092 0 0 0 0zM32.108 2.3l.46-.092h.092V2.3l-.46.092c-.092 0-.184 0-.092-.092-.092 0 0 0 0 0zM33.028 2.024l.46-.092h.092v.092l-.46.092c-.092.092-.184 0-.092-.092-.092.092-.092 0 0 0zM33.856 1.84l.46-.092h.092v.092h-.552c0 .092 0 .092 0 0zM34.776 1.656l.46-.092-.46.092zM35.696 1.38l.46-.092-.46.092c0 .092 0 .092 0 0 0 .092 0 0 0 0zM36.616 1.196l.46-.092-.46.092c0 .092 0 .092 0 0zM37.26 1.196L37.076 1.196z" transform="translate(-1502 -163) translate(1502 163) translate(31 16) translate(43.332 140.116)"/>
                    </g>
                    <g fill="#231F20" fill-rule="nonzero">
                        <path d="M37.904 5.704L37.536 5.796 37.444 5.796 37.536 5.796 37.536 5.796zM37.076 5.796h-.46.46zM36.156 5.888h-.46.46c0-.092 0 0 0 0zM35.236 5.98h-.46.46c0-.092 0-.092 0 0 0-.092 0 0 0 0zM34.316 5.98h-.46s-.092 0-.092-.092c0 0 0-.092.092-.092l.46.184c0-.092 0-.092 0 0zM33.396 6.072h-.46s-.092 0-.092-.092c0 0 0-.092.092-.092h.46v.184c0-.092 0-.092 0 0zM32.476 6.072h-.46s-.092 0-.092-.092c0 0 0-.092.092-.092h.46s.092.092 0 .184c.092-.092 0 0 0 0zM31.556 6.072h-.46s-.092 0-.092-.092c0 0 0-.092.092-.092h.46c0 .092.092.092 0 .184.092 0 0 0 0 0zM30.636 6.072h-.46s-.092 0-.092-.092c0 0 0-.092.092-.092h.46s.092.092 0 .184c.092 0 0 0 0 0zM29.716 6.072h-.46s-.092 0-.092-.092c0 0 0-.092.092-.092h.46c.092 0 .092.092 0 .184.092 0 .092 0 0 0zM28.796 6.072h-.46s-.092 0-.092-.092c0 0 0-.092.092-.092h.46c.092 0 .092 0 0 .184.092-.092.092 0 0 0zM27.876 5.98h-.46s-.092 0-.092-.092 0-.092.092-.092h.46c.092.092.092.092 0 .184.092 0 .092 0 0 0zM26.956 5.98h-.46c-.092 0-.092 0-.092-.092s0-.092.092-.092h.46c.092 0 .092.092 0 .184.092 0 .092 0 0 0zM26.036 5.98h-.46c-.092 0-.092 0-.092-.092s0-.092.092-.092h.46c.092 0 .092 0 0 .184.092-.092.092 0 0 0zM25.116 5.888h-.46c-.092 0-.092-.092-.092-.092 0-.092.092-.092.092-.092h.46c.092 0 .092.092.092.092 0 .092 0 .092-.092.092zM24.196 5.796h-.46c-.092 0-.092-.092-.092-.092 0-.092.092-.092.092-.092h.46c.092 0 .092.092.092.092 0 .092 0 .184-.092.092zM23.276 5.796h-.46c-.092 0-.092-.092-.092-.092 0-.092.092-.092.092-.092h.46c.092 0 .092.092.092.092.092 0 0 .092-.092.092zM22.448 5.704h-.46c-.092 0-.092-.092-.092-.092 0-.092.092-.092.092-.092l.46.092c.092 0 .092.092.092.092 0-.092-.092 0-.092 0zM21.528 5.612l-.46-.092c-.092 0-.092-.092-.092-.092 0-.092.092-.092.092-.092l.46.092c.092 0 .092.092.092.092 0 .092-.092.092-.092.092zM20.608 5.52l-.46-.092c-.092 0-.092-.092-.092-.092 0-.092.092-.092.092-.092l.46.092c.092 0 .092.092.092.092l-.092.092zM19.688 5.428l-.46-.092c-.092 0-.092-.092-.092-.092l.092-.092.46.092c.092 0 .092.092.092.092l-.092.092zM18.768 5.244l-.46-.092c-.092 0-.092-.092-.092-.092 0-.092.092-.092.092-.092l.46.092c.092 0 .092.092.092.092l-.092.092zM17.848 5.152l-.46-.092c-.092 0-.092-.092-.092-.092 0-.092.092-.092.092-.092l.46.092c.092 0 .092.092.092.092s0 .092-.092.092zM16.928 4.968l-.46-.092c-.092 0-.092-.092-.092-.092 0-.092.092-.092.092-.092l.46.092c.092 0 .092.092.092.092 0 .092 0 .092-.092.092zM16.008 4.784l-.46-.092c-.092 0-.092-.092-.092-.092 0-.092.092-.092.092-.092l.46.092c.092 0 .092.092.092.092s0 .092-.092.092zM15.088 4.6l-.46-.092c-.092 0-.092-.092-.092-.092 0-.092.092-.092.092-.092l.46.092c.092 0 .092.092.092.092s0 .184-.092.092zM14.26 4.416l-.46-.092c-.092 0-.092-.092-.092-.092 0-.092.092-.092.092-.092l.46.092c.092 0 .092.092.092.092 0 .092-.092.184-.092.092zM13.34 4.232l-.46-.092c-.092 0-.092-.092-.092-.092 0-.092.092-.092.092-.092l.46.092c.092 0 .092.092.092.092l-.092.092zM12.42 4.048l-.46-.092-.092-.092.092-.092.46.092c.092 0 .092.092.092.092 0 .092 0 .092-.092.092zM11.592 3.772l-.46-.092-.092-.092.092-.092.46.092.092.092c-.092.092-.092.184-.092.092zM10.672 3.588l-.46-.092-.092-.092.092-.092.46.092.092.092c0 .092-.092.092-.092.092zM9.752 3.312l-.46-.092-.092-.092.092-.092.46.092.092.092c0 .092 0 .092-.092.092zM8.832 3.128l-.46-.092-.092-.092.092-.092.46.092c.092 0 .184.092 0 .184.092 0 .092 0 0 0zM8.004 2.852l-.46-.092s-.092 0-.092-.092c0 0 0-.092.092-.092l.46.092c.092.092.092.092 0 .184.092 0 0 0 0 0zM7.084 2.668l-.46-.092s-.092 0 0-.092c0 0 0-.092.092 0l.46.092c0-.092 0 0-.092.092.092-.092.092 0 0 0zM6.164 2.392l-.46-.092s-.092 0 0-.092c0 0 0-.092.092 0l.46.092-.092.092c.092 0 .092 0 0 0zM5.336 2.208l-.46-.092v-.092h.092l.46.092c-.092-.092 0 0-.092.092 0-.092 0 0 0 0zM4.416 1.932l-.46-.092v-.092h.092l.368.184c.092-.092.092-.092 0 0 .092 0 0 0 0 0zM3.496 1.656l-.46-.092.46.092c.092 0 .092 0 0 0 .092 0 .092 0 0 0zM2.668 1.472l-.46-.092.46.092c0-.092 0 0 0 0zM1.748 1.288l-.46-.092.46.092c0-.092 0-.092 0 0zM1.012 1.196L1.288 1.196z" transform="translate(-1502 -163) translate(1502 163) translate(31 16) translate(.092 140.116)"/>
                    </g>
                </g>
            </g>
        </g>
    </g>
</svg>
