<svg xmlns="http://www.w3.org/2000/svg" width="144" height="210" viewBox="0 0 144 210">
    <g fill="none" fill-rule="evenodd">
        <g>
            <g transform="translate(-1327 -163) translate(1327 163)">
                <rect width="144" height="210" fill="#F4F4F4" rx="4"/>
                <g transform="translate(44 16)">
                    <path fill="#FFF" fill-rule="nonzero" stroke="#231F20" stroke-linejoin="round" stroke-width=".653" d="M6.264 141.636c.174.174.348.435.435.609.087-.087.174-.261.261-.348.261.261.435.609.696.87.087-.348.261-.609.522-.87.174.348.261.696.435 1.044 0 .087 0 .087.087.087.174.087.348-.174.435-.348.174-.261.522-.261.87-.087.261.174.435.435.609.609.174-.348.348-.783.783-.783.435 0 .609.435.696.87.261 0 .435-.348.522-.609.087-.261.348-.609.609-.435 0 .174.087.435.261.609 0 .087.087.174.174.174s.174-.087.174-.174l.522-.783.522.783c.261-.087.348-.261.435-.522.087-.174.435-.348.609-.261.174.087.174.348.348.348.348.174.435-.696.783-.696.348 0 .348.435.609.522.435.087.261-.087.522-.348.522-.435 1.044-.174 1.74-.348"/>
                    <path stroke="#231F20" stroke-linejoin="round" stroke-width=".87" d="M47.85 5.133c2.784 7.743 4.872 16.269 5.916 24.447l.348 5.22c1.131 9.744 1.566 19.662 1.392 29.493l-.348 4.872c-.348 5.916-.609 11.745-.783 17.661 0 .435 0 .87-.087 1.305 0 .174-.087.435-.087.609s.174.435.261.609c.174.435 0 .957-.087 1.392-.696 3.132-1.392 7.482-1.392 10.701.087 4.089-.522 11.571-.522 11.571 0 5.133-.957 16.356-1.74 24.447-.174 1.566.261 3.219-1.044 4.698-.609.696.174 4.089.174 4.35 0 0-.957.435-1.044.522-.348.087-.696-.174-.957.087-.435.435-.261.87-.957.783-.609 0-1.305-.522-1.914-.348-.261.087-.435.261-.609.435-.435.261-1.218.087-1.653 0-.348-.087-.696-.087-1.044-.261-.435-.174-.609-.435-1.044-.087-.087 0-.087.087-.174.087s-.174-.087-.261-.174c-.087-.087-.174-.261-.261-.348l-.087-.087c-.087 0-.087 0-.174.087-.261.174-.522.261-.783.261-.174-.522-.522-.522-1.044-.696-.261-.087-.435-.174-.609-.348-.261-.261-.261-.696-.261-1.044 0-1.044.957-.87-.087-4.089l-.609-.957c-.261-.435-.435-.957-.435-1.479l.261-8.352c.261-8.961-3.567-48.894-3.567-48.894l-4.089-32.625-.696-7.917-4.089 41.064s-3.741 39.585-3.48 48.633l.435 8.352c0 .435-.087.87-.261 1.218l-.783 1.566c.348 1.131-1.218 3.567-.174 4.089.348.174 0 .783-.261 1.044s-.609.261-.957.348c.087 0-.609.522-.435.087 0 0-.87.348-1.131.348-.174 0-.348-.174-.522-.087-.261.174-.087.609-.348.696-.174.087-.348 0-.435-.087-.174-.087-.348-.087-.435.087-.087.087 0 .174-.087.261-.609-.435-1.044-.087-1.74-.087-.435.087-1.305-.261-1.566.174-.174-.174-.348-.435-.609-.522-.261-.087-.696-.174-.957-.174s-.435.174-.435.348c-.522 0-.957-.783-1.479-.957-.261-.087-.435.087-.609-.087-.087-.087 0-.348-.174-.435-.174-.087-.261.087-.348 0-.261-.087-.261.087-.435-.174-.087-.174-.174-.696-.087-.87.696-1.653 0-2.262-.348-3.306-1.914-6.177-.957-10.005-1.392-15.051-.348-4.698-.783-9.396-.783-14.094 0 0-.609-7.482-.522-11.571.087-3.219-.609-7.569-1.392-10.701-.087-.435-.261-.957-.087-1.392.087-.174.174-.435.261-.609 0-.174 0-.435-.087-.609-.087-.435-.087-.87-.087-1.305-.174-5.916-.435-11.832-.783-17.661l-.348-4.872c-.174-9.831.348-19.749 1.392-29.493l.348-5.22C3.567 21.837 5.916 13.224 8.7 5.568"/>
                    <path fill="#FFF" fill-rule="nonzero" stroke="#231F20" stroke-linejoin="round" stroke-width=".653" d="M50.373 141.288c-.261.087-.522.174-.696.174-.261 0-.609-.174-.783-.087-.174.087-.261.261-.261.435-.174.087-.348-.174-.522-.348-.261-.174-.522.087-.609.348-.087.261-.087.522-.261.783-.087-.348-.174-.696-.348-1.044-.348.087-.435.696-.783.609-.174 0-.261-.261-.435-.435-.087-.174-.348-.348-.435-.174-.174.087-.087.348-.087.522-.087.261-.435.261-.609.087-.174-.174-.261-.435-.348-.696-.087.435-.174.87-.261 1.392-.261-.087-.348-.435-.522-.783-.174-.261-.609-.522-.696-.261-.087.087-.087.174-.087.261-.174.174-.435-.087-.609-.348-.174.174-.348.435-.435.696-.261-.087-.174-.522-.435-.696-.174-.174-.522 0-.609.261-.087.261-.174.522-.348.696-.261-.348-.435-.696-.522-1.131-.261.174-.435.348-.522.609v-.87c0-.087 0-.174-.087-.174-.087-.087-.087 0-.174 0-.435.087-.609.696-.696 1.131-.087.174-.261.348-.348.261 0 0-.087-.087-.087-.174-.087-.696-.087-.957-.783-1.218"/>
                    <path fill="#231F20" fill-rule="nonzero" d="M12.789 13.311c.174-2.436 1.566-4.35.174-6.699-.087-.087-.174-.087-.174.087-.174 2.784-1.044 5.394-1.566 8.091 0 .174.174.174.174.087.435-2.262.87-4.698 1.479-6.96.261-.87.261-.435.435.174.174.783.087 1.566-.087 2.349-.261.957-.609 1.914-.696 2.871.087.174.261.174.261 0zM19.14 16.182c.174-2.523.609-5.394-.087-7.917 0-.087-.174-.087-.174 0-.348 3.393-1.131 6.786-1.74 10.179 0 .174.174.174.174.087.522-2.871.957-5.916 1.566-8.7.174-.696 0-1.218.174-.174.087.696 0 1.479 0 2.175 0 1.479-.087 2.871-.174 4.35.087.087.261.087.261 0zM34.278 16.095c-.261-1.566-.522-3.132-.696-4.611-.087-.609-.261-1.218-.174-1.827.174-1.479.348.435.435.783.696 2.61 1.653 5.133 2.436 7.743 0 .174.261.087.174-.087-1.044-3.306-2.262-6.525-2.958-9.918 0-.087-.174-.087-.174 0-.435 2.523.348 5.394.696 7.917 0 .174.261.174.261 0zM39.324 10.614c0-1.131-.087-2.262-.087-3.393 0-.087-.174-.174-.174 0-.522 1.653-.957 3.306-1.044 4.959-.087 1.218-.087 2.61-.348 3.828 0 .174.174.174.174.087.261-1.218.261-2.61.348-3.915.087-1.044.261-2.001.522-3.045.087-.261.261-1.218.348-1.218-.174.087.087 2.436.087 2.697 0 .087.174.087.174 0zM27.927 12.702v-2.436c0-.435 0-.783-.087-1.044.174.261.174.696.174 1.044.261 1.566.348 3.132.522 4.698 0 .174.261.174.261 0-.261-2.088-.435-4.176-.783-6.264 0-.087-.174-.087-.174 0 0 1.305 0 2.61-.087 3.915 0 .174.174.174.174.087zM21.489 12.876c0-.261.261-3.132.087-3.132.261.087.522 1.044.696 1.479.435 1.218.696 2.349.783 3.654.087 1.479 0 3.219.435 4.698 0 .174.261.087.174-.087-.348-1.479-.348-3.132-.435-4.611-.174-2.088-.87-4.002-1.653-5.916-.087-.087-.174-.087-.174 0 0 1.305-.087 2.61-.087 3.915 0 .174.174.174.174 0zM15.573 13.398c0-1.305.087-2.61.087-3.915 0-.087-.087-1.479-.087-1.653-.174.348.261 1.305.348 1.653.435 2.436.609 4.872.87 7.395 0 .174.261.174.261 0-.435-3.306-.696-6.438-1.392-9.744 0-.087-.174-.087-.174 0 0 2.088-.087 4.089-.087 6.177-.087.261.174.261.174.087z"/>
                    <path stroke="#231F20" stroke-linejoin="round" stroke-width=".5" d="M8.961 5.481c-.087.261.522.435.609.174.087.174.087.348.174.609.174-.174.261-.435.435-.609 0 .261.087.522.261.696l.783-.783c.087.348.261.609.348.957l.522-.522c.087.261.174.522.261.696.261-.087.522-.261.696-.435.087.261.174.435.261.696.174-.174.261-.348.435-.435-.087.348.087.609.261.87.087-.261.261-.435.522-.609 0 .348.087.609.348.87.174-.261.261-.435.435-.696-.087.348.261.783.696.783l.261.522c.174-.174.348-.348.435-.609-.174.261 0 .696.348.696s.609-.348.522-.609c.174.348.435.522.783.696.087-.261.261-.522.348-.783.087.261.174.609.348.87.087.174.174.435.348.348.348 0 .174-.696.435-.87.174.522.435.957.87 1.218.174-.348.348-.696.435-1.044.174.435.522.783.87 1.044.087-.261.348-.609.609-.696.261-.087.696.174.609.435.174-.174.261-.348.435-.522 0 .435.783.522.87.087.087.435.696.522.87.174.174.174.261.435.435.609.261-.174.435-.348.609-.609l.261.522c.261-.087.435-.261.435-.435.174.435.957.261.957-.174.174.174.348.435.522.609.087.087.174.174.261.174.348 0 .087-.696.435-.87.174.174.348.348.348.522.261-.261.522-.435.783-.696.087.261.348.522.609.522s.522-.261.609-.522c0 .174.261.174.435.087s.261-.261.435-.261c.261-.087.522.261.609.522.261-.261.435-.522.696-.783.087.174.261.348.348.609.087-.174.261-.435.348-.609.174.174.435.348.696.348.261 0 .522-.261.435-.522.174.174.348.261.522.435.174-.261.261-.522.435-.696.087.261.261.435.435.435.087-.261.174-.609.261-.87.174.174.261.348.435.435.087-.261.174-.435.261-.696 0 .348.348.609.696.609.348-.087.522-.522.348-.783.261.261.522.435.783.609 0-.174.087-.348.087-.522.348.174.696.435 1.044.609-.087-.348-.261-.609-.348-.957.261.348.609.696 1.044.87v-.957c.174.348.435.609.609.957.087-.261.087-.522.174-.783l.609.609c.087-.261.087-.609.174-.87.261.348.522.696.87.957.087-.261.174-.522.174-.87.261.087.522.174.783.435.174-.087.261-.261.348-.522l.261.261c.087-.174.174-.435.261-.609.174.174.348.261.522.435l.261-.783c.261.261.783.174.87-.174"/>
                    <path fill="#231F20" fill-rule="nonzero" d="M40.89 7.047c.174 1.827.174 3.654.087 5.481s-.261 3.654-.609 5.481c0-1.827.087-3.654.174-5.481s.174-3.654.348-5.481zM30.189 8.7c.348 1.479.609 2.958.783 4.437l.522 4.437.261 2.262.174 1.131c0 .174.087.348.087.522v.087l-.087-.087c-.087 0-.174 0-.174.087v-.174c.174-1.479.174-2.958.261-4.437.087 1.479.174 2.958.087 4.524 0 .087 0 .174-.087.348 0 0-.174.174-.174.087-.087 0-.087-.087-.087-.087 0-.087 0-.087-.087-.087 0-.087 0-.087-.087-.174-.087-.174-.087-.348-.087-.522l-.174-1.218-.261-2.262-.435-4.437c-.087-1.479-.261-2.958-.435-4.437zM26.013 8.7c0 1.044 0 2.088.087 3.132l.087 3.132c0 1.044.087 2.088 0 3.132 0 1.044 0 2.088-.174 3.132-.087-2.088-.261-4.176-.261-6.177v-3.132c0-1.218.087-2.262.261-3.219zM24.708 8.265c.087.87.087 1.74 0 2.523-.087.87-.174 1.653-.348 2.523-.087-.87-.087-1.74 0-2.523 0-.87.087-1.74.348-2.523zM35.061 7.482c.435.783.783 1.566 1.044 2.349.261.783.522 1.653.696 2.436-.435-.783-.783-1.566-1.044-2.349-.348-.783-.522-1.566-.696-2.436zM14.877 6.873c.087.696.087 1.392 0 2.088-.087.696-.174 1.392-.435 2.088-.087-.696-.087-1.392 0-2.088.087-.696.261-1.392.435-2.088zM43.587 6.786c.174 1.131.522 2.175.783 3.219.348 1.044.696 2.088.87 3.219-.522-.957-.957-2.001-1.305-3.132-.174-.522-.261-1.131-.348-1.653-.087-.522-.087-1.131 0-1.653zM42.021 7.134c.522 1.74.87 3.567 1.131 5.394s.435 3.654.435 5.481c-.348-1.827-.609-3.654-.87-5.394-.261-1.914-.522-3.654-.696-5.481z"/>
                    <path stroke="#231F20" stroke-linejoin="round" stroke-width=".87" d="M4.089 22.707s5.916-4.698 7.482-16.356M52.809 22.707s-5.916-4.698-7.482-16.356M8.961 5.829c.348-1.305.609-2.61.957-3.915.087-.261.174-.609.435-.783.261-.174.696.087.609.348.174-.261.435-.435.783-.522-.261.261.174.783.522.696.348-.087.609-.522.783-.87.087.261.261.522.435.783.087-.087.261-.174.348-.348.174.174.348.348.522.609.348-.261.609-.522.783-.87.435 0 .261.87.696.87.348 0 .348-.696.696-.783.435-.087.522.957.957.87.174-.087.261-.348.435-.435.174-.087.348.087.522.174.522.348 1.218.435 1.827.348 0 .261.261.609.522.609s.609-.174.609-.522c.174.435.696.609 1.044.435.348-.174.609-.522.957-.522.435.087.522.609.87.87.522.261.957-.261 1.305-.783.261.348.522.609.87.87.348.174.87.174 1.131-.087.174-.087.261-.261.435-.348.348-.087.609.348.696.696.522.087.609-1.131 1.131-.957.174.087.261.174.348.261.261.087.435-.348.696-.522.435-.348 1.044 0 1.479.435.261-.348.522-.609.783-.957.261.261.435.435.696.609.261.087.696.087.87-.174.174-.261.348-.696.696-.609.087 0 .174.174.261.261.348.522 1.044.783 1.653.522.087-.174.087-.348.174-.522.087.435.522.696.957.609.435-.087.696-.522.696-.957.174.348.522.696.957.696.435 0 .783-.348.696-.696.261.174.522.348.783.609.087-.261.261-.609.435-.87l.783.783c.087-.348.435-.435.783-.261.261.174.435.435.609.696.174-.261.261-.609.261-.957.174.087.261.174.435.261.261.087.261-.522.522-.609.261-.087.435.174.522.435.522 1.392 1.131 2.784 1.653 4.263"/>
                    <g fill="#231F20" fill-rule="nonzero">
                        <path d="M.783.783c0 .348-.087.783-.087 1.131L.522 3.045.348 4.089c-.087.348-.087.696-.174 1.131 0-1.566.174-3.045.609-4.437zM2.262.87c0 .261.087.609.087.87v.87c0 .261-.087.609-.087.87-.087.261-.087.522-.261.87 0-1.218.087-2.349.261-3.48zM3.741.435c.087.261.087.609.087.87v.87c0 .261 0 .609-.087.87 0 .261-.087.609-.174.87.087-1.218.174-2.349.174-3.48zM4.872.957c.087.348.174.609.174.957.087.348.087.696.087.957v.957c0 .348-.087.696-.087.957-.087-1.131-.174-2.523-.174-3.828zM6.177.522c.087.522.087.957.174 1.479v2.958c0 .522-.087.957-.174 1.479V.522zM7.482 1.218c.087.435.174.87.261 1.392.087.435.087.957.087 1.392 0 .435 0 .957-.087 1.392 0 .435-.087.957-.174 1.392.087-1.914 0-3.741-.087-5.568zM9.309 1.566c.087.435.174.87.174 1.305v1.305c0 .435-.087.87-.087 1.305l-.261 1.305c.174-1.74.261-3.48.174-5.22zM12.702 2.523c.087.435.087.87.087 1.305v1.305c0 .435 0 .87-.087 1.305 0 .435-.087.87-.174 1.305.087-1.74.087-3.48.174-5.22zM10.962 1.74c.087.435.087.87.174 1.305 0 .435 0 .87.087 1.305v1.305c0 .435-.087.87-.087 1.305-.174-1.74-.174-3.48-.174-5.22zM14.703 2.523c0 .435.087.957.087 1.392v1.392c0 .435-.087.957-.087 1.392-.087.435-.087.957-.174 1.392l.174-5.568zM16.095 2.088c.087.522.087 1.044.087 1.566V5.22c0 .522-.087 1.044-.087 1.566s-.087 1.044-.174 1.566l.174-6.264zM17.226 2.001c.087.522.261.957.348 1.479.087.522.174.957.261 1.479.087 1.044.261 2.088 0 3.045.087-1.044 0-2.001-.174-3.045-.174-.957-.348-1.914-.435-2.958zM20.01 2.784c.087.348.174.609.174.957.087.348.087.609.087.957s0 .609-.087.957c0 .348-.087.609-.174.957.087-1.218.087-2.523 0-3.828zM22.011 2.088c.087.261.174.609.261.87.087.348.087.609.087.957v.957c0 .348-.087.609-.174.957 0-1.218-.087-2.436-.174-3.741zM24.273 1.566c.087.348.174.783.261 1.131.087.348.087.783.087 1.131v1.131c0 .348-.087.783-.174 1.131 0-1.479-.087-3.045-.174-4.524zM25.665.348c.087.348.261.783.348 1.131.087.435.174.783.174 1.218 0 .435.087.783.087 1.218v1.218c-.174-1.566-.435-3.219-.609-4.785zM28.275 1.392c.261.348.435.696.609 1.044.174.348.348.696.435 1.044.087.348.261.783.348 1.131.087.348.174.783.174 1.131-.348-1.392-.87-2.871-1.566-4.35zM30.624.435c.348.783.522 1.653.609 2.523.087.435.087.87.087 1.305.087.435.087.87.261 1.218h-.087c.174-.087.261-.261.348-.522 0 .261-.087.435-.261.609-.261-.348-.261-.783-.348-1.218l-.087-1.305c-.174-.957-.348-1.74-.522-2.61zM34.017 1.218c.087.261.087.522.174.783s.087.522.174.783c0 .261.087.522.087.783.087.261.087.522.087.783-.435-1.044-.609-2.088-.522-3.132zM32.625 1.218c.087.348.087.783.174 1.131l.174 1.131c0 .348.087.783.087 1.131.087.348.087.783.087 1.131-.348-1.392-.522-2.958-.522-4.524zM34.8.609c.348 0 .435.435.435.696 0 .261.087.522.087.783v.783l.087.783c-.174-.522-.261-1.044-.261-1.566v-.783c0-.174 0-.261-.087-.435-.087-.087-.174-.261-.261-.261zM27.057 2.088c.348 0 .435.435.435.696 0 .261.087.522.087.783v.783l.087.783c-.174-.522-.261-1.044-.261-1.566v-.783c0-.174 0-.261-.087-.435-.087-.087-.174-.261-.261-.261z" transform="translate(10.44 .87)"/>
                    </g>
                    <g fill="#231F20" fill-rule="nonzero">
                        <path d="M1.392.174c.087.435.087.87 0 1.305-.087.435-.087.87-.087 1.305.087.87 0 1.74-.174 2.61-.087-.87-.087-1.74 0-2.61.087-.435 0-.87 0-1.305L1.392.174zM1.914.348c.087.348.087.783.087 1.131-.087.348-.087.783-.087 1.131.087.783.087 1.566-.087 2.349-.087-.783-.087-1.566 0-2.349.087-.348 0-.783 0-1.131-.087-.435 0-.783.087-1.131zM2.349.522c.087.435.087.87.087 1.305-.087.435-.087.87 0 1.305.087.87.087 1.74-.087 2.523-.087-.87-.087-1.74 0-2.523.087-.435 0-.87 0-1.305-.087-.522-.087-.87 0-1.305zM2.784 1.044c.087.435.087.783.087 1.218 0 .435-.087.783 0 1.218.087.783.087 1.653 0 2.436-.174-.783-.174-1.653-.087-2.436.087-.435 0-.783-.087-1.218-.087-.435-.087-.87.087-1.218z" transform="translate(6.09 141.81)"/>
                        <path d="M3.393.783c.087.522.087.957 0 1.479-.087.522-.174.957-.174 1.479-.087.957-.087 1.914-.261 2.958-.174-.957-.087-2.001.174-2.958.087-.522.174-.957.087-1.479.087-.522.087-1.044.174-1.479zM3.654.87c.087.522.087.957.087 1.479-.087.522-.087.957 0 1.479.087.957.087 1.914-.087 2.958-.087-.957-.087-1.914 0-2.958.087-.522 0-.957 0-1.479-.174-.522-.174-1.044 0-1.479zM4.176 1.305c.087.435.087.87.087 1.305-.087.435-.087.87 0 1.305.087.87.087 1.653 0 2.523-.174-.87-.087-1.653-.087-2.523.087-.435 0-.87 0-1.305-.087-.522-.087-.957 0-1.305zM5.307 1.131c.087.522.087.957.087 1.479 0 .522 0 .957.087 1.479.174.957.174 2.001.087 2.958-.087-.957-.174-2.001-.174-2.958 0-.522-.087-.957-.087-1.479-.087-.522-.087-1.044 0-1.479zM4.785 1.566c.087.435.087.87.087 1.305 0 .435-.087.87 0 1.305.087.87.174 1.74 0 2.523-.174-.87-.174-1.74-.087-2.523 0-.435 0-.87-.087-1.305-.087-.435 0-.87.087-1.305zM5.916 1.392c.087.435.087.957.087 1.392 0 .435-.087.957 0 1.392.087.957.087 1.914-.087 2.784-.087-.957-.087-1.827 0-2.784.087-.435 0-.957-.087-1.392 0-.435 0-.87.087-1.392zM6.438 1.74c.087.435.087.87.087 1.305-.087.435-.087.87 0 1.305.087.87.087 1.74-.087 2.61-.087-.87-.087-1.74 0-2.61.087-.435 0-.87 0-1.305-.087-.435-.087-.87 0-1.305zM7.047 1.131c.087.522.087.957.087 1.479-.087.522-.087.957 0 1.479.087.957.087 2.001-.087 2.958-.174-.957-.087-2.001-.087-2.958.087-.522 0-.957 0-1.479 0-.522 0-1.044.087-1.479zM7.743 1.392c.087.435.087.87.087 1.392-.087.435-.087.87-.087 1.392.087.87 0 1.827-.087 2.697-.087-.87-.087-1.827 0-2.697.087-.435 0-.87 0-1.392-.087-.435 0-.87.087-1.392zM8.439 2.088c.087.435.087.87.087 1.305 0 .435-.087.87 0 1.305.087.87.087 1.653 0 2.523-.174-.87-.174-1.653-.087-2.523.087-.435 0-.87 0-1.305-.174-.522-.087-.87 0-1.305zM9.135 1.305c.087.435.087.87.087 1.392 0 .435-.087.87 0 1.392.087.87.087 1.827 0 2.697-.174-.87-.174-1.827-.087-2.697.087-.435 0-.87 0-1.392-.087-.435-.087-.957 0-1.392zM9.657.696c.087.435.087.957.087 1.392 0 .435-.087.957 0 1.392.087.957.174 1.827.087 2.784-.174-.957-.174-1.827-.174-2.784 0-.435 0-.957-.087-1.392 0-.522 0-.957.087-1.392zM10.527 1.131c.087.435.174.87.174 1.305 0 .435 0 .87.087 1.305.174.87.261 1.74.174 2.61-.174-.87-.261-1.74-.261-2.523 0-.435-.087-.87-.174-1.305-.087-.522-.087-.957 0-1.392z" transform="translate(6.09 141.81)"/>
                        <path d="M11.049.522l.261 1.305c.087.435.087.87.087 1.305.087.435.174.87.174 1.305 0 .522-.261.87-.261 1.305h-.174c0-.087.087-.087.087-.087h.087s.087 0 .087.087l.087.087.087.087.087-.087c0 .087 0 .087-.087.174h-.174l-.174-.087h-.261c-.087-.261 0-.522.087-.696.087-.174.087-.435.174-.609V3.306c0-.435-.174-.87-.261-1.305.087-.609 0-1.044.087-1.479zM12.354.87c.087.348.087.696.087 1.044 0 .348-.087.696 0 1.044.087.696.174 1.392.087 2.088-.174-.696-.174-1.392-.174-2.088 0-.348 0-.696-.087-1.044 0-.348 0-.696.087-1.044zM11.919.87c.087.348.087.783.087 1.131-.087.348-.087.783 0 1.131.087.783.087 1.479 0 2.262-.174-.783-.174-1.566-.087-2.262.087-.348 0-.783 0-1.131-.087-.435-.087-.783 0-1.131zM12.615 0c.261.348.174.696.174 1.044 0 .348-.087.696 0 1.044.087.696.174 1.392 0 2.088-.174-.696-.174-1.392-.087-2.088 0-.348 0-.696-.087-1.044 0-.348.087-.783 0-1.044zM10.092 2.001v-.087c.087 0 0 0 0 .087.087 0 .087 0 .087.087s0 .174.087.261v.522c0 .348-.087.783 0 1.131.087.696.174 1.479 0 2.175-.174-.696-.174-1.479-.174-2.175 0-.348 0-.696-.087-1.131v-.522l.087-.348s-.087-.087 0 0c0-.087 0 0 0 0z" transform="translate(6.09 141.81)"/>
                    </g>
                    <g fill="#231F20" fill-rule="nonzero">
                        <path d="M12.354.261c.087.435.087.87.087 1.305 0 .435-.087.87 0 1.305.087.87.174 1.74 0 2.61-.174-.87-.174-1.74-.174-2.61 0-.435 0-.87-.087-1.305.087-.435.087-.87.174-1.305zM11.832.348c.087.348.087.783.087 1.131s-.087.783 0 1.131c.087.783.087 1.566 0 2.349-.174-.783-.174-1.566-.087-2.349 0-.348 0-.783-.087-1.131 0-.348 0-.696.087-1.131zM11.397.609c.087.435.087.87.087 1.305 0 .435-.087.87 0 1.305.087.87.087 1.74 0 2.523-.174-.87-.174-1.74-.087-2.523.087-.435 0-.87 0-1.305-.087-.522-.087-.957 0-1.305zM11.049 1.044c.087.435.087.783.087 1.218-.087.435-.087.783-.087 1.218.087.783.087 1.653-.087 2.436-.087-.783-.087-1.653 0-2.436.087-.435 0-.783 0-1.218-.087-.348 0-.783.087-1.218zM10.353.783c.087.522.087.957.087 1.479 0 .522 0 .957.087 1.479.174.957.261 2.001.174 2.958-.087-.957-.174-1.914-.261-2.958 0-.522-.087-.957-.174-1.479 0-.435 0-.957.087-1.479z" transform="translate(36.54 140.94)"/>
                        <path d="M10.179.957c.087.522.087.957.087 1.479-.087.522-.087.957 0 1.479.087.957.087 1.914 0 2.958-.174-.957-.087-1.914-.087-2.958.087-.522 0-.957 0-1.479-.174-.522-.174-1.044 0-1.479zM9.57 1.305c.087.435.087.87.087 1.305-.087.435-.087.87 0 1.305.087.87.087 1.653-.087 2.523-.087-.87-.087-1.653 0-2.523.087-.435 0-.87 0-1.305-.174-.435-.087-.87 0-1.305zM8.439 1.131c.087.522.087.957.087 1.479-.087.522-.087.957-.087 1.479 0 .957 0 2.001-.174 2.958-.174-.957-.087-2.001.087-2.958.087-.522.087-.957.087-1.479-.174-.435-.087-.957 0-1.479zM9.048 1.653c.087.435.087.87.087 1.305-.087.435-.087.87-.087 1.305 0 .87 0 1.74-.087 2.523-.174-.87-.087-1.74 0-2.523.087-.435.087-.87 0-1.305-.087-.435-.087-.87.087-1.305zM7.83 1.479c.087.435.087.957.087 1.392-.087.435-.087.957-.087 1.392.087.957.087 1.827 0 2.784-.174-.957-.174-1.914-.087-2.784.087-.435 0-.957 0-1.392 0-.435 0-.87.087-1.392zM7.308 1.827c.087.435.087.87.087 1.305 0 .435-.087.87 0 1.305.087.87.087 1.74 0 2.61-.174-.87-.174-1.74-.087-2.61.087-.435 0-.87 0-1.305-.087-.435-.087-.87 0-1.305zM6.699 1.218c.087.522.087.957.087 1.479-.087.522-.087.957 0 1.479.087.957.087 2.001-.087 2.958-.174-.957-.087-2.001-.087-2.958.087-.522 0-.957 0-1.479 0-.522 0-1.044.087-1.479zM6.003 1.479c.087.435.087.87.087 1.392 0 .435-.087.87 0 1.392.087.87.087 1.827 0 2.697-.174-.87-.174-1.827-.087-2.697 0-.435 0-.87-.087-1.392 0-.435 0-.957.087-1.392zM5.307 2.175c.087.435.087.87.087 1.305-.087.435-.087.87 0 1.305.087.87.087 1.653-.087 2.523-.087-.87-.087-1.653 0-2.523.087-.435 0-.87 0-1.305-.087-.522-.087-.957 0-1.305zM4.611 1.392c.087.435.087.87.087 1.392-.087.435-.087.87 0 1.392.087.87.087 1.827-.087 2.697-.087-.87-.087-1.827 0-2.697.087-.435 0-.87 0-1.392-.087-.522-.087-.957 0-1.392zM4.089.696c.087.435.087.957 0 1.392-.087.435-.087.957-.087 1.392 0 .957 0 1.827-.174 2.784-.087-.957-.087-1.827.087-2.784.087-.435.087-.957 0-1.392 0-.435.087-.87.174-1.392zM3.306 1.218v1.305c-.087.435-.174.87-.174 1.305 0 .87-.087 1.74-.261 2.523-.087-.87 0-1.74.174-2.61.087-.435.087-.87.087-1.305-.087-.435 0-.87.174-1.218zM2.697.609c0 .435 0 .87-.087 1.305l-.261 1.305v1.305c0 .174.087.435.174.609s.087.435.087.696h-.174c.087.087.087 0 0 0h-.087l-.174.087c-.087 0-.087.087-.174 0s0-.087-.087-.174c0 .087 0 .087.087.087 0 0 .087 0 .087-.087l.087-.087.087-.087h.087s.087 0 .087.087h-.174c.087-.435-.261-.783-.261-1.305 0-.435.087-.87.174-1.305.087-.435.087-.87.087-1.305.261-.261.348-.696.435-1.131zM1.392.957c.087.348.087.696 0 1.044-.087.348-.087.696-.087 1.044 0 .696 0 1.392-.174 2.088-.087-.696-.087-1.392.087-2.088.087-.348.087-.696 0-1.044 0-.435.087-.696.174-1.044z" transform="translate(36.54 140.94)"/>
                        <path d="M1.827.957c.087.348.087.783.087 1.131s-.087.783 0 1.131c.087.783.087 1.566-.087 2.262-.087-.783 0-1.566 0-2.262.087-.348 0-.783 0-1.131-.087-.435-.087-.783 0-1.131zM.783.435c.087-.087.174 0 .261.087.087.087.087.174.087.261v.522c-.087.348-.087.696 0 1.044.087.696 0 1.305-.174 2.001-.087-.696 0-1.305 0-2.001.087-.348.087-.696 0-1.044V.783c0-.174 0-.348-.174-.348zM3.654 2.088c0-.087-.087-.087 0 0 0-.087 0-.087 0 0v.87c-.087.348-.087.696-.087 1.131.087.696 0 1.479-.174 2.175-.087-.783-.087-1.479 0-2.175.087-.348 0-.696 0-1.131v-.522c0-.087 0-.174.087-.261.087-.087.087-.087.174-.087-.087-.087-.087-.087 0-.087s0 0 0 .087z" transform="translate(36.54 140.94)"/>
                    </g>
                    <circle cx="25.578" cy="6.003" r="1" fill="#FFF" fill-rule="nonzero" stroke="#231F20" stroke-linejoin="round" stroke-width=".653"/>
                    <circle cx="29.928" cy="6.003" r="1" fill="#FFF" fill-rule="nonzero" stroke="#231F20" stroke-linejoin="round" stroke-width=".653"/>
                    <path fill="#FFF" fill-rule="nonzero" stroke="#231F20" stroke-dasharray=".435" stroke-linejoin="round" stroke-width=".5" d="M27.927 40.977L27.927 8.7"/>
                    <g fill="#231F20" fill-rule="nonzero">
                        <path d="M2.001 17.574c-.087-1.131-.609-2.088-.783-3.132-.261-1.044-.435-2.175-.696-3.219-.435-2.175-.609-4.35-.435-6.525.087 2.175.261 4.35.522 6.525.174 1.044.348 2.175.696 3.132l.435 1.566c.174.522.261 1.131.261 1.653zM7.83 17.313l.435-4.176c.174-1.392.261-2.784.261-4.176 0-2.784 0-5.568-.087-8.265.348 2.784.348 5.568.174 8.352l-.261 4.176c-.087 1.305-.261 2.697-.522 4.089zM5.394 17.4c-.174-.435-.261-.87-.348-1.305 0-.435-.087-.87-.174-1.305-.174-.87-.261-1.827-.261-2.697.174.87.261 1.74.348 2.697 0 .435.087.87.261 1.305.174.435.174.87.174 1.305zM10.092 17.574c.174-.609.348-1.218.609-1.74.261-.609.435-1.131.609-1.74.261-1.218.522-2.436.87-3.654-.087 1.218-.435 2.436-.783 3.654-.261.609-.348 1.218-.522 1.827-.174.609-.435 1.131-.783 1.653z" transform="translate(37.41 124.41)"/>
                    </g>
                    <g fill="#231F20" fill-rule="nonzero">
                        <path d="M10.527 16.965c-.087-.522.087-1.131.174-1.653l.435-1.566c.348-1.044.609-2.088.696-3.132.261-2.175.435-4.35.522-6.525.174 2.175 0 4.35-.435 6.525-.261 1.044-.435 2.175-.696 3.219-.087 1.131-.609 2.088-.696 3.132zM4.698 16.704c-.261-1.392-.435-2.697-.522-4.089l-.261-4.176c-.174-2.784-.087-5.568.174-8.352-.087 2.784-.087 5.568-.087 8.265 0 1.392.087 2.784.261 4.176l.435 4.176zM7.047 16.791c0-.435.087-.87.174-1.305.087-.435.261-.87.261-1.305.087-.87.174-1.827.348-2.697.087.87 0 1.827-.261 2.697-.087.435-.174.87-.174 1.305 0 .522-.087.957-.348 1.305zM2.436 17.052c-.348-.522-.522-1.131-.783-1.74l-.522-1.827C.696 12.354.435 11.049.348 9.831c.348 1.218.609 2.436.87 3.654.087.609.348 1.218.609 1.74.261.609.435 1.218.609 1.827z" transform="translate(6.09 125.28)"/>
                    </g>
                    <path fill="#231F20" fill-rule="nonzero" d="M25.926 31.407c-.957-8.265-.87-16.53.348-24.795.087-.696-.957-.957-1.044-.261-1.218 8.352-1.392 16.704-.435 25.143.087.609 1.218.609 1.131-.087zM30.624 31.407c1.044-8.439.87-16.704-.435-25.143-.087-.696-1.131-.435-1.044.261 1.218 8.265 1.305 16.53.348 24.795-.087.783 1.044.783 1.131.087z"/>
                </g>
                <path fill="#000" fill-rule="nonzero" d="M33.369 200.384c-.551 0-.985-.08-1.301-.238v-1.274c.416.117.85.176 1.3.176.58 0 1.022-.176 1.323-.527.302-.352.453-.859.453-1.521v-12.85h1.494v12.727c0 1.113-.281 1.976-.844 2.588-.562.613-1.37.919-2.425.919zm17.833-9.826c0 2.056-.52 3.673-1.56 4.851s-2.486 1.767-4.338 1.767c-1.892 0-3.353-.579-4.381-1.736s-1.543-2.79-1.543-4.9c0-2.092.516-3.713 1.547-4.865 1.032-1.151 2.496-1.727 4.395-1.727 1.845 0 3.287.586 4.324 1.758 1.037 1.172 1.556 2.79 1.556 4.852zm-10.24 0c0 1.74.371 3.06 1.112 3.96.741.899 1.818 1.348 3.23 1.348 1.424 0 2.5-.448 3.226-1.345.726-.896 1.09-2.217 1.09-3.963 0-1.729-.362-3.04-1.086-3.933-.723-.894-1.794-1.34-3.212-1.34-1.424 0-2.507.449-3.248 1.348-.741.9-1.112 2.208-1.112 3.925zm18.756-.29h4.368v6.249c-.68.216-1.37.38-2.074.492-.703.111-1.517.167-2.443.167-1.945 0-3.46-.579-4.544-1.736-1.084-1.157-1.626-2.779-1.626-4.865 0-1.336.268-2.506.804-3.511.536-1.005 1.308-1.772 2.316-2.303 1.008-.53 2.189-.795 3.542-.795 1.371 0 2.648.252 3.832.756l-.58 1.318c-1.16-.492-2.276-.738-3.349-.738-1.564 0-2.786.466-3.665 1.397-.879.932-1.318 2.224-1.318 3.876 0 1.735.423 3.05 1.27 3.946.847.897 2.09 1.345 3.73 1.345.892 0 1.762-.102 2.611-.307v-3.955h-2.874v-1.336zm13.105 0h4.368v6.249c-.68.216-1.371.38-2.074.492-.703.111-1.518.167-2.444.167-1.945 0-3.46-.579-4.544-1.736-1.084-1.157-1.626-2.779-1.626-4.865 0-1.336.268-2.506.805-3.511.536-1.005 1.308-1.772 2.316-2.303 1.007-.53 2.188-.795 3.542-.795 1.37 0 2.648.252 3.832.756l-.58 1.318c-1.16-.492-2.277-.738-3.35-.738-1.564 0-2.785.466-3.664 1.397-.88.932-1.319 2.224-1.319 3.876 0 1.735.424 3.05 1.27 3.946.847.897 2.09 1.345 3.731 1.345.891 0 1.761-.102 2.61-.307v-3.955h-2.873v-1.336zM87.439 197h-7.163v-12.85h7.163v1.328H81.77v4.14h5.326v1.318H81.77v4.728h5.669V197zm4.342-5.344V197h-1.494v-12.85h3.524c1.576 0 2.74.302 3.494.906.753.603 1.13 1.511 1.13 2.724 0 1.7-.862 2.848-2.585 3.446L99.34 197h-1.767l-3.112-5.344h-2.68zm0-1.283h2.048c1.054 0 1.828-.21 2.32-.628.492-.42.738-1.048.738-1.886 0-.85-.25-1.462-.751-1.837s-1.305-.562-2.413-.562h-1.942v4.913zm16.884 3.208c0 1.13-.41 2.013-1.23 2.646-.821.632-1.935.949-3.34.949-1.524 0-2.696-.197-3.516-.59v-1.44c.527.222 1.101.398 1.722.527s1.237.193 1.846.193c.996 0 1.746-.189 2.25-.567.504-.378.756-.903.756-1.577 0-.446-.09-.81-.268-1.095-.179-.284-.478-.546-.897-.786-.419-.24-1.056-.513-1.911-.818-1.196-.427-2.05-.934-2.562-1.52-.513-.586-.77-1.35-.77-2.294 0-.99.373-1.778 1.117-2.364.744-.586 1.728-.88 2.953-.88 1.277 0 2.452.235 3.524.704l-.465 1.3c-1.061-.445-2.092-.667-3.094-.667-.791 0-1.41.17-1.855.51-.445.34-.668.811-.668 1.415 0 .445.082.81.246 1.094.164.284.441.545.831.782.346.211.856.442 1.529.692l.26.095c1.347.48 2.274.996 2.781 1.547.507.55.76 1.265.76 2.144z"/>
            </g>
        </g>
    </g>
</svg>
