<svg xmlns="http://www.w3.org/2000/svg" width="144" height="210" viewBox="0 0 144 210">
    <g fill="none" fill-rule="evenodd">
        <g>
            <g transform="translate(-626 -163) translate(626 163)">
                <rect width="144" height="210" fill="#F4F4F4" rx="4"/>
                <path fill="#000" fill-rule="nonzero" d="M55.693 197l-4.36-11.39h-.07c.082.902.123 1.974.123 3.216V197h-1.38v-12.85h2.25l4.07 10.6h.07l4.104-10.6h2.233V197h-1.494v-8.28c0-.949.04-1.98.123-3.093h-.07L56.897 197h-1.204zm21.718-6.442c0 2.056-.52 3.673-1.56 4.851s-2.486 1.767-4.338 1.767c-1.892 0-3.353-.579-4.381-1.736s-1.543-2.79-1.543-4.9c0-2.092.516-3.713 1.547-4.865 1.031-1.151 2.496-1.727 4.395-1.727 1.845 0 3.287.586 4.324 1.758 1.037 1.172 1.556 2.79 1.556 4.852zm-10.24 0c0 1.74.371 3.06 1.112 3.96.741.899 1.818 1.348 3.23 1.348 1.424 0 2.5-.448 3.226-1.345.726-.896 1.09-2.217 1.09-3.963 0-1.729-.362-3.04-1.086-3.933-.723-.894-1.794-1.34-3.212-1.34-1.424 0-2.507.449-3.248 1.348-.741.9-1.112 2.208-1.112 3.925zM85.962 197l-4.359-11.39h-.07c.082.902.123 1.974.123 3.216V197h-1.38v-12.85h2.25l4.07 10.6h.07l4.104-10.6h2.232V197h-1.494v-8.28c0-.949.041-1.98.123-3.093h-.07L87.167 197h-1.205z"/>
                <g>
                    <path stroke="#231F20" stroke-width=".92" d="M6.716 6.348s9.752 3.588 22.356 3.312C41.676 9.384 51.52 5.704 51.52 5.704" transform="translate(43 16)"/>
                    <path fill="#231F20" fill-rule="nonzero" d="M4.232 18.768c2.76.828 6.256-.184 8.556-1.932 2.484-1.84 3.496-4.876 4.324-7.728.184-.736-.92-1.012-1.104-.276-.736 2.208-1.38 4.784-3.128 6.44-2.024 1.932-5.612 3.22-8.28 2.392-.828-.184-1.104.92-.368 1.104z" transform="translate(43 16)"/>
                    <path stroke="#231F20" stroke-width=".92" d="M29.072 48.576l-3.956 45.632-1.196 15.18v2.208c-.276 9.292-.368 18.584-.092 27.876l-.368 2.852c0 1.104.092 2.116.092 3.22 0 .368 0 .828-.276 1.104-.184.184-.46.276-.644.368-5.796 1.748-12.144 2.024-17.756-.184 0-1.104-.184-2.208-.552-3.312l-.552-2.484c-.828-8.556-1.196-17.112-1.104-25.668l-.368-2.76c.092-4.232.092-8.556.184-12.788.092-3.312.092-6.624-.644-9.844-.092-.46-.276-.92-.092-1.38.092-.184.184-.368.276-.644 0-.184 0-.368-.092-.644-.092-.46-.092-.92-.092-1.38-.184-6.072-.46-12.144-.828-18.216l-.368-5.06C.46 52.44 1.012 42.32 2.116 32.2l.368-5.428c1.104-8.464 3.312-17.296 6.256-25.3" transform="translate(43 16)"/>
                    <path fill="#231F20" fill-rule="nonzero" d="M53.728 17.204c-2.576.736-6.164-.368-8.096-2.208-1.656-1.564-2.392-3.956-3.128-6.072-.184-.736-1.38-.368-1.104.276.828 2.668 1.84 5.612 4.232 7.268 2.3 1.656 5.612 2.668 8.372 1.84.736-.276.46-1.38-.276-1.104z" transform="translate(43 16)"/>
                    <path stroke="#231F20" stroke-width=".92" d="M29.164 48.024l3.956 45.632 1.288 15.18v2.208c.276 9.292.368 18.584.092 27.876l.368 2.852c0 1.104-.092 2.116-.092 3.22 0 .368 0 .828.276 1.104.184.184.46.276.644.368 5.796 1.748 12.144 2.024 17.756-.184 0-1.104.184-2.208.552-3.312l.552-2.484c.828-8.556 1.196-17.112 1.104-25.668l.368-2.76c-.092-4.232-.092-8.556-.184-12.788-.092-3.312-.092-6.624.644-9.844.092-.46.276-.92.092-1.38-.092-.184-.184-.368-.276-.644 0-.184 0-.368.092-.644.092-.46.092-.92.092-1.38.184-6.072.46-12.144.828-18.216l.368-5.06c.184-10.212-.368-20.332-1.472-30.452l-.368-5.428C54.74 17.756 52.532 8.924 49.588.92" transform="translate(43 16)"/>
                    <path stroke="#231F20" stroke-dasharray=".46" stroke-width=".5" d="M4.048 20.148s4.048 2.024 8.924-1.84c4.876-3.864 5.244-8.74 5.244-8.74M54.096 19.596s-4.048 2.024-8.924-1.84c-4.876-3.864-5.244-8.74-5.244-8.74" transform="translate(43 16)"/>
                    <path fill="#FFF" fill-rule="nonzero" stroke="#231F20" stroke-width=".69" d="M36.34 4.968L37.812 14.352 39.928 13.8 38.732 4.968M22.54 5.244L21.16 14.536 18.952 14.076 20.148 5.244" transform="translate(43 16)"/>
                    <path stroke="#231F20" stroke-width=".69" d="M29.072 48.208L28.428 5.244M29.072 34.5s1.196.644 2.944-.828 1.748-3.68 1.748-3.68V9.568" transform="translate(43 16)"/>
                    <g fill-rule="nonzero">
                        <path fill="#BCBEC0" d="M34.04 1.656c2.76.092 5.612.092 8.188-.92-2.576 2.024-5.704 3.128-9.016 3.588-3.22.46-13.156.736-13.156.736-3.22.092-6.532.276-9.752-.184-3.22-.46-6.44-1.564-9.016-3.588 2.576 1.012 5.428.92 8.188.92 3.496-.092 6.992-.092 10.488-.184 0 0 10.58-.46 14.076-.368z" transform="translate(43 16) translate(7.36)"/>
                        <path fill="#231F20" d="M34.04 2.208c2.944 0 5.52-.092 8.28-.92-.184-.368-.276-.736-.46-1.012-5.612 4.14-12.604 3.956-19.228 4.14-7.268.276-14.812.828-20.976-3.68-.184.368-.276.736-.46 1.012 6.164 1.84 13.248.92 19.596.736 4.416-.092 8.832-.276 13.248-.276.736 0 .736-1.104 0-1.196-4.232 0-8.464.184-12.696.276-6.348.184-13.708 1.196-19.872-.644-.644-.184-.92.644-.46 1.012 6.348 4.6 14.168 4.14 21.62 3.772 6.9-.276 13.984-.092 19.872-4.324.46-.368.184-1.288-.46-1.012-2.668.828-5.244.92-8.004.92-.736.092-.736 1.196 0 1.196z" transform="translate(43 16) translate(7.36)"/>
                    </g>
                    <path fill="#FFF" fill-rule="nonzero" stroke="#231F20" stroke-width=".69" d="M3.864 141.128s12.88 2.024 19.688-.276M54.464 140.576s-12.88 2.024-19.688-.276" transform="translate(43 16)"/>
                    <path fill="#231F20" fill-rule="nonzero" d="M12.788 16.56c.552-1.288 2.208-3.864.644-4.876C11.684 10.58 9.752 9.752 7.82 9.2c-.184-.092-.552.092-.552.276-.368 2.852-1.104 5.612-1.748 8.372-.092.552.736.828.92.276.644-2.76 1.38-5.52 1.748-8.372l-.552.276c1.38.368 2.576.92 3.772 1.564 1.012.46 2.024.736 1.564 2.024-.276.92-.644 1.748-1.012 2.576-.276.644.644.92.828.368z" transform="translate(43 16)"/>
                    <path stroke="#231F20" stroke-dasharray=".46" stroke-width=".5" d="M8.096 11.316c.092 0 5.428 2.208 5.428 2.208" transform="translate(43 16)"/>
                    <g fill="#231F20" fill-rule="nonzero">
                        <path d="M1.288 3.588l-.092-.46c0-.092-.092-.368-.092-.552v-.552c0-.368.092-.736.276-1.104l.092-.184.184.092c2.024.644 4.14.644 6.348.644H14.628v.184c.276 2.484.092 4.876-.184 7.36-.276 2.392-.552 4.876-.46 7.268v.184c-.184.276-.644.184-.828.092-.276-.092-.46-.276-.552-.552-.184-.184-.276-.368-.46-.552-.184-.184-.368-.276-.552-.276-.184 0-.276.092-.368.368-.092.276-.368.46-.644.46-.552 0-1.012-.276-1.472-.368-.46-.092-.828.184-1.104.552-.276.368-.828.644-1.288.736-.46.092-1.012 0-1.38.184-.46.184-.828.552-.828.92v.092h-.092c-.368 0-.736-.368-.828-.736h.184c-.276 2.484-.368 4.968-.276 7.452h-.184l-.552-7.268h.092c-.184.276-.552.276-.736.184l-.368-.092c-.092 0-.276 0-.368-.184-.184-.552-.092-1.104-.092-1.564.092-.552.092-1.012.092-1.564s-.184-1.012-.276-1.564C.736 10.672.828 8.556.92 6.532l.368-2.944zM1.564 2.3l-.184.828L.736 6.44c-.092 2.116-.184 4.232.276 6.256.092.552.276 1.012.276 1.564s0 1.012-.092 1.564c0 .552-.092 1.104 0 1.564.092.092.184.092.368.092l.368.092c.276 0 .552 0 .644-.184l.092-.092v.184l.644 7.268h-.184c-.184-2.484-.092-4.968.184-7.452l.092-.552.092.552c.092.276.368.552.644.552l-.092.092c-.092-.552.46-1.012.92-1.196.46-.184 1.012-.184 1.472-.276.46-.092.92-.276 1.196-.644l.552-.552c.184-.184.552-.184.736-.184.552.092.92.368 1.38.368.184 0 .368-.092.46-.368.092-.184.276-.552.644-.46.552.092.92.552 1.196.92.276.368.736.736 1.012.368v.092c-.184-2.484.184-4.876.368-7.268.276-2.392.46-4.876.184-7.268l.184.184-6.44.092h-3.22c-1.104-.092-2.208-.276-3.22-.552l.276-.092c-.092.276-.184.644-.276 1.012.092 0 .092.092.092.184zM45.08 2.3v-.276c0-.368-.092-.644-.276-1.012l.276.092c-1.012.368-2.116.552-3.22.552-1.104.092-2.116 0-3.22 0l-6.44-.092.184-.184c-.276 2.392-.092 4.784.184 7.268.276 2.392.552 4.876.368 7.268v-.092c.276.276.736-.092 1.012-.368.276-.368.552-.828 1.196-.92.368 0 .552.276.644.46.092.184.276.368.46.368.46 0 .92-.276 1.38-.368.276 0 .552 0 .736.184l.552.552c.276.368.736.552 1.196.644.46.092 1.012 0 1.472.276.46.184 1.012.552.92 1.196l-.092-.092c.276 0 .644-.276.644-.552l.092-.552.092.552c.276 2.484.368 4.968.184 7.452h-.184l.644-7.268v-.184l.092.092c.184.184.46.184.644.184h.46c.092 0 .276 0 .368-.092.184-.46.092-1.012 0-1.564s-.092-1.012-.092-1.564.184-1.012.276-1.564c.46-2.024.368-4.14.276-6.256l-.644-3.312-.184-.828zm.276 1.288L46 6.44c.092 2.116.184 4.232-.184 6.256-.092.552-.184 1.012-.276 1.564 0 .552 0 1.012.092 1.564 0 .552.092 1.012-.092 1.564-.092.184-.276.092-.368.184l-.368.092c-.276 0-.552 0-.736-.184h.092l-.552 7.268h-.184c.184-2.484.092-4.968-.276-7.452h.184c-.092.368-.46.644-.828.736h-.092v-.092c.092-.46-.368-.828-.828-.92-.46-.184-.92-.184-1.38-.184-.46 0-1.012-.276-1.288-.736-.276-.368-.644-.736-1.104-.552-.46.092-.92.368-1.472.368-.276 0-.552-.276-.644-.46-.092-.276-.184-.368-.368-.368s-.368.184-.552.276c-.184.184-.276.368-.46.552l-.552.552c-.184.184-.644.184-.828-.092v-.184c.184-2.392-.184-4.876-.46-7.268-.276-2.392-.552-4.876-.184-7.36V1.38H38.916c2.116 0 4.324.092 6.348-.644l.184-.092.092.184c.184.368.276.736.276 1.104v.552c0 .184 0 .46-.092.552l-.368.552z" transform="translate(43 16) translate(5.52 75.44)"/>
                        <path d="M1.38 1.656c2.116.552 4.324.736 6.532.46 2.116-.276 4.324-.828 6.532-.46-4.324.736-8.74 1.472-13.156.92v-.092c1.012.276 2.116.368 3.22.368 1.104.092 2.208.092 3.22.092 2.208 0 4.324-.276 6.532-.552 0 0 .092 0 .092.092 0 0 0 .092-.092.092-2.116.552-4.324 1.104-6.624 1.288-2.208.184-4.508.092-6.716-.368v-.184c2.208.552 4.324 1.012 6.532 1.196 2.208.092 4.508-.092 6.532-1.104.092 0 .092 0 .092.092v.092c-.92.552-2.024.92-3.128 1.104-1.104.184-2.208.184-3.312.092-2.208-.092-4.416-.46-6.532-.184v-.184c2.208.276 4.416.552 6.624.644 2.208.092 4.416 0 6.532-.644v.092c-2.116.644-4.416.92-6.624 1.104l-3.312.276-1.656.092c-.552 0-1.196-.092-1.656-.46v-.092h.092c2.208.276 4.324.92 6.44 1.288 2.116.368 4.416.46 6.44-.46v.092l-6.348.276c-2.116.092-4.232.276-6.348.092v-.092c2.116.368 4.232.736 6.44 1.012 2.116.276 4.324.46 6.44.46 0 0 .092 0 .092.092v.092c-1.104.276-2.3.276-3.404.276s-2.3-.092-3.404-.092c-1.104-.092-2.3 0-3.404 0s-2.3-.092-3.312-.644c0 0-.092-.092 0-.092 0 0 .092-.092.092 0 1.012.46 2.208.46 3.312.644 1.104.092 2.208.276 3.404.368 2.208.184 4.508.276 6.808.368.092 0 .092 0 .092.092 0 0 0 .092-.092.092-2.3.184-4.508.368-6.808.552l-3.404.184c-1.104 0-2.3.184-3.404-.368l.092-.184c1.564.92 3.496 1.012 5.336 1.104v.184h-1.38l-1.38-.092-1.38-.092H1.84c-.092.184.092-.276 0-.184h1.196l11.04.46v.184c-2.116-.184-4.232.184-6.44.276-1.104 0-2.208 0-3.22-.184-1.104-.184-2.116-.552-3.128-.46v-.184c2.024.552 4.14 1.012 6.256 1.196 2.116.184 4.232.092 6.348-.184.092 0 .092 0 .092.092s0 .092-.092.092c-1.012.276-2.116.552-3.22.644-1.104.092-2.208.184-3.22.184-2.116.092-4.324.276-6.44-.368L.92 11.96c1.012.368 2.116.552 3.128.644l3.22.276c2.116.184 4.324.368 6.44.368.092 0 .092 0 .092.092 0 0 0 .092-.092.092-2.116.46-4.324.46-6.532.46s-4.416.092-6.532-.552l-.092-.092.092-.092c4.232.736 8.464 1.38 12.788.92 0 0 .092 0 .092.092 0 0 0 .092-.092.092-4.048.46-8.004.828-12.052.92v-.092c1.84.644 3.864.736 5.888.552 1.932-.184 3.956-.552 5.888-.92l-.46-.092.46.092c-1.932.368-3.864.828-5.888.92-1.932.184-3.956.092-5.888-.552 4.048-.092 8.096-.552 12.052-.92v.092c-4.324.46-8.556-.184-12.788-.92v-.184c2.116.644 4.324.552 6.44.552 2.208 0 4.324 0 6.532-.552v.184c-2.208 0-4.324-.184-6.532-.368l-3.22-.276c-1.104-.092-2.208-.184-3.22-.644-.092 0-.092-.092-.092-.184s.092-.092.184-.092c2.024.644 4.232.46 6.44.368 1.104 0 2.116-.092 3.22-.184s2.116-.368 3.128-.644l.092.184c-2.116.368-4.232.46-6.348.184-2.116-.184-4.232-.644-6.256-1.196-.092 0-.092-.092-.092-.092 0-.092.092-.092.092-.092 1.104 0 2.116.368 3.22.46 1.012.184 2.116.184 3.22.184 2.116-.092 4.324-.46 6.44-.276.092 0 .092.092.092.092 0 .092-.092.092-.092.092l-11.04-.46H1.656c-.092 0 .092-.368 0-.184h.184l1.38.092 1.38.092H5.98v.184c-1.84-.092-3.772-.092-5.428-1.104-.092 0-.092-.092 0-.092 0-.092.092-.092.092 0 1.012.552 2.208.368 3.312.368l3.404-.184c2.3-.092 4.508-.276 6.808-.46v.184c-2.3-.092-4.508-.184-6.808-.368-1.104-.092-2.208-.184-3.404-.368-1.104-.184-2.3-.184-3.312-.644l.092-.092c1.012.46 2.116.644 3.312.644 1.104 0 2.3-.092 3.404 0 1.104 0 2.3.092 3.404.092s2.3-.092 3.404-.276v.092c-2.208 0-4.324-.184-6.44-.46-2.116-.276-4.232-.644-6.44-1.012v-.092h.092c2.116.276 4.232 0 6.348 0l6.348-.368c-2.024.92-4.324.828-6.532.46-2.208-.368-4.324-1.012-6.44-1.288V5.52c.368.368 1.012.46 1.564.368l1.656-.092c1.104-.092 2.208-.092 3.312-.276 2.208-.184 4.416-.552 6.532-1.104 0 0 .092 0 .092.092V4.6c-2.116.644-4.416.736-6.532.644-2.208-.092-4.416-.368-6.624-.644-.092 0-.092-.092-.092-.092s0-.092.092-.092c2.208-.276 4.416 0 6.532.092 1.104.092 2.208 0 3.22-.092 1.104-.184 2.116-.46 3.036-1.104l.092.184c-2.024.92-4.324 1.196-6.624 1.104-2.208-.184-4.416-.644-6.624-1.196-.092 0-.092-.092-.092-.092 0-.092.092-.092.092-.092 2.208.552 4.416.644 6.624.368 2.208-.184 4.416-.644 6.532-1.196v.092c-2.116.368-4.324.552-6.532.552-1.104 0-2.208 0-3.312-.092-1.104-.092-2.208-.092-3.22-.46v-.092h.092c4.416.644 8.74-.092 13.064-.828v.092c-2.208-.368-4.324.184-6.532.368-1.84.368-4.048.184-6.164-.368z" transform="translate(43 16) translate(5.52 75.44)"/>
                        <path d="M13.708 1.656c-2.116.552-4.324.736-6.532.46-2.208-.276-4.324-.828-6.532-.368v-.092c4.324.736 8.74 1.472 13.064.828h.092v.092c-1.104.276-2.116.368-3.22.46-1.104.092-2.208.092-3.312.092-2.208 0-4.324-.276-6.532-.552v-.092c2.116.552 4.324 1.012 6.532 1.196 2.208.184 4.508.092 6.624-.368.092 0 .092 0 .092.092s0 .092-.092.092c-2.208.552-4.324 1.104-6.624 1.196C5.06 4.876 2.76 4.6.644 3.588l.092-.184c.92.552 1.932.92 3.036 1.104 1.104.184 2.208.184 3.22.092 2.208-.092 4.416-.46 6.532-.092.092 0 .092.092.092.092s0 .092-.092.092c-2.208.276-4.416.552-6.624.644-2.208.092-4.416 0-6.532-.644 0 0-.092-.092 0-.092 0 0 .092-.092.092 0 2.116.644 4.324.92 6.532 1.104l3.312.276 1.656.092c.552 0 1.104-.092 1.564-.368v.092c-2.208.276-4.324.92-6.44 1.288-2.116.368-4.508.46-6.532-.46v-.092L6.9 6.9c2.116.092 4.232.276 6.348 0h.092v.092c-2.116.368-4.232.736-6.44 1.012-2.116.276-4.324.46-6.44.46v-.092c1.104.276 2.208.276 3.404.276 1.104 0 2.3-.092 3.404-.092 1.104-.092 2.3 0 3.404 0s2.3-.092 3.312-.644l.092.092c-1.012.46-2.208.552-3.312.644-1.104.092-2.208.276-3.404.368-2.208.184-4.508.368-6.808.368V9.2c2.3.184 4.508.368 6.808.46l3.404.184c1.104 0 2.3.184 3.312-.368h.092v.092c-1.656 1.012-3.588 1.012-5.428 1.104v-.184h1.38l1.38-.092 1.38-.092h.184c-.092-.184.092.276 0 .184h-1.196l-11.04.46c-.092 0-.092 0-.092-.092s0-.092.092-.092c2.208-.184 4.324.184 6.44.276 1.104 0 2.116 0 3.22-.184 1.012-.184 2.116-.552 3.22-.46.092 0 .092.092.092.092 0 .092 0 .092-.092.092-2.024.552-4.14 1.012-6.256 1.196-2.116.184-4.232.092-6.348-.184l.092-.184c1.012.276 2.116.552 3.128.644 1.104.092 2.116.184 3.22.184 2.116.092 4.324.276 6.44-.368.092 0 .092 0 .184.092 0 .092 0 .092-.092.184-1.012.368-2.116.552-3.22.644l-3.22.276c-2.116.184-4.324.368-6.532.368v-.184c2.116.46 4.324.46 6.532.552 2.208 0 4.416.092 6.44-.552v.184c-4.232.644-8.556 1.38-12.788.92v-.092c4.048.46 8.004.828 12.052.92-1.932.644-3.864.736-5.888.552-1.932-.184-3.956-.552-5.888-.92l.46-.092H1.84c1.932.368 3.864.736 5.888.92 1.932.184 3.956 0 5.888-.552v.092c-4.048-.092-8.096-.46-12.052-.92 0 0-.092 0-.092-.092 0 0 0-.092.092-.092 4.232.46 8.556-.276 12.788-.92 0 0 .092 0 .092.092 0 0 0 .092-.092.092-2.116.644-4.324.552-6.532.552s-4.416 0-6.532-.46c-.092 0-.092-.092-.092-.092l.092-.092c2.208 0 4.324-.184 6.44-.368l3.22-.276c1.104-.092 2.116-.184 3.128-.644l.092.184c-2.116.644-4.324.46-6.44.368-1.104 0-2.208-.092-3.22-.184-1.104-.092-2.116-.368-3.22-.644-.092 0-.092-.092-.092-.184s.092-.092.092-.092c2.116.368 4.232.46 6.348.184 2.116-.184 4.14-.644 6.256-1.196v.184c-1.012 0-2.116.368-3.128.46-1.104.184-2.116.184-3.22.184-2.116-.092-4.324-.46-6.44-.276v-.184l11.04-.46H13.34c-.092 0 .092.368 0 .184h-.184l-1.38.092-1.38.092H9.016v-.184c1.84-.092 3.772-.092 5.336-1.104l.092.184c-1.104.552-2.3.368-3.404.368l-3.404-.184C5.336 9.66 3.128 9.476.828 9.2c-.092 0-.092 0-.092-.092 0 0 0-.092.092-.092 2.3-.092 4.508-.184 6.808-.368 1.104-.092 2.208-.184 3.404-.368 1.104-.184 2.3-.184 3.312-.644h.092v.092c-1.012.46-2.208.644-3.312.644-1.104 0-2.3-.092-3.404 0-1.104 0-2.3.092-3.404.092s-2.3-.092-3.404-.276c0 0-.092 0 0-.092h.092c2.116 0 4.324-.184 6.44-.46 2.116-.276 4.232-.644 6.44-1.012v.092c-2.116.276-4.232 0-6.348-.092L.92 6.44v-.092c2.024.92 4.324.828 6.44.46 2.208-.368 4.324-1.012 6.44-1.288 0 0 .092 0 .092.092v.092c-.46.368-1.104.46-1.656.46l-1.656-.092c-1.104-.092-2.208-.092-3.312-.276C5.06 5.612 2.852 5.244.644 4.692V4.6c2.116.644 4.324.736 6.532.644 2.208-.092 4.416-.368 6.624-.644v.184c-2.208-.276-4.324 0-6.532.184-1.104.092-2.208 0-3.312-.092-1.104-.184-2.208-.46-3.128-1.104-.092 0-.092-.092 0-.092 0 0 .092-.092.092 0 2.024.92 4.324 1.196 6.532 1.104 2.208-.092 4.416-.644 6.532-1.196v.184c-2.208.552-4.508.552-6.716.368C5.06 3.956 2.852 3.496.644 2.852L.552 2.76s0-.092.092-.092c2.116.368 4.324.552 6.532.552 1.104 0 2.208 0 3.22-.092 1.104-.092 2.208-.092 3.22-.368v.092C9.2 3.404 4.784 2.668.46 1.932c2.208-.368 4.416.184 6.532.46 2.392-.092 4.6-.184 6.716-.736zM44.988 1.656c-2.116.552-4.232.736-6.44.46-2.116-.276-4.324-.828-6.44-.46v-.092c4.232.736 8.556 1.472 12.88.92h.092v.092c-1.012.276-2.116.368-3.22.46-1.104.092-2.116.092-3.22.092-2.116 0-4.324-.276-6.44-.552v-.184c2.116.644 4.232 1.104 6.44 1.288 2.208.184 4.416.092 6.532-.46.092 0 .092 0 .092.092s0 .092-.092.092c-2.116.552-4.324 1.104-6.532 1.288-2.208.184-4.508-.092-6.532-1.104l.092-.184c.92.552 2.024.92 3.128 1.104 1.104.184 2.208.184 3.312.092 2.208-.092 4.508.092 6.716.368l.092.092s0 .092-.092.092c-1.104.184-2.3.092-3.404.092h-1.656c-.552 0-1.104.092-1.656.092-2.208.092-4.6.092-6.716-.644 0 0-.092-.092 0-.092 0 0 .092-.092.092 0 2.208.644 4.508 1.012 6.808 1.196 1.196.092 2.3.184 3.496.276.552 0 1.196.092 1.748.184.276 0 .552.092.828.092.276 0 .552 0 .828-.184v.092c-2.3.276-4.6.46-6.808.828-1.104.184-2.3.368-3.404.276-1.104 0-2.3-.276-3.312-.736v-.092l6.808.368 3.404.184c1.104 0 2.3.092 3.404-.092h.092v.092c-2.116.368-4.232.552-6.348.644-2.116.092-4.232.184-6.348.092v-.092c2.024.46 4.048.644 6.072.736 1.012 0 2.024.092 3.128.092 1.012 0 2.024-.184 2.944-.644l.092.092c-1.012.46-2.116.552-3.22.644-1.104.092-2.208.276-3.22.368-2.208.184-4.324.368-6.532.46v-.184c2.3.184 4.508.368 6.808.552l3.404.184c1.104.092 2.3 0 3.312-.46.092 0 .092 0 .184.092v.092c-1.012.552-2.116.828-3.22 1.012-1.104.184-2.3.184-3.404.276-2.3.092-4.508 0-6.808.184-.092 0-.092 0-.092-.092s0-.092.092-.092c1.104-.092 2.208 0 3.312.092 1.104.092 2.208.276 3.312.276 1.104.092 2.208 0 3.312-.276 1.104-.184 2.208-.184 3.312-.184.092 0 .092.092.092.092 0 .092 0 .092-.092.092-2.116.552-4.324 1.012-6.44 1.196-2.208.184-4.416.092-6.532-.276l.092-.184c1.012.276 2.116.552 3.128.644 1.104.092 2.116.184 3.22.184 2.116.092 4.324.092 6.44-.46.092 0 .092 0 .184.092 0 .092 0 .092-.092.184-1.012.368-2.116.552-3.22.644l-3.22.276c-2.116.184-4.324.368-6.532.46v-.184c2.024.46 4.14.46 6.256.46 2.116 0 4.232.092 6.256-.552v.184c-4.14.736-8.372 1.38-12.604.92v-.092c4.14.46 8.372.46 12.604.46-1.932.644-4.048.828-6.072.828s-4.14-.276-6.164-.736l.46-.092-.46.092c2.024.46 4.048.644 6.072.736 2.024 0 4.14-.184 6.072-.828v.092c-4.232-.092-8.372 0-12.604-.46 0 0-.092 0-.092-.092s0-.092.092-.092c4.232.46 8.464-.276 12.604-1.012 0 0 .092 0 .092.092 0 0 0 .092-.092.092-2.024.644-4.232.644-6.348.552-1.012 0-2.116 0-3.128-.092-1.104-.092-2.116-.184-3.128-.368-.092 0-.092-.092-.092-.092l.092-.092c2.208 0 4.324-.184 6.532-.46l3.22-.276c1.104-.092 2.116-.276 3.128-.644l.092.184c-2.116.644-4.324.644-6.532.46-1.104-.092-2.208-.092-3.22-.184-1.104-.092-2.116-.368-3.22-.644-.092 0-.092-.092-.092-.184s.092-.092.092-.092c2.116.368 4.324.46 6.532.276s4.324-.552 6.44-1.104v.184c-1.104 0-2.208 0-3.312.184-1.104.184-2.208.276-3.312.276-1.104-.092-2.208-.184-3.312-.368-1.104-.092-2.208-.184-3.312-.092v-.184c2.3-.092 4.508-.092 6.808-.184 1.104 0 2.208-.092 3.404-.276 1.104-.184 2.208-.46 3.128-1.012L46 9.66c-1.104.552-2.208.552-3.404.552l-3.404-.184c-2.3-.092-4.508-.276-6.808-.552-.092 0-.092-.092-.092-.092s0-.092.092-.092c2.208-.092 4.324-.184 6.532-.368 1.104-.092 2.208-.184 3.22-.368 1.104-.184 2.208-.184 3.128-.644h.092v.092c-.92.46-2.024.644-3.036.644s-2.024-.092-3.128-.092c-2.024-.092-4.14-.276-6.164-.736 0 0-.092 0 0-.092h.092c2.116.092 4.232 0 6.348-.092 2.116-.092 4.232-.276 6.348-.644v.092c-1.104.092-2.3.092-3.404.092l-3.404-.184-6.808-.368v-.092c1.012.46 2.208.644 3.312.736 1.104 0 2.3-.092 3.404-.276 2.3-.368 4.6-.552 6.808-.828h.092v.092c-.276.184-.552.184-.828.184-.276 0-.552-.092-.92-.092-.552-.092-1.104-.184-1.748-.184-1.196-.092-2.3-.092-3.496-.276-2.3-.184-4.6-.552-6.9-1.196V4.6c2.116.736 4.416.736 6.624.644.552 0 1.104-.092 1.656-.092h1.656c1.104 0 2.3.092 3.404-.092v.184c-2.208-.276-4.508-.46-6.716-.368-1.104.092-2.3.092-3.404-.092s-2.208-.552-3.22-1.104c0 0-.092-.092 0-.092 0 0 .092-.092.092 0 1.932.92 4.232 1.196 6.348 1.104 2.208-.092 4.324-.644 6.44-1.196v.184c-2.116.552-4.416.644-6.624.368-2.208-.184-4.324-.644-6.532-1.288l-.092-.092s0-.092.092-.092c2.116.368 4.232.552 6.348.644 1.104 0 2.116 0 3.22-.092s2.116-.092 3.128-.368v.092c-4.324.644-8.648-.184-12.88-.92 2.116-.368 4.324.184 6.44.46 2.76 0 4.968-.184 7.084-.736z" transform="translate(43 16) translate(5.52 75.44)"/>
                        <path d="M33.212 1.656c2.116.552 4.232.736 6.44.46 2.116-.276 4.232-.828 6.44-.46-4.232.736-8.556 1.564-12.88.92v-.092c1.012.276 2.116.368 3.128.368 1.104.092 2.116.092 3.22.092 2.116 0 4.232-.276 6.348-.644 0 0 .092 0 .092.092 0 0 0 .092-.092.092-2.116.644-4.324 1.104-6.532 1.288-2.208.184-4.416.092-6.624-.368V3.22c2.116.552 4.232 1.104 6.44 1.196 2.208.092 4.416-.092 6.348-1.104h.092v.092c-.92.644-2.116.92-3.22 1.104-1.104.184-2.3.184-3.404.092-2.208-.092-4.508.092-6.716.368v-.184c1.104.184 2.208.092 3.404.092h1.656c.552 0 1.104.092 1.656.092 2.208.092 4.508.092 6.624-.644v.092c-2.208.644-4.6 1.012-6.9 1.196-1.196.092-2.3.184-3.496.276-.552 0-1.196.092-1.748.184-.276 0-.552.092-.92.092-.276 0-.644 0-.828-.184v-.092h.092c2.3.276 4.6.46 6.808.828 1.104.184 2.3.368 3.404.276 1.104 0 2.3-.276 3.312-.736v.092l-6.808.368-3.404.184c-1.104 0-2.3.092-3.404-.092v-.092c2.116.368 4.232.552 6.348.644 2.116.092 4.232.184 6.348.092 0 0 .092 0 .092.092v.092c-2.024.46-4.048.644-6.164.736-1.012 0-2.024.092-3.128.092-1.012 0-2.116-.184-3.036-.644 0 0-.092-.092 0-.092 0 0 .092-.092.092 0 1.012.46 2.116.552 3.128.644 1.104.092 2.208.276 3.22.368 2.208.184 4.324.368 6.532.368.092 0 .092 0 .092.092 0 0 0 .092-.092.092-2.3.184-4.508.368-6.808.552l-3.404.184c-1.104.092-2.3 0-3.404-.552l.092-.184c.92.552 2.024.828 3.128 1.012 1.104.184 2.208.184 3.404.276 2.208.092 4.508 0 6.808.184v.184c-1.104-.092-2.208 0-3.312.092-1.104.092-2.208.276-3.312.368-1.104.092-2.208 0-3.312-.276-1.104-.184-2.208-.184-3.312-.184v-.184c2.116.552 4.232 1.012 6.44 1.104 2.208.184 4.416 0 6.532-.276.092 0 .092 0 .092.092s0 .092-.092.092c-1.012.368-2.116.552-3.22.644-1.104.092-2.208.184-3.22.184-2.116.092-4.416.184-6.532-.46l.092-.184c1.012.368 2.116.552 3.128.644l3.22.276c2.208.184 4.324.46 6.532.46.092 0 .092 0 .092.092s0 .092-.092.092c-1.012.276-2.116.368-3.128.368-1.104.092-2.116 0-3.128.092-2.116 0-4.232.092-6.348-.552l-.092-.092.092-.092c4.14.736 8.372 1.472 12.604 1.012 0 0 .092 0 .092.092 0 0 0 .092-.092.092-4.14.46-8.372.368-12.604.46v-.092c1.932.644 4.048.828 6.072.828s4.14-.276 6.072-.736l-.46-.092.46.092c-2.024.46-4.048.736-6.164.736-2.024 0-4.14-.184-6.072-.828 4.232-.092 8.372-.092 12.604-.46v.092c-4.232.46-8.464-.276-12.604-.92v-.184c2.024.644 4.14.552 6.256.552 2.116 0 4.232 0 6.256-.46v.184c-2.208 0-4.324-.184-6.532-.46l-3.22-.276c-1.104-.092-2.208-.276-3.22-.644-.092 0-.092-.092-.092-.184s.092-.092.184-.092c2.024.644 4.232.552 6.44.46 1.104 0 2.208-.092 3.22-.184 1.104-.092 2.116-.368 3.128-.644l.092.184c-2.208.368-4.416.46-6.532.276-2.208-.184-4.324-.552-6.44-1.196-.092 0-.092-.092-.092-.092 0-.092.092-.092.092-.092 1.104 0 2.208 0 3.312.184 1.104.184 2.208.276 3.312.276l3.312-.276c1.104-.092 2.208-.184 3.312-.092.092 0 .092.092.092.092 0 .092-.092.092-.092.092-2.208-.092-4.508-.092-6.808-.184-1.104 0-2.3-.092-3.404-.276-1.104-.184-2.208-.46-3.22-1.012-.092 0-.092-.092 0-.184 0-.092.092-.092.092 0 1.012.46 2.208.552 3.312.46l3.404-.184c2.3-.092 4.508-.276 6.808-.552V9.2c-2.208-.092-4.324-.184-6.532-.46-1.104-.092-2.208-.184-3.22-.368-1.104-.184-2.208-.184-3.22-.644l.092-.092c.92.46 1.932.644 2.944.644s2.024 0 3.128-.092c2.024-.092 4.14-.276 6.072-.736v.092c-2.116 0-4.232 0-6.348-.092-2.116-.092-4.232-.276-6.348-.644v-.092h.092c1.104.092 2.3.092 3.404.092l3.404-.184 6.808-.368c-1.012.46-2.208.736-3.312.736-1.196 0-2.3-.092-3.404-.276-2.3-.368-4.6-.46-6.808-.828v-.092c.184.184.552.184.828.184.276 0 .552-.092.828-.092.552-.092 1.196-.184 1.748-.184 1.196-.092 2.3-.184 3.496-.276 2.3-.184 4.6-.552 6.808-1.196h.092v.092c-2.116.736-4.508.828-6.716.644-.552 0-1.104-.092-1.656-.092h-1.656c-1.104 0-2.3.092-3.404-.092l-.092-.092s0-.092.092-.092c2.208-.276 4.508-.46 6.716-.368 1.104.092 2.208.092 3.312-.092 1.104-.184 2.208-.552 3.128-1.104l.092.184c-2.024 1.012-4.324 1.288-6.532 1.104-2.208-.184-4.416-.644-6.532-1.288-.092 0-.092-.092-.092-.092 0-.092.092-.092.092-.092 2.116.552 4.324.644 6.532.46s4.324-.644 6.44-1.288v.184c-2.116.368-4.232.552-6.44.552-1.104 0-2.116 0-3.22-.092s-2.116-.092-3.22-.46v-.092h.092c4.324.644 8.648-.092 12.88-.92v.092c-2.116-.368-4.324.184-6.44.46-1.472.644-3.68.46-5.704-.092z" transform="translate(43 16) translate(5.52 75.44)"/>
                    </g>
                    <path fill="#231F20" fill-rule="nonzero" d="M6.808 97.612v-1.564c0-.552.092-1.012.092-1.564l.368-3.036c.092 2.116-.184 4.14-.46 6.164zM19.228 95.496c-.092-.276-.092-.552-.184-.92v-.92-.92c0-.276.092-.552.184-.92v3.68zM40.204 96.508c-.368-.276-.736-.644-.92-1.012-.092-.184-.184-.46-.276-.644l-.184-.644c-.184-.92-.276-1.84-.368-2.76.184.92.276 1.84.552 2.668l.184.644c.092.184.184.46.276.644.184.368.46.736.736 1.104zM50.232 99.084c0-.736.092-1.38.092-2.116.092-.736.184-1.38.184-2.116.092-.736.184-1.38.276-2.116 0-.368.092-.736.092-1.012v-.552c0-.184 0-.368-.184-.368.184 0 .276.276.276.368 0 .184.092.368.092.552v1.104c0 .736-.184 1.38-.276 2.116l-.552 4.14zM42.78 97.336l-.276-3.312c-.092-1.104-.092-2.208-.184-3.312 0-.092.092-.184.184-.184h.092c.46.184.736.736.828 1.104.184.368.276.828.368 1.196.184.828.368 1.748.368 2.576-.092-.828-.276-1.656-.46-2.484-.092-.368-.276-.828-.46-1.196s-.368-.828-.736-1.012l.276 6.624zM11.776 96.048c-.184-.736 0-1.564.276-2.3l.276-1.104v-.736c.092 0 .184-.092.092-.092v-.092c.184.644.46 1.288.828 1.84.276.552.828 1.104.828 1.932 0 .46-.368.736-.46 1.012-.184.276-.276.552-.184.92 0 .644.552 1.196.736 1.84-.276-.644-.828-1.104-.828-1.84 0-.368 0-.736.184-1.012s.368-.552.46-.92c0-.736-.46-1.288-.828-1.84-.368-.552-.644-1.196-.828-1.932 0-.092.092-.092.184 0l.092.092v.276c0 .184 0 .368-.092.552l-.276 1.104c-.276.828-.552 1.564-.46 2.3zM17.02 97.796c-.092-1.196-.828-2.116-1.196-3.22-.184-.552-.46-1.104-.46-1.748-.092-.644.092-1.196.184-1.748 0-.092.092-.184.184-.092.092 0 .092.092.092.092.276.736.644 1.38 1.104 2.024.276.276.552.644.644 1.012.184.368.184.828.276 1.196.092 1.564.184 3.128.184 4.692-.092-1.564-.184-3.128-.368-4.692 0-.368-.092-.736-.276-1.104-.092-.368-.46-.644-.644-1.012-.552-.644-.92-1.288-1.104-2.024-.184.552-.368 1.104-.276 1.656 0 .552.184 1.104.46 1.656.552 1.012 1.104 2.116 1.196 3.312zM40.48 98.992c.368-.644.644-1.38.736-2.116.092-.736.092-1.472-.184-2.208-.092-.368-.276-.644-.46-1.012s-.368-.736-.46-1.104c-.184-.828 0-1.656.368-2.3-.276.736-.368 1.472-.184 2.208.184.736.736 1.38.92 2.116.552 1.564.276 3.22-.736 4.416zM46.276 97.98c-.276-.46-.368-1.012-.184-1.564s.552-.92.552-1.38c.092-.46 0-.92-.092-1.38-.092-.46-.276-1.012-.276-1.472.092.46.276 1.012.368 1.472.092.46.276 1.012.092 1.472-.092.552-.46.92-.644 1.38-.092.46-.092 1.012.184 1.472z" transform="translate(43 16)"/>
                </g>
            </g>
        </g>
    </g>
</svg>
