<svg xmlns="http://www.w3.org/2000/svg" width="184" height="255" viewBox="0 0 184 255">
    <defs>
        <filter id="g3dask9hxa" width="138.1%" height="126.2%" x="-19%" y="-13.1%" filterUnits="objectBoundingBox">
            <feOffset in="SourceAlpha" result="shadowOffsetOuter1"/>
            <feGaussianBlur in="shadowOffsetOuter1" result="shadowBlurOuter1" stdDeviation="7.5"/>
            <feColorMatrix in="shadowBlurOuter1" result="shadowMatrixOuter1" values="0 0 0 0 0 0 0 0 0 0 0 0 0 0 0 0 0 0 0.207113199 0"/>
            <feMerge>
                <feMergeNode in="shadowMatrixOuter1"/>
                <feMergeNode in="SourceGraphic"/>
            </feMerge>
        </filter>
    </defs>
    <g fill="none" fill-rule="evenodd">
        <g>
            <g filter="url(#g3dask9hxa)" transform="translate(-6 -141) translate(21 156)">
                <rect width="154.08" height="224.7" fill="#F4F4F4" rx="4.28"/>
                <path fill="#000" fill-rule="nonzero" d="M52.894 207.132c0 1.21-.438 2.153-1.316 2.83-.878.678-2.07 1.016-3.574 1.016-1.63 0-2.884-.21-3.761-.63v-1.542c.564.238 1.178.426 1.843.564.664.138 1.323.207 1.975.207 1.065 0 1.868-.202 2.407-.607.54-.404.809-.967.809-1.688 0-.476-.096-.867-.287-1.17-.191-.305-.51-.585-.96-.842-.447-.257-1.13-.549-2.045-.875-1.279-.458-2.192-1-2.74-1.627-.55-.627-.824-1.445-.824-2.454 0-1.06.398-1.903 1.195-2.53.796-.627 1.849-.94 3.16-.94 1.366 0 2.623.25 3.77.752l-.498 1.392c-1.135-.477-2.238-.715-3.31-.715-.847 0-1.508.182-1.985.545-.476.364-.714.869-.714 1.514 0 .477.088.867.263 1.171.176.304.472.583.889.837.37.226.916.473 1.635.74l.279.102c1.442.514 2.434 1.066 2.976 1.655.542.59.813 1.354.813 2.295zm12.743 3.658h-1.88l-5.013-6.668-1.439 1.28v5.388h-1.599v-13.75h1.6v6.819l6.234-6.818h1.89l-5.53 5.972 5.737 7.777zm1.89 0v-13.75h1.6v13.75h-1.6zm16.11 0h-1.824l-7.514-11.54h-.076c.1 1.355.15 2.596.15 3.725v7.815h-1.476v-13.75h1.806l7.495 11.493h.075l-.074-1.41-.045-1.053c-.016-.496-.02-.876-.012-1.139v-7.89h1.495v13.749zm14.52 0h-1.824l-7.514-11.54h-.075c.1 1.355.15 2.596.15 3.725v7.815h-1.476v-13.75h1.805l7.495 11.493h.076l-.085-1.632c-.044-.918-.06-1.575-.047-1.97v-7.89h1.495v13.749zm7.28-6.875l3.667-6.874h1.73l-4.589 8.417v5.332h-1.618v-5.257l-4.58-8.492h1.75l3.64 6.874z"/>
                <g>
                    <path stroke="#231F20" stroke-width="1.006" d="M2.313 16.495s3.722 1.71 8.147-.503c4.426-2.213 5.733-5.632 5.733-5.632M56.828 16.193s-4.124 1.71-9.053-.503c-4.928-2.212-6.336-5.632-6.336-5.632" transform="translate(47.08 17.12)"/>
                    <path stroke="#231F20" stroke-width="1.006" d="M4.023 7.242s5.733 3.822 18.406 3.922c12.673.101 13.478 0 13.478 0S46.77 10.058 54.615 6.74" transform="translate(47.08 17.12)"/>
                    <path fill="#231F20" fill-rule="nonzero" d="M52.804 1.207c6.337 20.116 4.929 40.835 2.616 61.454-1.308 11.366-2.716 22.731-3.722 34.097-.503 5.733-.201 11.064.604 16.696.804 5.331.603 10.662.502 15.992-.1 5.532-.704 10.964-.905 16.496-.1 3.017-.2 5.934-.2 8.951 0 .503.1 3.822.2 3.621-.301.201-1.408 0-1.71 0H38.422c-.101-1.307 0-2.716 0-4.023 0-3.018-.101-6.136-.302-9.153-.403-7.745-1.006-15.59-1.71-23.334-.905-10.26-1.71-20.519-2.213-30.778-.704-15.188-1.91-30.174-3.721-45.26-.201-1.51-.403-3.119-.604-4.628-.1-.603-.905-.603-1.006 0-1.81 16.093-3.118 32.085-3.721 48.279-.402 10.158-1.207 20.317-2.012 30.476-.603 7.744-1.307 15.59-1.71 23.334-.2 3.118-.301 6.135-.402 9.253v3.722c0 .503-.1 3.017.403 2.514-.503.403-3.219 0-3.923 0h-6.236c-.503 0-3.52.403-3.923 0 .201.202.403-1.307.403-1.408.1-1.006 0-2.112-.1-3.118 0-1.609-.102-3.218-.102-4.828-.2-5.733-.704-11.466-.905-17.199-.2-4.526-.301-9.153-.1-13.679.301-5.23 1.508-10.36 1.408-15.69-.201-11.164-2.112-22.43-3.42-33.493-2.414-20.92-5.13-42.344.402-63.064.403-1.71.906-3.319 1.51-4.928.2-.604-.806-.906-1.007-.302-6.537 20.82-4.928 42.344-2.414 63.667C4.325 76.642 6.135 88.51 6.84 100.38c.403 6.035-.905 11.667-1.307 17.601-.302 4.828-.1 9.757.1 14.584.403 8.952 1.006 17.803 1.107 26.755 0 .301.201.503.503.503h14.282c.302 0 .503-.202.503-.503-.302-20.116 2.515-40.232 3.62-60.248.604-9.555.604-19.11 1.308-28.766.704-9.756 1.81-19.412 2.917-29.067h-1.006c1.71 13.478 3.32 27.156 4.024 40.835.603 13.076 1.307 26.05 2.414 39.025 1.106 12.573 2.212 25.246 2.011 37.919 0 .302.201.503.503.503H52.1c.302 0 .503-.201.503-.503.1-8.348.503-16.596 1.006-24.843.201-3.822.201-7.544.201-11.366 0-5.833-1.207-11.466-1.408-17.199-.302-5.934.604-11.868 1.207-17.702.704-6.236 1.408-12.573 2.112-18.809 1.308-11.466 2.817-22.932 2.817-34.498.1-11.467-1.308-22.732-4.728-33.795-.2-.503-1.207-.202-1.006.402z" transform="translate(47.08 17.12)"/>
                    <path stroke="#231F20" stroke-dasharray=".503" stroke-width=".535" d="M2.313 17.702s1.911 1.81 5.432.704c3.52-1.106 2.916-.704 6.336-2.917 3.32-2.212 3.118-4.425 3.118-4.425M57.23 17.3s-2.112 1.81-6.135.704c-4.024-1.207-3.32-.704-7.142-2.917-3.822-2.213-3.52-4.426-3.52-4.426" transform="translate(47.08 17.12)"/>
                    <path fill="#231F20" fill-rule="nonzero" d="M10.56 16.395c.403-.906 1.51-3.32.403-4.024-1.006-.603-2.414-1.106-3.62-1.508-.504-.202-1.006-.302-1.51-.403-.2-.1-.603.1-.603.302-.302 2.112-1.006 4.124-1.509 6.135-.2.604.805.906 1.006.302.604-2.011 1.207-4.124 1.509-6.135l-.604.302c1.107.301 2.113.704 3.118 1.106.403.1 1.207.302 1.409.603.301.302.2.403.1.906-.1.704-.302 1.408-.603 2.112-.302.704.603.905.905.302z" transform="translate(47.08 17.12)"/>
                    <path stroke="#231F20" stroke-dasharray=".503" stroke-width=".535" d="M5.532 11.868c.1 0 5.33 2.113 5.33 2.113" transform="translate(47.08 17.12)"/>
                    <path stroke="#231F20" stroke-width=".754" d="M29.269 41.338c0 .503-.604-35.203-.604-35.203" transform="translate(47.08 17.12)"/>
                    <path stroke="#231F20" stroke-width=".535" d="M28.967 29.57s1.308.202 3.017-1.508c1.409-1.408 1.409-3.018 1.409-3.018V11.164" transform="translate(47.08 17.12)"/>
                    <path fill="#FFF" fill-rule="nonzero" stroke="#231F20" stroke-width=".754" d="M36.511 5.834L38.019 15.992 40.433 15.489 39.025 5.834M21.323 6.035L19.814 16.294 17.4 15.69 18.808 6.035" transform="translate(47.08 17.12)"/>
                    <g fill-rule="nonzero">
                        <path fill="#BCBEC0" d="M26.251 3.219C18.104 3.72.905 1.308.905 1.308 4.627 3.42 8.75 4.828 13.075 5.43c1.207.201 4.526.503 5.733.503 10.46.604 20.116-.402 29.571-4.928 0 0-14.986 1.81-22.128 2.213z" transform="translate(47.08 17.12) translate(5.029)"/>
                        <path fill="#231F20" d="M26.251 2.716c-8.348.402-16.897-.704-25.245-1.81C.503.804.1 1.508.603 1.81c7.041 3.822 14.685 4.828 22.631 4.828 8.851.1 17.4-1.508 25.447-5.13.402-.2.2-1.005-.302-.905-7.342.805-14.685 1.71-22.128 2.113-.603 0-.603 1.005 0 1.005C33.694 3.32 41.037 2.414 48.38 1.51l-.302-.906c-7.845 3.621-16.294 5.13-24.944 5.03C15.39 5.531 7.946 4.626 1.006.904c-.1.302-.302.604-.403.905 8.349 1.107 16.998 2.314 25.548 1.911.804 0 .804-1.005.1-1.005z" transform="translate(47.08 17.12) translate(5.029)"/>
                    </g>
                    <path stroke="#231F20" stroke-dasharray=".503" stroke-width=".535" d="M6.94 158.112L21.424 158.112M37.516 157.709L52 157.709" transform="translate(47.08 17.12)"/>
                </g>
            </g>
        </g>
    </g>
</svg>
