<svg xmlns="http://www.w3.org/2000/svg" width="144" height="210" viewBox="0 0 144 210">
    <g fill="none" fill-rule="evenodd">
        <g>
            <g transform="translate(-100 -163) translate(100 163)">
                <rect width="144" height="210" fill="#F4F4F4" rx="4"/>
                <path fill="#000" fill-rule="nonzero" d="M49.434 193.581c0 1.13-.41 2.013-1.23 2.646-.82.632-1.934.949-3.34.949-1.524 0-2.696-.197-3.516-.59v-1.44c.527.222 1.102.398 1.723.527.62.129 1.236.193 1.846.193.996 0 1.746-.189 2.25-.567.503-.378.755-.903.755-1.577 0-.446-.089-.81-.268-1.095-.178-.284-.477-.546-.896-.786-.42-.24-1.056-.513-1.912-.818-1.195-.427-2.05-.934-2.562-1.52-.513-.586-.769-1.35-.769-2.294 0-.99.372-1.778 1.116-2.364.744-.586 1.729-.88 2.953-.88 1.278 0 2.453.235 3.525.704l-.466 1.3c-1.06-.445-2.092-.667-3.094-.667-.79 0-1.409.17-1.854.51-.445.34-.668.811-.668 1.415 0 .445.082.81.246 1.094.164.284.44.545.83.782.347.211.856.442 1.53.692l.26.095c1.347.48 2.274.996 2.78 1.547.508.55.761 1.265.761 2.144zM61.344 197h-1.759l-4.684-6.231-1.345 1.195V197h-1.494v-12.85h1.494v6.372l5.827-6.372h1.767l-5.168 5.581L61.343 197zm1.766 0v-12.85h1.494V197H63.11zm15.056 0H76.46l-7.022-10.784h-.07c.093 1.265.14 2.426.14 3.48V197h-1.38v-12.85h1.688l7.005 10.74h.07l-.069-1.317-.042-.984c-.016-.464-.02-.818-.012-1.065v-7.374h1.398V197zm13.57 0H90.03l-7.023-10.784h-.07c.094 1.265.14 2.426.14 3.48V197h-1.38v-12.85h1.688l7.005 10.74h.07l-.079-1.524c-.04-.859-.055-1.472-.044-1.842v-7.374h1.398V197zm6.803-6.425l3.427-6.425h1.617l-4.289 7.867V197h-1.511v-4.913l-4.28-7.937h1.634l3.402 6.425z"/>
                <g>
                    <path stroke="#231F20" stroke-width=".94" d="M2.162 15.416s3.478 1.598 7.614-.47c4.136-2.068 5.358-5.264 5.358-5.264M53.11 15.134s-3.854 1.598-8.46-.47C40.044 12.596 38.728 9.4 38.728 9.4" transform="translate(44 16)"/>
                    <path stroke="#231F20" stroke-width=".94" d="M3.76 6.768s5.358 3.572 17.202 3.666c11.844.094 12.596 0 12.596 0S43.71 9.4 51.042 6.298" transform="translate(44 16)"/>
                    <path fill="#231F20" fill-rule="nonzero" d="M49.35 1.128c5.922 18.8 4.606 38.164 2.444 57.434-1.222 10.622-2.538 21.244-3.478 31.866-.47 5.358-.188 10.34.564 15.604.752 4.982.564 9.964.47 14.946-.094 5.17-.658 10.246-.846 15.416-.094 2.82-.188 5.546-.188 8.366 0 .47.094 3.572.188 3.384-.282.188-1.316 0-1.598 0H35.908c-.094-1.222 0-2.538 0-3.76 0-2.82-.094-5.734-.282-8.554-.376-7.238-.94-14.57-1.598-21.808-.846-9.588-1.598-19.176-2.068-28.764-.658-14.194-1.786-28.2-3.478-42.3-.188-1.41-.376-2.914-.564-4.324-.094-.564-.846-.564-.94 0-1.692 15.04-2.914 29.986-3.478 45.12-.376 9.494-1.128 18.988-1.88 28.482-.564 7.238-1.222 14.57-1.598 21.808-.188 2.914-.282 5.734-.376 8.648v3.478c0 .47-.094 2.82.376 2.35-.47.376-3.008 0-3.666 0h-5.828c-.47 0-3.29.376-3.666 0 .188.188.376-1.222.376-1.316.094-.94 0-1.974-.094-2.914 0-1.504-.094-3.008-.094-4.512-.188-5.358-.658-10.716-.846-16.074-.188-4.23-.282-8.554-.094-12.784.282-4.888 1.41-9.682 1.316-14.664-.188-10.434-1.974-20.962-3.196-31.302C1.974 45.402-.564 25.38 4.606 6.016c.376-1.598.846-3.102 1.41-4.606.188-.564-.752-.846-.94-.282C-1.034 20.586.47 40.702 2.82 60.63c1.222 10.998 2.914 22.09 3.572 33.182.376 5.64-.846 10.904-1.222 16.45-.282 4.512-.094 9.118.094 13.63.376 8.366.94 16.638 1.034 25.004 0 .282.188.47.47.47h13.348c.282 0 .47-.188.47-.47-.282-18.8 2.35-37.6 3.384-56.306.564-8.93.564-17.86 1.222-26.884.658-9.118 1.692-18.142 2.726-27.166h-.94c1.598 12.596 3.102 25.38 3.76 38.164.564 12.22 1.222 24.346 2.256 36.472 1.034 11.75 2.068 23.594 1.88 35.438 0 .282.188.47.47.47h13.348c.282 0 .47-.188.47-.47.094-7.802.47-15.51.94-23.218.188-3.572.188-7.05.188-10.622 0-5.452-1.128-10.716-1.316-16.074-.282-5.546.564-11.092 1.128-16.544.658-5.828 1.316-11.75 1.974-17.578 1.222-10.716 2.632-21.432 2.632-32.242.094-10.716-1.222-21.244-4.418-31.584-.188-.47-1.128-.188-.94.376z" transform="translate(44 16)"/>
                    <path stroke="#231F20" stroke-dasharray=".47" stroke-width=".5" d="M2.162 16.544s1.786 1.692 5.076.658c3.29-1.034 2.726-.658 5.922-2.726 3.102-2.068 2.914-4.136 2.914-4.136M53.486 16.168s-1.974 1.692-5.734.658c-3.76-1.128-3.102-.658-6.674-2.726-3.572-2.068-3.29-4.136-3.29-4.136" transform="translate(44 16)"/>
                    <path fill="#231F20" fill-rule="nonzero" d="M9.87 15.322c.376-.846 1.41-3.102.376-3.76-.94-.564-2.256-1.034-3.384-1.41-.47-.188-.94-.282-1.41-.376-.188-.094-.564.094-.564.282-.282 1.974-.94 3.854-1.41 5.734-.188.564.752.846.94.282.564-1.88 1.128-3.854 1.41-5.734l-.564.282c1.034.282 1.974.658 2.914 1.034.376.094 1.128.282 1.316.564.282.282.188.376.094.846-.094.658-.282 1.316-.564 1.974-.282.658.564.846.846.282z" transform="translate(44 16)"/>
                    <path stroke="#231F20" stroke-dasharray=".47" stroke-width=".5" d="M5.17 11.092c.094 0 4.982 1.974 4.982 1.974" transform="translate(44 16)"/>
                    <path stroke="#231F20" stroke-width=".705" d="M27.354 38.634c0 .47-.564-32.9-.564-32.9" transform="translate(44 16)"/>
                    <path stroke="#231F20" stroke-width=".5" d="M27.072 27.636s1.222.188 2.82-1.41c1.316-1.316 1.316-2.82 1.316-2.82V10.434" transform="translate(44 16)"/>
                    <path fill="#FFF" fill-rule="nonzero" stroke="#231F20" stroke-width=".705" d="M34.122 5.452L35.532 14.946 37.788 14.476 36.472 5.452M19.928 5.64L18.518 15.228 16.262 14.664 17.578 5.64" transform="translate(44 16)"/>
                    <g fill-rule="nonzero">
                        <path fill="#BCBEC0" d="M24.534 3.008C16.92 3.478.846 1.222.846 1.222c3.478 1.974 7.332 3.29 11.374 3.854 1.128.188 4.23.47 5.358.47 9.776.564 18.8-.376 27.636-4.606 0 0-14.006 1.692-20.68 2.068z" transform="translate(44 16) translate(4.7)"/>
                        <path fill="#231F20" d="M24.534 2.538C16.732 2.914 8.742 1.88.94.846.47.752.094 1.41.564 1.692c6.58 3.572 13.724 4.512 21.15 4.512 8.272.094 16.262-1.41 23.782-4.794.376-.188.188-.94-.282-.846-6.862.752-13.724 1.598-20.68 1.974-.564 0-.564.94 0 .94 6.956-.376 13.818-1.222 20.68-2.068l-.282-.846C37.6 3.948 29.704 5.358 21.62 5.264 14.382 5.17 7.426 4.324.94.846c-.094.282-.282.564-.376.846C8.366 2.726 16.45 3.854 24.44 3.478c.752 0 .752-.94.094-.94z" transform="translate(44 16) translate(4.7)"/>
                    </g>
                    <path stroke="#231F20" stroke-dasharray=".47" stroke-width=".5" d="M6.486 147.768L20.022 147.768M35.062 147.392L48.598 147.392" transform="translate(44 16)"/>
                </g>
            </g>
        </g>
    </g>
</svg>
