<svg xmlns="http://www.w3.org/2000/svg" width="146" height="212" viewBox="0 0 146 212">
    <g fill="none" fill-rule="evenodd">
        <g>
            <g transform="translate(-274 -162) translate(275 163)">
                <rect width="145" height="211" x="-.5" y="-.5" fill="#F4F4F4" stroke="#000" rx="4"/>
                <path fill="#000" fill-rule="nonzero" d="M59.195 193.432c0 1.16-.417 2.074-1.252 2.742-.835.668-1.997 1.002-3.485 1.002-1.371 0-2.584-.258-3.639-.774v-2.53c.868.386 1.601.658 2.202.816.6.159 1.15.238 1.648.238.598 0 1.056-.114 1.375-.343.32-.229.48-.568.48-1.02 0-.251-.07-.476-.212-.672-.14-.196-.347-.385-.62-.567-.222-.148-.634-.37-1.236-.663l-.429-.207c-.785-.369-1.374-.724-1.766-1.063-.393-.34-.706-.736-.94-1.187-.235-.451-.352-.978-.352-1.582 0-1.137.385-2.03 1.156-2.68.77-.651 1.835-.976 3.194-.976.668 0 1.306.079 1.912.237.606.158 1.24.381 1.903.668l-.88 2.118c-.685-.281-1.252-.477-1.7-.589-.448-.11-.889-.167-1.323-.167-.515 0-.91.12-1.186.36-.275.241-.413.554-.413.941 0 .24.055.45.167.629.111.178.288.351.532.518l.149.095c.206.123.526.292.959.506l.619.3c1.2.574 2.024 1.15 2.47 1.727.445.577.667 1.285.667 2.123zm2.33 3.568v-12.85h2.724v10.6h5.212V197h-7.937zm10.168 0v-12.85h2.725V197h-2.725zm11.4 0l-3.094-10.081h-.08l.11 2.186c.035.788.054 1.385.057 1.79V197h-2.434v-12.85h3.71l3.04 9.827h.053l3.226-9.827h3.709V197h-2.54v-6.306l.021-1.046c.016-.494.053-1.398.11-2.711h-.079L85.59 197h-2.496z"/>
                <g>
                    <path fill="#231F20" fill-rule="nonzero" d="M50.94 5.67c-7.29 2.61-15.21 6.39-23.22 5.31-.54-.09-.81.81-.27.9 8.19 1.08 16.11-2.61 23.67-5.31.54-.27.36-1.08-.18-.9z" transform="translate(44 16)"/>
                    <path fill="#231F20" fill-rule="nonzero" d="M27.09 10.8c-7.74-.36-15.57-1.71-22.86-4.14-.54-.18-.81.72-.27.9 7.38 2.52 15.3 3.78 23.13 4.23.54 0 .54-.9 0-.99zM27.9 26.91c2.16-.36 3.15-2.16 3.42-4.23.54-3.42.45-7.11.36-10.62 0-.54-.9-.54-.9 0 0 2.25 0 4.5-.09 6.75-.09 2.52.18 6.66-3.06 7.2-.54.18-.36.99.27.9z" transform="translate(44 16)"/>
                    <path fill="#231F20" fill-rule="nonzero" d="M2.16 14.85c4.05 1.08 11.97 1.35 12.33-4.41 0-.54-.9-.54-.9 0-.27 5.13-7.83 4.41-11.16 3.51-.54-.18-.81.72-.27.9zM27.27 35.01c1.08 12.24 3.15 24.39 5.49 36.45 1.17 6.21 1.44 12.6 1.98 18.81.54 7.83 1.08 15.66 1.53 23.49.54 9.45.27 18.81.36 28.26 0 1.71-.36 3.6 1.17 4.68 1.26.81 3.24 1.08 4.68 1.35.81.18 1.17.27 1.89.18 1.17-.09 3.06-.27 4.14-.81 1.08-.63 1.08-2.16 1.26-3.24.81-5.94 1.44-11.97 1.98-18 1.17-11.7.72-23.76.36-35.55-.18-6.21 0-12.42.18-18.63.27-9.27 1.62-18.45 1.89-27.72.54-14.4.45-29.07-3.69-42.93-.18-.54-1.08-.36-.9.27 3.69 12.15 4.05 24.84 3.87 37.44-.09 6.21-.36 12.33-.99 18.54-.27 3.06-.81 6.12-.9 9.27-.18 5.49-.36 11.07-.45 16.56-.09 3.96.18 7.83.27 11.79.09 6.57.09 13.05 0 19.62-.09 7.65-.81 15.3-1.62 22.95-.27 2.43-.45 5.04-.99 7.38-.54 1.89-1.89 1.89-3.69 2.16-1.26.18-2.25 0-3.6-.36-.63-.18-1.44-.27-2.07-.63-1.62-.81-1.8-1.62-1.8-3.42-.18-9.36.18-18.63-.36-27.99-.45-7.2-.9-14.31-1.35-21.51-.45-6.75-.72-13.5-1.8-20.16-2.07-12.78-4.68-25.38-5.76-38.34-.18-.54-1.08-.54-1.08.09z" transform="translate(44 16)"/>
                    <path fill="#231F20" fill-rule="nonzero" d="M27.27 34.29c-.99 11.43-3.24 22.77-5.31 34.11-1.17 5.94-1.8 11.79-2.25 17.82-1.17 14.85-2.52 29.88-2.34 44.73 0 3.06.09 6.12.09 9.18 0 1.35.36 3.51-.09 4.77-.63 1.89-3.42 2.16-5.13 2.52-1.35.27-3.69.18-4.95-.54-1.44-.72-1.26-3.42-1.53-4.95-.99-5.49-1.17-11.16-1.8-16.74-.63-5.94-.45-12.06-.45-18.09 0-6.48.09-13.05.27-19.53.18-5.31-.18-10.71-.27-16.11-.27-9.18-1.62-18.18-1.89-27.36-.45-13.95-.36-28.17 3.69-41.58.18-.54-.72-.81-.9-.27C.72 14.4.36 27.09.54 39.69c.09 6.75.45 13.5 1.17 20.16.36 2.88.72 5.58.72 8.46.18 5.49.45 10.98.45 16.38 0 12.6-.81 25.2-.09 37.8.36 6.3.81 12.87 1.89 19.08.36 1.89 0 5.31 2.25 5.94 1.26.36 2.97.81 4.41.72 1.17-.09 2.43-.54 3.6-.9.81-.27 2.16-.45 2.79-1.17.54-.63.45-1.62.54-2.43.09-1.62.09-3.15.09-4.77 0-3.33-.09-6.66-.09-9.99 0-4.14.09-8.28.36-12.42.45-7.47.9-14.85 1.44-22.32.54-7.2.72-14.58 2.07-21.6 2.43-12.78 5.13-25.65 6.21-38.61-.09-.36-.99-.36-1.08.27z" transform="translate(44 16)"/>
                    <g stroke="#231F20" stroke-width=".5">
                        <path d="M.36 6.3s.09.09.18.09" transform="translate(44 16) translate(1.8 9)"/>
                        <path stroke-dasharray=".444 .444" d="M.99 6.57c.81.45 2.7.99 5.76.72 4.5-.54 6.3-3.42 6.3-3.42l.81-2.34" transform="translate(44 16) translate(1.8 9)"/>
                        <path d="M13.86 1.26L13.95 0.99" transform="translate(44 16) translate(1.8 9)"/>
                    </g>
                    <path fill="#231F20" fill-rule="nonzero" d="M52.29 13.5c-3.33.9-10.89 1.53-11.16-3.6 0-.54-.9-.54-.9 0 .36 5.85 8.28 5.49 12.33 4.41.54-.09.27-.99-.27-.81z" transform="translate(44 16)"/>
                    <g stroke="#231F20" stroke-width=".5">
                        <path d="M14.76 5.76s-.09.09-.18.09" transform="translate(44 16) translate(37.8 9)"/>
                        <path stroke-dasharray=".444 .444" d="M14.22 6.12c-.81.45-2.7.99-5.76.72-4.5-.54-6.3-3.42-6.3-3.42l-.81-2.34" transform="translate(44 16) translate(37.8 9)"/>
                        <path d="M1.26 0.72L1.17 0.54" transform="translate(44 16) translate(37.8 9)"/>
                    </g>
                    <g stroke="#231F20" stroke-width=".5">
                        <path d="M1.17 1.8l.18.18" transform="translate(44 16) translate(4.5 143.1)"/>
                        <path stroke-dasharray=".455 .455" d="M1.71 2.16c1.17.81 4.41 2.25 11.16-.72" transform="translate(44 16) translate(4.5 143.1)"/>
                        <path d="M13.05 1.35c.09 0 .18-.09.18-.09" transform="translate(44 16) translate(4.5 143.1)"/>
                    </g>
                    <g stroke="#231F20" stroke-width=".5">
                        <path d="M13.23 1.71l-.18.18" transform="translate(44 16) translate(36 143.1)"/>
                        <path stroke-dasharray=".455 .455" d="M12.78 2.16c-1.17.81-4.41 2.25-11.16-.72" transform="translate(44 16) translate(36 143.1)"/>
                        <path d="M1.35 1.35c-.09 0-.18-.09-.18-.09" transform="translate(44 16) translate(36 143.1)"/>
                    </g>
                    <path fill="#FFF" fill-rule="nonzero" stroke="#231F20" stroke-width=".675" d="M35.46 5.85L36.81 14.94 38.97 14.49 37.8 5.85M19.35 5.85L18 14.94 15.93 14.49 17.1 5.85" transform="translate(44 16)"/>
                    <g fill-rule="nonzero">
                        <path fill="#BCBEC0" d="M23.58 7.02c-6.39-.63-12.78-1.8-18.99-3.51-1.17-.36-2.34-.72-3.33-1.44 1.62-.36 3.33-.36 5.04-.36 7.02.09 35.19-.27 38.52-.54l1.71.09c-1.08.54-2.16.9-3.24 1.35-3.15 1.17-6.3 2.34-9.63 3.15-3.24.72-6.66 1.08-9.99.45.09 5.67.27 11.43.36 17.1 0 .9 0 1.71.09 2.61.09 2.79.09 5.49.18 8.28" transform="translate(44 16) translate(3.6)"/>
                        <path fill="#231F20" d="M23.58 6.57c-3.87-.36-7.65-.99-11.52-1.71-3.42-.72-7.65-1.17-10.62-3.15 0 .27-.09.54-.09.81 3.87-.72 8.28-.27 12.24-.36 4.5 0 9-.09 13.59-.09 6.39-.09 12.87-.54 19.26-.36L46.17.9c-6.84 3.15-14.94 6.12-22.5 4.95-.27 0-.54.09-.54.45.18 9.36.36 18.63.63 27.99 0 .54.9.54.9 0-.18-9.36-.36-18.63-.63-27.99-.18.18-.36.27-.54.45 7.92 1.26 16.11-1.8 23.22-5.04.45-.18.18-.81-.27-.81-6.57-.27-13.23.27-19.8.36-4.5.09-9 .09-13.5.09-3.96 0-8.19-.36-12.06.36-.45.09-.36.63-.09.81 2.97 1.98 7.29 2.52 10.8 3.24 3.87.81 7.83 1.35 11.7 1.8.63 0 .63-.9.09-.99z" transform="translate(44 16) translate(3.6)"/>
                    </g>
                    <path fill="#BCBEC0" fill-rule="nonzero" stroke="#231F20" stroke-dasharray=".45" stroke-width=".5" d="M6.57 2.97h23.76l17.1-.54" transform="translate(44 16)"/>
                </g>
            </g>
        </g>
    </g>
</svg>
