<svg xmlns="http://www.w3.org/2000/svg" width="146" height="212" viewBox="0 0 146 212">
    <g fill="none" fill-rule="evenodd">
        <g>
            <g>
                <g transform="translate(-801 -162) translate(802 163)">
                    <rect width="145" height="211" x="-.5" y="-.5" fill="#F4F4F4" stroke="#000" rx="4"/>
                    <path fill="#000" fill-rule="nonzero" d="M38.458 193.432c0 1.16-.418 2.074-1.253 2.742-.835.668-1.996 1.002-3.485 1.002-1.37 0-2.584-.258-3.638-.774v-2.53c.867.386 1.6.658 2.201.816.6.159 1.15.238 1.648.238.598 0 1.056-.114 1.376-.343.319-.229.479-.568.479-1.02 0-.251-.07-.476-.211-.672-.14-.196-.347-.385-.62-.567-.223-.148-.635-.37-1.236-.663l-.43-.207c-.785-.369-1.373-.724-1.766-1.063-.393-.34-.706-.736-.94-1.187-.235-.451-.352-.978-.352-1.582 0-1.137.385-2.03 1.156-2.68.77-.651 1.835-.976 3.195-.976.668 0 1.305.079 1.911.237.607.158 1.24.381 1.903.668l-.879 2.118c-.685-.281-1.252-.477-1.7-.589-.449-.11-.89-.167-1.323-.167-.516 0-.911.12-1.187.36-.275.241-.413.554-.413.941 0 .24.056.45.167.629.111.178.289.351.532.518l.15.095c.235.14.619.34 1.15.6l.427.206c1.201.574 2.024 1.15 2.47 1.727.445.577.668 1.285.668 2.123zM40.787 197v-12.85h2.724v10.6h5.212V197h-7.936zm21.832-6.442c0 2.127-.528 3.761-1.582 4.904-1.055 1.142-2.567 1.714-4.536 1.714-1.968 0-3.48-.572-4.535-1.714-1.054-1.143-1.582-2.783-1.582-4.922s.53-3.772 1.587-4.9c1.057-1.128 2.573-1.692 4.548-1.692s3.485.569 4.53 1.705c1.047 1.137 1.57 2.772 1.57 4.905zm-9.378 0c0 1.435.272 2.516.817 3.243.545.726 1.36 1.09 2.443 1.09 2.174 0 3.261-1.445 3.261-4.333 0-2.895-1.08-4.342-3.243-4.342-1.084 0-1.901.365-2.452 1.094-.55.73-.826 1.812-.826 3.248zm22.5-6.408v8.315c0 .95-.213 1.781-.637 2.496-.425.715-1.04 1.263-1.842 1.643-.803.381-1.752.572-2.847.572-1.653 0-2.936-.424-3.85-1.27-.914-.847-1.371-2.006-1.371-3.476v-8.28h2.716v7.867c0 .99.199 1.716.597 2.18.399.462 1.058.694 1.978.694.89 0 1.536-.233 1.938-.7.401-.465.602-1.196.602-2.192v-7.849h2.716zm8.604 2.083c-1.025 0-1.82.386-2.382 1.156-.562.77-.843 1.844-.843 3.221 0 2.866 1.075 4.298 3.225 4.298.903 0 1.995-.225 3.279-.677v2.286c-1.055.44-2.233.659-3.534.659-1.869 0-3.298-.567-4.289-1.7-.99-1.135-1.485-2.762-1.485-4.883 0-1.336.243-2.507.73-3.511.486-1.005 1.184-1.776 2.096-2.312.91-.536 1.979-.804 3.203-.804 1.248 0 2.502.302 3.762.905l-.879 2.215c-.48-.229-.964-.428-1.45-.598-.486-.17-.964-.255-1.433-.255zM100.886 197H98.17v-5.546h-5.088V197h-2.725v-12.85h2.725v5.037h5.088v-5.037h2.716V197zm7.242-7.559l2.681-5.29h2.936l-4.263 7.848V197h-2.707v-4.913l-4.263-7.937h2.953l2.663 5.291z"/>
                </g>
                <g>
                    <path stroke="#231F20" stroke-width=".9" d="M6.84 6.84s9.54 3.51 21.87 3.24c12.33-.27 21.96-3.87 21.96-3.87" transform="translate(-801 -162) translate(802 163) translate(44 16)"/>
                    <path fill="#231F20" fill-rule="nonzero" d="M4.32 18.99c2.7.81 6.12-.18 8.37-1.89 2.43-1.8 3.42-4.77 4.23-7.56.18-.72-.9-.99-1.08-.27-.72 2.16-1.35 4.68-3.06 6.3-1.98 1.89-5.49 3.15-8.1 2.34-.72-.27-.99.9-.36 1.08zM52.83 17.37c-2.52.72-6.03-.36-7.92-2.16-1.62-1.53-2.34-3.87-3.06-5.94-.18-.72-1.35-.36-1.08.27.81 2.61 1.8 5.49 4.14 7.11 2.25 1.62 5.49 2.61 8.19 1.8.72-.18.45-1.26-.27-1.08z" transform="translate(-801 -162) translate(802 163) translate(44 16)"/>
                    <path stroke="#231F20" stroke-dasharray=".45" stroke-width=".5" d="M4.23 20.25s3.96 1.98 8.73-1.8C17.73 14.67 18 9.9 18 9.9M53.19 19.8s-3.96 1.98-8.73-1.8c-4.77-3.78-5.13-8.55-5.13-8.55" transform="translate(-801 -162) translate(802 163) translate(44 16)"/>
                    <path fill="#FFF" fill-rule="nonzero" stroke="#231F20" stroke-width=".675" d="M35.82 5.49L37.17 14.67 39.33 14.13 38.16 5.49M22.32 5.76L20.97 14.85 18.81 14.31 19.98 5.76" transform="translate(-801 -162) translate(802 163) translate(44 16)"/>
                    <path stroke="#231F20" stroke-width=".9" d="M28.62 44.73L28.08 5.76" transform="translate(-801 -162) translate(802 163) translate(44 16)"/>
                    <path stroke="#231F20" stroke-width=".675" d="M28.71 34.38s1.17.63 2.88-.81 1.71-3.6 1.71-3.6V9.9" transform="translate(-801 -162) translate(802 163) translate(44 16)"/>
                    <g fill-rule="nonzero">
                        <path fill="#BCBEC0" d="M32.67 2.25c2.7.09 5.49.09 8.01-.9-2.52 1.98-5.58 3.06-8.82 3.51-3.15.45-12.87.72-12.87.72-3.15.09-6.39.27-9.54-.18C6.3 4.95 3.15 3.87.63 1.89c2.52.99 5.31.9 8.01.9 3.42-.09 6.84-.09 10.26-.18 0 0 10.35-.45 13.77-.36z" transform="translate(-801 -162) translate(802 163) translate(44 16) translate(8.1)"/>
                        <path fill="#231F20" d="M32.67 2.79c2.88 0 5.4-.09 8.1-.9-.18-.36-.27-.72-.45-.99-5.49 4.05-12.33 3.87-18.81 4.05-7.11.27-14.49.81-20.52-3.6-.18.36-.27.72-.45.99 6.03 1.8 12.96.9 19.17.72 4.32-.09 8.64-.27 12.96-.27.72 0 .72-1.08 0-1.17-4.14 0-8.28.18-12.42.27-6.21.18-13.41 1.17-19.44-.63-.63-.18-.9.63-.45.99 6.21 4.5 13.86 4.05 21.15 3.69 6.75-.27 13.68-.09 19.44-4.23.45-.36.18-1.26-.45-.99-2.61.81-5.13.9-7.83.9-.72 0-.72 1.17 0 1.17z" transform="translate(-801 -162) translate(802 163) translate(44 16) translate(8.1)"/>
                    </g>
                    <path fill="#FFF" fill-rule="nonzero" stroke="#231F20" stroke-width=".675" d="M6.21 142.83s7.2 2.16 13.86-.09" transform="translate(-801 -162) translate(802 163) translate(44 16)"/>
                    <path stroke="#231F20" stroke-width=".9" d="M48.96 1.35c2.88 8.01 5.04 16.83 6.12 25.29l.36 5.4c1.17 10.08 1.62 20.34 1.44 30.51l-.36 5.04c-.36 6.12-.63 12.15-.81 18.27 0 .45 0 .9-.09 1.35 0 .18-.09.45-.09.63s.18.45.27.63c.18.45 0 .99-.09 1.44-.72 3.24-1.44 7.74-1.44 11.07.09 4.23-.54 11.97-.54 11.97.09 8.55-2.61 33.48-2.61 34.56-5.49 2.25-6.75 1.98-12.42.27-.27-.09-.45-.18-.63-.36-.27-.27-.27-.72-.27-1.08 0-1.08-.09-4.23-.09-5.22l-.81-10.35c.27-9.27-3.6-50.31-3.6-50.31l-4.23-33.75-.72-4.14L24.12 81s-3.87 40.95-3.6 50.31l-.81 10.44c0 1.08-.09 4.23-.09 5.22 0 .36 0 .81-.27 1.08-.18.18-.45.27-.63.36-5.67 1.71-6.93 1.98-12.42-.27 0-1.17-2.7-26.01-2.61-34.56 0 0-.63-7.74-.54-11.97.09-3.33-.63-7.83-1.44-11.07-.09-.45-.27-.99-.09-1.44.09-.18.18-.45.27-.63 0-.18 0-.45-.09-.63-.09-.45-.09-.9-.09-1.35-.18-6.12-.45-12.24-.81-18.27l-.36-5.04C.36 53.01.9 42.75 1.98 32.67l.36-5.4C3.42 18.81 5.85 9.9 8.73 1.98" transform="translate(-801 -162) translate(802 163) translate(44 16)"/>
                    <path fill="#FFF" fill-rule="nonzero" stroke="#231F20" stroke-width=".675" d="M51.48 142.29s-7.2 2.16-13.86-.09" transform="translate(-801 -162) translate(802 163) translate(44 16)"/>
                    <path fill="#231F20" fill-rule="nonzero" d="M12.78 16.83c.54-1.26 2.16-3.78.63-4.77-1.71-1.08-3.6-1.89-5.49-2.43-.18-.09-.54.09-.54.27-.36 2.79-1.08 5.49-1.71 8.19-.09.54.72.81.9.27.63-2.7 1.35-5.4 1.71-8.19l-.54.27c1.35.36 2.52.9 3.69 1.53.99.45 1.98.72 1.53 1.98-.27.9-.63 1.71-.99 2.52-.27.63.63.81.81.36z" transform="translate(-801 -162) translate(802 163) translate(44 16)"/>
                    <path stroke="#231F20" stroke-dasharray=".45" stroke-width=".5" d="M8.1 11.7c.09 0 5.31 2.16 5.31 2.16" transform="translate(-801 -162) translate(802 163) translate(44 16)"/>
                    <path fill="#231F20" fill-rule="nonzero" d="M20.7 28.35c.18-4.32.99-9.63-.63-13.68-.09-.09-.18-.09-.18 0-.54 5.94-2.07 11.61-3.06 17.46 0 .18.18.18.18.09.9-5.04 2.16-9.9 2.88-15.03.09-.72-.09-2.61.45-1.17.45 1.08.27 2.79.36 3.96 0 2.79 0 5.58-.09 8.28-.09.27.09.27.09.09zM37.98 25.92c.09-2.43.09-4.95.18-7.38 0-.27 0-3.06.09-3.06s.81 3.15.9 3.33c.54 2.16 1.08 4.32 1.53 6.57.36 2.25.18 4.59.63 6.93 0 .18.27.09.18-.09-.54-2.79-.36-5.67-.99-8.46-.63-3.06-1.44-6.12-2.34-9.18 0-.09-.18-.09-.18 0 0 3.78-.09 7.56-.18 11.25 0 .18.18.18.18.09z" transform="translate(-801 -162) translate(802 163) translate(44 16)"/>
                </g>
            </g>
        </g>
    </g>
</svg>
