<svg xmlns="http://www.w3.org/2000/svg" width="144" height="210" viewBox="0 0 144 210">
    <g fill="none" fill-rule="evenodd">
        <g>
            <g>
                <g transform="translate(-802 -163) translate(802 163)">
                    <rect width="144" height="210" fill="#F4F4F4" rx="4"/>
                    <path fill="#000" fill-rule="nonzero" d="M39.987 193.581c0 1.13-.41 2.013-1.23 2.646-.821.632-1.934.949-3.34.949-1.524 0-2.696-.197-3.516-.59v-1.44c.527.222 1.101.398 1.723.527.62.129 1.236.193 1.845.193.996 0 1.746-.189 2.25-.567.504-.378.756-.903.756-1.577 0-.446-.09-.81-.268-1.095-.179-.284-.478-.546-.896-.786-.42-.24-1.057-.513-1.912-.818-1.195-.427-2.05-.934-2.562-1.52-.513-.586-.77-1.35-.77-2.294 0-.99.373-1.778 1.117-2.364.744-.586 1.729-.88 2.953-.88 1.278 0 2.452.235 3.525.704l-.466 1.3c-1.06-.445-2.092-.667-3.094-.667-.791 0-1.41.17-1.854.51-.446.34-.668.811-.668 1.415 0 .445.082.81.246 1.094.164.284.44.545.83.782.347.211.856.442 1.529.692l.26.095c1.347.48 2.275.996 2.782 1.547.506.55.76 1.265.76 2.144zM42.615 197v-12.85h1.494v11.496h5.669V197h-7.163zm20.496-6.442c0 2.056-.52 3.673-1.56 4.851s-2.486 1.767-4.338 1.767c-1.892 0-3.353-.579-4.381-1.736s-1.542-2.79-1.542-4.9c0-2.092.515-3.713 1.546-4.865 1.032-1.151 2.497-1.727 4.395-1.727 1.846 0 3.287.586 4.324 1.758 1.037 1.172 1.556 2.79 1.556 4.852zm-10.24 0c0 1.74.371 3.06 1.112 3.96.742.899 1.818 1.348 3.23 1.348 1.424 0 2.5-.448 3.226-1.345.727-.896 1.09-2.217 1.09-3.963 0-1.729-.362-3.04-1.086-3.933-.723-.894-1.794-1.34-3.212-1.34-1.424 0-2.506.449-3.248 1.348-.74.9-1.111 2.208-1.111 3.925zm22.808-6.408v8.315c0 1.465-.442 2.616-1.327 3.454-.885.838-2.1 1.257-3.647 1.257-1.547 0-2.744-.422-3.59-1.266-.847-.844-1.27-2.004-1.27-3.48v-8.28h1.493v8.385c0 1.072.293 1.896.88 2.47.585.574 1.447.861 2.583.861 1.084 0 1.92-.288 2.505-.866.586-.577.88-1.404.88-2.482v-8.368h1.493zm8.904 1.152c-1.413 0-2.527.47-3.345 1.41-.817.94-1.226 2.228-1.226 3.863 0 1.682.394 2.981 1.182 3.898.788.917 1.912 1.376 3.37 1.376.897 0 1.92-.161 3.068-.484v1.31c-.89.334-1.989.5-3.296.5-1.892 0-3.353-.573-4.38-1.722-1.03-1.148-1.543-2.78-1.543-4.895 0-1.325.247-2.485.742-3.48.495-.997 1.21-1.765 2.145-2.304.934-.539 2.034-.808 3.3-.808 1.348 0 2.525.246 3.533.738l-.633 1.283c-.972-.457-1.945-.685-2.917-.685zM100.192 197h-1.494v-6.047H91.93V197h-1.494v-12.85h1.494v5.467h6.768v-5.467h1.494V197zm6.794-6.425l3.428-6.425h1.617l-4.29 7.867V197h-1.511v-4.913l-4.28-7.937h1.634l3.402 6.425z"/>
                </g>
                <g>
                    <path stroke="#231F20" stroke-width=".9" d="M6.84 6.84s9.54 3.51 21.87 3.24c12.33-.27 21.96-3.87 21.96-3.87" transform="translate(-802 -163) translate(802 163) translate(44 16)"/>
                    <path fill="#231F20" fill-rule="nonzero" d="M4.32 18.99c2.7.81 6.12-.18 8.37-1.89 2.43-1.8 3.42-4.77 4.23-7.56.18-.72-.9-.99-1.08-.27-.72 2.16-1.35 4.68-3.06 6.3-1.98 1.89-5.49 3.15-8.1 2.34-.72-.27-.99.9-.36 1.08zM52.83 17.37c-2.52.72-6.03-.36-7.92-2.16-1.62-1.53-2.34-3.87-3.06-5.94-.18-.72-1.35-.36-1.08.27.81 2.61 1.8 5.49 4.14 7.11 2.25 1.62 5.49 2.61 8.19 1.8.72-.18.45-1.26-.27-1.08z" transform="translate(-802 -163) translate(802 163) translate(44 16)"/>
                    <path stroke="#231F20" stroke-dasharray=".45" stroke-width=".5" d="M4.23 20.25s3.96 1.98 8.73-1.8C17.73 14.67 18 9.9 18 9.9M53.19 19.8s-3.96 1.98-8.73-1.8c-4.77-3.78-5.13-8.55-5.13-8.55" transform="translate(-802 -163) translate(802 163) translate(44 16)"/>
                    <path fill="#FFF" fill-rule="nonzero" stroke="#231F20" stroke-width=".675" d="M35.82 5.49L37.17 14.67 39.33 14.13 38.16 5.49M22.32 5.76L20.97 14.85 18.81 14.31 19.98 5.76" transform="translate(-802 -163) translate(802 163) translate(44 16)"/>
                    <path stroke="#231F20" stroke-width=".9" d="M28.62 44.73L28.08 5.76" transform="translate(-802 -163) translate(802 163) translate(44 16)"/>
                    <path stroke="#231F20" stroke-width=".675" d="M28.71 34.38s1.17.63 2.88-.81 1.71-3.6 1.71-3.6V9.9" transform="translate(-802 -163) translate(802 163) translate(44 16)"/>
                    <g fill-rule="nonzero">
                        <path fill="#BCBEC0" d="M32.67 2.25c2.7.09 5.49.09 8.01-.9-2.52 1.98-5.58 3.06-8.82 3.51-3.15.45-12.87.72-12.87.72-3.15.09-6.39.27-9.54-.18C6.3 4.95 3.15 3.87.63 1.89c2.52.99 5.31.9 8.01.9 3.42-.09 6.84-.09 10.26-.18 0 0 10.35-.45 13.77-.36z" transform="translate(-802 -163) translate(802 163) translate(44 16) translate(8.1)"/>
                        <path fill="#231F20" d="M32.67 2.79c2.88 0 5.4-.09 8.1-.9-.18-.36-.27-.72-.45-.99-5.49 4.05-12.33 3.87-18.81 4.05-7.11.27-14.49.81-20.52-3.6-.18.36-.27.72-.45.99 6.03 1.8 12.96.9 19.17.72 4.32-.09 8.64-.27 12.96-.27.72 0 .72-1.08 0-1.17-4.14 0-8.28.18-12.42.27-6.21.18-13.41 1.17-19.44-.63-.63-.18-.9.63-.45.99 6.21 4.5 13.86 4.05 21.15 3.69 6.75-.27 13.68-.09 19.44-4.23.45-.36.18-1.26-.45-.99-2.61.81-5.13.9-7.83.9-.72 0-.72 1.17 0 1.17z" transform="translate(-802 -163) translate(802 163) translate(44 16) translate(8.1)"/>
                    </g>
                    <path fill="#FFF" fill-rule="nonzero" stroke="#231F20" stroke-width=".675" d="M6.21 142.83s7.2 2.16 13.86-.09" transform="translate(-802 -163) translate(802 163) translate(44 16)"/>
                    <path stroke="#231F20" stroke-width=".9" d="M48.96 1.35c2.88 8.01 5.04 16.83 6.12 25.29l.36 5.4c1.17 10.08 1.62 20.34 1.44 30.51l-.36 5.04c-.36 6.12-.63 12.15-.81 18.27 0 .45 0 .9-.09 1.35 0 .18-.09.45-.09.63s.18.45.27.63c.18.45 0 .99-.09 1.44-.72 3.24-1.44 7.74-1.44 11.07.09 4.23-.54 11.97-.54 11.97.09 8.55-2.61 33.48-2.61 34.56-5.49 2.25-6.75 1.98-12.42.27-.27-.09-.45-.18-.63-.36-.27-.27-.27-.72-.27-1.08 0-1.08-.09-4.23-.09-5.22l-.81-10.35c.27-9.27-3.6-50.31-3.6-50.31l-4.23-33.75-.72-4.14L24.12 81s-3.87 40.95-3.6 50.31l-.81 10.44c0 1.08-.09 4.23-.09 5.22 0 .36 0 .81-.27 1.08-.18.18-.45.27-.63.36-5.67 1.71-6.93 1.98-12.42-.27 0-1.17-2.7-26.01-2.61-34.56 0 0-.63-7.74-.54-11.97.09-3.33-.63-7.83-1.44-11.07-.09-.45-.27-.99-.09-1.44.09-.18.18-.45.27-.63 0-.18 0-.45-.09-.63-.09-.45-.09-.9-.09-1.35-.18-6.12-.45-12.24-.81-18.27l-.36-5.04C.36 53.01.9 42.75 1.98 32.67l.36-5.4C3.42 18.81 5.85 9.9 8.73 1.98" transform="translate(-802 -163) translate(802 163) translate(44 16)"/>
                    <path fill="#FFF" fill-rule="nonzero" stroke="#231F20" stroke-width=".675" d="M51.48 142.29s-7.2 2.16-13.86-.09" transform="translate(-802 -163) translate(802 163) translate(44 16)"/>
                    <path fill="#231F20" fill-rule="nonzero" d="M12.78 16.83c.54-1.26 2.16-3.78.63-4.77-1.71-1.08-3.6-1.89-5.49-2.43-.18-.09-.54.09-.54.27-.36 2.79-1.08 5.49-1.71 8.19-.09.54.72.81.9.27.63-2.7 1.35-5.4 1.71-8.19l-.54.27c1.35.36 2.52.9 3.69 1.53.99.45 1.98.72 1.53 1.98-.27.9-.63 1.71-.99 2.52-.27.63.63.81.81.36z" transform="translate(-802 -163) translate(802 163) translate(44 16)"/>
                    <path stroke="#231F20" stroke-dasharray=".45" stroke-width=".5" d="M8.1 11.7c.09 0 5.31 2.16 5.31 2.16" transform="translate(-802 -163) translate(802 163) translate(44 16)"/>
                    <path fill="#231F20" fill-rule="nonzero" d="M20.7 28.35c.18-4.32.99-9.63-.63-13.68-.09-.09-.18-.09-.18 0-.54 5.94-2.07 11.61-3.06 17.46 0 .18.18.18.18.09.9-5.04 2.16-9.9 2.88-15.03.09-.72-.09-2.61.45-1.17.45 1.08.27 2.79.36 3.96 0 2.79 0 5.58-.09 8.28-.09.27.09.27.09.09zM37.98 25.92c.09-2.43.09-4.95.18-7.38 0-.27 0-3.06.09-3.06s.81 3.15.9 3.33c.54 2.16 1.08 4.32 1.53 6.57.36 2.25.18 4.59.63 6.93 0 .18.27.09.18-.09-.54-2.79-.36-5.67-.99-8.46-.63-3.06-1.44-6.12-2.34-9.18 0-.09-.18-.09-.18 0 0 3.78-.09 7.56-.18 11.25 0 .18.18.18.18.09z" transform="translate(-802 -163) translate(802 163) translate(44 16)"/>
                </g>
            </g>
        </g>
    </g>
</svg>
