<svg xmlns="http://www.w3.org/2000/svg" width="144" height="210" viewBox="0 0 144 210">
    <g fill="none" fill-rule="evenodd">
        <g>
            <g transform="translate(-451 -163) translate(451 163)">
                <rect width="144" height="210" fill="#F4F4F4" rx="4"/>
                <path fill="#000" fill-rule="nonzero" d="M39.16 193.581c0 1.13-.41 2.013-1.23 2.646-.821.632-1.934.949-3.34.949-1.524 0-2.696-.197-3.516-.59v-1.44c.527.222 1.101.398 1.722.527s1.237.193 1.846.193c.996 0 1.746-.189 2.25-.567.504-.378.756-.903.756-1.577 0-.446-.09-.81-.268-1.095-.179-.284-.478-.546-.897-.786-.419-.24-1.056-.513-1.911-.818-1.196-.427-2.05-.934-2.562-1.52-.513-.586-.77-1.35-.77-2.294 0-.99.373-1.778 1.117-2.364.744-.586 1.728-.88 2.953-.88 1.277 0 2.452.235 3.524.704l-.465 1.3c-1.06-.445-2.092-.667-3.094-.667-.791 0-1.41.17-1.855.51-.445.34-.668.811-.668 1.415 0 .445.082.81.247 1.094.164.284.44.545.83.782.346.211.856.442 1.529.692l.26.095c1.347.48 2.275.996 2.781 1.547.507.55.76 1.265.76 2.144zM45.743 197h-1.494v-11.522h-4.07v-1.328h9.633v1.328h-4.07V197zm7.497-5.344V197h-1.494v-12.85h3.524c1.576 0 2.74.302 3.494.906.753.603 1.13 1.511 1.13 2.724 0 1.7-.862 2.848-2.585 3.446L60.8 197h-1.767l-3.112-5.344h-2.68zm0-1.283h2.048c1.054 0 1.828-.21 2.32-.628.492-.42.738-1.048.738-1.886 0-.85-.25-1.462-.751-1.837s-1.305-.562-2.413-.562H53.24v4.913zM70.95 197l-1.6-4.087H64.2L62.618 197h-1.512l5.08-12.902h1.257L72.497 197H70.95zm-6.223-5.432h4.157l-1.494-3.981c-.193-.504-.392-1.122-.598-1.855-.128.563-.313 1.181-.553 1.855l-1.512 3.981zM74.263 197v-12.85h1.494V197h-1.494zm10.67-6.732h4.368v6.249c-.68.216-1.37.38-2.074.492-.703.111-1.518.167-2.443.167-1.946 0-3.46-.579-4.544-1.736-1.084-1.157-1.626-2.779-1.626-4.865 0-1.336.268-2.506.804-3.511.536-1.005 1.308-1.772 2.316-2.303 1.008-.53 2.188-.795 3.542-.795 1.371 0 2.648.252 3.832.756l-.58 1.318c-1.16-.492-2.277-.738-3.349-.738-1.564 0-2.786.466-3.665 1.397-.879.932-1.318 2.224-1.318 3.876 0 1.735.423 3.05 1.27 3.946.847.897 2.09 1.345 3.73 1.345.891 0 1.762-.102 2.611-.307v-3.955h-2.874v-1.336zm17.21 6.732h-1.495v-6.047H93.88V197h-1.494v-12.85h1.494v5.467h6.768v-5.467h1.494V197zm7.479 0h-1.495v-11.522h-4.069v-1.328h9.633v1.328h-4.07V197z"/>
                <g>
                    <path stroke="#231F20" stroke-width=".93" d="M8.184 16.554s3.534 1.953 7.719-.558c4.185-2.511 5.394-6.696 5.394-6.696M59.892 16.182s-3.906 1.953-8.649-.558c-4.743-2.604-6.045-6.696-6.045-6.696" transform="translate(37 16)"/>
                    <path stroke="#231F20" stroke-width=".93" d="M10.323 6.417s5.301 3.534 17.019 3.627c11.718.093 12.462 0 12.462 0s10.044-1.023 17.298-4.092" transform="translate(37 16)"/>
                    <path fill="#231F20" fill-rule="nonzero" d="M55.521.744c.837 2.976 1.86 5.952 2.79 8.928.93 3.255 1.395 6.696 1.86 10.044 1.209 7.998 1.767 15.996 2.604 23.994.837 8.649 1.302 17.205 1.767 25.854.837 15.531 1.116 30.969 1.581 46.5.279 9.765 0 19.902 1.209 29.574.279-.093.558-.186.837-.372-.372-.465-.744-.93-1.209-1.395-.279-.372-.837 0-.744.465.186.651.279 1.302.465 1.953.279-.093.558-.186.93-.279-.372-1.395-.465-2.325-2.046-2.139-1.209.186-2.046 1.116-1.581 2.325.279-.093.558-.279.837-.372-.372-.651-.465-1.116-1.116-1.488-.093-.093-.279 0-.372-.093-.279-.093-1.767-.279-2.325-.279-1.86.279-1.023 3.534-1.767 4.743l.837.279c.093-2.604.651-4.371-2.418-4.836-3.162-.465-3.348.093-4.464 2.79.279 0 .651.093.93.093 0-.744.279-1.209.651-1.86.186-.372 0-.651-.372-.744-1.116-.093-2.232-.372-3.348-.558-.279 0-.651-.186-.93-.093-1.209.558-1.023 2.79-1.116 3.813.279 0 .651.093.93.093-.093-1.395.372-2.697-1.023-3.069-1.302-.465-2.697-.372-2.697 1.116l.837-.279c-.465-.651-.558-.558-1.302-.744-.186 0-1.581-.372-1.488.093 0-.186-.279-.372-.465-.372-1.209.093-1.581.744-2.046 1.86.279 0 .651.093.93.093.465-8.742.093-17.298-.372-26.04-.465-9.114-.837-18.228-1.209-27.342-.465-11.067-2.511-21.855-4.185-32.829-.93-5.952-1.767-11.811-2.697-17.763-.093-.465-.837-.465-.93 0-1.674 12.741-3.441 25.575-5.115 38.316-1.581 12.09-1.488 24.273-2.139 36.456-.465 9.858-1.023 19.623-.558 29.481.279 0 .651-.093.93-.093-.465-1.116-.837-1.674-2.046-1.86-.186 0-.372.186-.465.372.093-.465-1.395-.093-1.488-.093-.651.093-.837 0-1.302.744l.837.279c0-1.581-1.302-1.581-2.697-1.116-1.395.465-1.023 1.674-1.023 3.069.279 0 .651-.093.93-.093-.186-1.023.093-3.255-1.116-3.813-.279-.093-.558 0-.837 0-1.116.093-2.232.465-3.441.558-.372 0-.558.372-.372.744.372.651.651 1.116.651 1.86.279 0 .651-.093.93-.093-1.116-2.697-1.302-3.255-4.464-2.79-3.069.465-2.511 2.232-2.418 4.836l.837-.279c-.651-1.209.093-4.557-1.767-4.743-.651-.093-2.046 0-2.604.279-.744.279-.744.93-1.116 1.581.279.093.558.279.837.372.465-1.209-.279-2.139-1.581-2.325-1.674-.279-1.674.744-2.046 2.139.279.093.558.186.93.279.186-.651.279-1.302.465-1.953.093-.465-.465-.837-.744-.465-.372.465-.744.93-1.209 1.395.279.093.558.186.837.372 1.209-9.114.93-18.693 1.209-27.9.279-7.719.372-15.345.651-23.064.372-15.345.837-30.783 2.325-46.035.837-8.649 1.488-17.298 2.604-25.947.558-4.092 1.116-8.184 2.139-12.183.837-3.255 2.046-6.51 2.976-9.765.186-.558-.744-.837-.93-.279-.837 2.976-1.86 5.952-2.79 8.928-1.023 3.348-1.395 6.882-1.953 10.323-1.116 7.533-1.674 15.159-2.418 22.692-.837 8.835-1.395 17.67-1.86 26.598-.837 15.624-1.116 31.248-1.581 46.872-.279 9.858 0 19.995-1.209 29.667-.093.372.558.651.837.372.372-.465.744-.93 1.209-1.395-.279-.186-.558-.279-.744-.465-.186.651-.279 1.302-.465 1.953-.186.558.744.837.93.279.093-1.023.651-1.209 1.86-.279-.186.465.558.744.837.372.651-.93 1.767-1.581 2.697-.837.93.651.558 2.697 1.209 3.72.186.372.837.186.837-.279-.093-1.86-.186-3.627 2.046-3.999 1.674-.279 2.511.744 3.069 2.139.186.465.93.465.93-.093 0-.93-.279-1.395-.744-2.325-.093.279-.279.465-.372.744.93-.093 2.139-.372 3.069-.279 1.581.186 1.302 1.395 1.488 2.883.093.558.93.372.93-.093 0-.93-.093-1.767.558-2.139.279-.186 1.209-.279 1.209.186s.651.651.837.279c.186-.279 1.395-.186 1.674-.186 1.209-.093 1.209-.651 1.86.837.186.465.93.465.93-.093-.465-8.742-.093-17.298.372-26.04.465-9.114.837-18.228 1.209-27.342.465-10.881 2.325-21.855 3.813-32.922.837-5.859 1.581-11.811 2.418-17.67h-.93c1.86 12.648 3.813 25.296 5.673 38.037 1.767 11.811 1.581 24.273 2.139 36.456.465 9.765 1.023 19.437.558 29.202 0 .558.744.558.93.093.093-.279.744-1.116.744-1.116l.186.186c.093 0 .837.093.837.093.372 0 1.488-.093 1.674.186.279.372.837.279.837-.279 0-.465.93-.372 1.209-.186.744.372.558 1.209.558 2.139 0 .465.837.651.93.093.186-1.302 0-2.79 1.488-2.883.93-.093 2.139.279 3.069.279-.093-.279-.279-.465-.372-.744-.465.837-.744 1.302-.744 2.325 0 .558.744.558.93.093.651-1.488 1.302-2.418 3.069-2.139 2.139.372 2.139 2.232 2.046 3.999 0 .465.651.651.837.279.651-1.116.279-3.069 1.209-3.72 1.023-.744 2.139-.186 2.697.837.279.465 1.023.186.837-.372 1.209-.837 1.767-.744 1.86.279.186.558 1.023.372.93-.279-.186-.651-.279-1.302-.465-1.953-.279.186-.558.279-.744.465.372.465.744.93 1.209 1.395.279.279.837.093.837-.372-1.209-9.114-.93-18.693-1.209-27.9-.279-7.812-.465-15.624-.651-23.529-.372-15.345-.837-30.783-2.325-46.128-.837-8.463-1.395-16.926-2.604-25.389-.558-4.185-1.116-8.37-2.139-12.462-.837-3.255-2.046-6.51-2.976-9.765-.558-.372-1.395-.093-1.209.465z" transform="translate(37 16)"/>
                    <path stroke="#231F20" stroke-dasharray=".465" stroke-width=".5" d="M7.719 17.949s1.953 2.232 5.487.837c3.534-1.395 2.976-.93 6.324-3.534 3.348-2.604 3.162-5.301 3.162-5.301M60.264 17.484s-2.046 2.232-5.859.837c-3.813-1.395-3.162-.93-6.789-3.534-3.627-2.604-3.348-5.301-3.348-5.301" transform="translate(37 16)"/>
                    <path fill="#231F20" fill-rule="nonzero" d="M16.647 16.089c.465-1.023 1.674-3.72.558-4.557-1.023-.744-2.79-1.116-3.906-1.581-.651-.279-1.302-.372-2.046-.558-.186-.093-.558.093-.558.279-.372 2.418-1.116 4.743-1.767 7.068-.186.558.744.837.93.279.651-2.325 1.395-4.65 1.767-7.068l-.558.279c1.209.279 2.232.651 3.441 1.116l1.395.558c.651.372.837.279.837.93 0 .837-.465 1.953-.744 2.79-.372.465.372 1.023.651.465z" transform="translate(37 16)"/>
                    <path stroke="#231F20" stroke-dasharray=".465" stroke-width=".5" d="M11.067 10.974c.093 0 6.138 2.046 6.138 2.046" transform="translate(37 16)"/>
                    <path stroke="#231F20" stroke-width=".698" d="M33.666 42.873c-.186-.372-.558-37.572-.558-37.572" transform="translate(37 16)"/>
                    <path stroke="#231F20" stroke-width=".5" d="M33.387 34.875s1.488.279 3.348-2.046c1.581-1.86 1.581-3.999 1.581-3.999V10.044" transform="translate(37 16)"/>
                    <path fill="#FFF" fill-rule="nonzero" stroke="#231F20" stroke-width=".698" d="M40.269 5.022L41.664 14.508 43.896 13.95 42.687 5.022M26.319 5.301L24.924 14.694 22.692 14.136 23.901 5.301" transform="translate(37 16)"/>
                    <g fill-rule="nonzero">
                        <path fill="#BCBEC0" d="M24.366 2.604C16.74 3.069.93.93.93.93c3.441 1.953 7.254 3.255 11.253 3.813 1.116.186 4.185.465 5.301.465 9.672.558 18.6-.372 27.342-4.557 0 0-13.857 1.581-20.46 1.953z" transform="translate(37 16) translate(11.16)"/>
                        <path fill="#231F20" d="M24.366 2.139C16.647 2.511 8.649 1.488 1.023.372.558.279.186.93.651 1.209c6.51 3.534 13.578 4.464 20.925 4.464C29.76 5.766 37.665 4.278 45.105.93c.372-.186.186-.93-.279-.837-6.789.837-13.671 1.674-20.46 2.046-.558 0-.558.93 0 .93 6.882-.372 13.671-1.209 20.46-2.046l-.279-.837c-7.254 3.348-15.066 4.743-23.064 4.65-7.161-.093-14.043-.93-20.46-4.371-.093.279-.279.558-.372.837C8.37 2.325 16.368 3.441 24.273 3.069c.651 0 .651-.93.093-.93z" transform="translate(37 16) translate(11.16)"/>
                    </g>
                </g>
            </g>
        </g>
    </g>
</svg>
