<svg xmlns="http://www.w3.org/2000/svg" width="146" height="212" viewBox="0 0 146 212">
    <g fill="none" fill-rule="evenodd">
        <g>
            <g transform="translate(-450 -162) translate(451 163)">
                <rect width="145" height="211" x="-.5" y="-.5" fill="#F4F4F4" stroke="#000" rx="4"/>
                <path fill="#000" fill-rule="nonzero" d="M37.288 193.432c0 1.16-.418 2.074-1.253 2.742-.835.668-1.996 1.002-3.485 1.002-1.37 0-2.584-.258-3.638-.774v-2.53c.867.386 1.6.658 2.201.816.6.159 1.15.238 1.648.238.598 0 1.056-.114 1.376-.343.32-.229.479-.568.479-1.02 0-.251-.07-.476-.211-.672-.14-.196-.347-.385-.62-.567-.223-.148-.635-.37-1.236-.663l-.43-.207c-.785-.369-1.373-.724-1.766-1.063-.393-.34-.706-.736-.94-1.187-.235-.451-.352-.978-.352-1.582 0-1.137.385-2.03 1.156-2.68.77-.651 1.835-.976 3.195-.976.668 0 1.305.079 1.911.237.607.158 1.241.381 1.903.668l-.879 2.118c-.685-.281-1.252-.477-1.7-.589-.449-.11-.89-.167-1.323-.167-.516 0-.911.12-1.187.36-.275.241-.413.554-.413.941 0 .24.056.45.167.629.111.178.289.351.532.518l.15.095c.235.14.619.34 1.15.6l.427.206c1.201.574 2.024 1.15 2.47 1.727.445.577.668 1.285.668 2.123zM44.574 197h-2.725v-10.582h-3.49v-2.268h9.704v2.268h-3.49V197zm8.191-7.146h.879c.861 0 1.497-.143 1.907-.43.41-.287.616-.738.616-1.354 0-.61-.21-1.043-.629-1.3-.419-.258-1.068-.387-1.947-.387h-.826v3.471zm0 2.215V197h-2.724v-12.85h3.744c1.746 0 3.038.318 3.876.954.838.636 1.256 1.601 1.256 2.896 0 .756-.208 1.428-.624 2.017-.416.589-1.004 1.05-1.766 1.384l2.674 3.979c.489.723.857 1.263 1.105 1.62h-3.023l-3.068-4.93h-1.45zM69.79 197l-.932-3.059h-4.685L63.242 197h-2.936l4.535-12.902h3.331L72.725 197H69.79zm-4.931-5.344h3.349l-1.455-4.702-.115-.4c-.05-.18-.09-.335-.118-.461l-.201.73c-.279.974-.765 2.584-1.46 4.833zM74.342 197v-12.85h2.725V197h-2.725zm10.837-7.216h5.098v6.662c-.826.27-1.604.459-2.334.567-.73.109-1.475.163-2.236.163-1.94 0-3.42-.57-4.443-1.71-1.023-1.14-1.534-2.776-1.534-4.908 0-2.075.593-3.692 1.78-4.852 1.186-1.16 2.831-1.74 4.935-1.74 1.318 0 2.59.263 3.814.79l-.905 2.18c-.938-.468-1.913-.703-2.927-.703-1.177 0-2.12.396-2.83 1.187-.709.79-1.063 1.854-1.063 3.19 0 1.395.285 2.46.857 3.195.57.736 1.401 1.103 2.491 1.103.569 0 1.146-.058 1.732-.176v-2.68h-2.435v-2.268zM103.865 197h-2.716v-5.546H96.06V197h-2.725v-12.85h2.725v5.037h5.089v-5.037h2.716V197zm8.2 0h-2.725v-10.582h-3.489v-2.268h9.703v2.268h-3.49V197z"/>
                <g>
                    <path stroke="#231F20" stroke-width=".93" d="M8.184 16.554s3.534 1.953 7.719-.558c4.185-2.511 5.394-6.696 5.394-6.696M59.892 16.182s-3.906 1.953-8.649-.558c-4.743-2.604-6.045-6.696-6.045-6.696" transform="translate(37 16)"/>
                    <path stroke="#231F20" stroke-width=".93" d="M10.323 6.417s5.301 3.534 17.019 3.627c11.718.093 12.462 0 12.462 0s10.044-1.023 17.298-4.092" transform="translate(37 16)"/>
                    <path fill="#231F20" fill-rule="nonzero" d="M55.521.744c.837 2.976 1.86 5.952 2.79 8.928.93 3.255 1.395 6.696 1.86 10.044 1.209 7.998 1.767 15.996 2.604 23.994.837 8.649 1.302 17.205 1.767 25.854.837 15.531 1.116 30.969 1.581 46.5.279 9.765 0 19.902 1.209 29.574.279-.093.558-.186.837-.372-.372-.465-.744-.93-1.209-1.395-.279-.372-.837 0-.744.465.186.651.279 1.302.465 1.953.279-.093.558-.186.93-.279-.372-1.395-.465-2.325-2.046-2.139-1.209.186-2.046 1.116-1.581 2.325.279-.093.558-.279.837-.372-.372-.651-.465-1.116-1.116-1.488-.093-.093-.279 0-.372-.093-.279-.093-1.767-.279-2.325-.279-1.86.279-1.023 3.534-1.767 4.743l.837.279c.093-2.604.651-4.371-2.418-4.836-3.162-.465-3.348.093-4.464 2.79.279 0 .651.093.93.093 0-.744.279-1.209.651-1.86.186-.372 0-.651-.372-.744-1.116-.093-2.232-.372-3.348-.558-.279 0-.651-.186-.93-.093-1.209.558-1.023 2.79-1.116 3.813.279 0 .651.093.93.093-.093-1.395.372-2.697-1.023-3.069-1.302-.465-2.697-.372-2.697 1.116l.837-.279c-.465-.651-.558-.558-1.302-.744-.186 0-1.581-.372-1.488.093 0-.186-.279-.372-.465-.372-1.209.093-1.581.744-2.046 1.86.279 0 .651.093.93.093.465-8.742.093-17.298-.372-26.04-.465-9.114-.837-18.228-1.209-27.342-.465-11.067-2.511-21.855-4.185-32.829-.93-5.952-1.767-11.811-2.697-17.763-.093-.465-.837-.465-.93 0-1.674 12.741-3.441 25.575-5.115 38.316-1.581 12.09-1.488 24.273-2.139 36.456-.465 9.858-1.023 19.623-.558 29.481.279 0 .651-.093.93-.093-.465-1.116-.837-1.674-2.046-1.86-.186 0-.372.186-.465.372.093-.465-1.395-.093-1.488-.093-.651.093-.837 0-1.302.744l.837.279c0-1.581-1.302-1.581-2.697-1.116-1.395.465-1.023 1.674-1.023 3.069.279 0 .651-.093.93-.093-.186-1.023.093-3.255-1.116-3.813-.279-.093-.558 0-.837 0-1.116.093-2.232.465-3.441.558-.372 0-.558.372-.372.744.372.651.651 1.116.651 1.86.279 0 .651-.093.93-.093-1.116-2.697-1.302-3.255-4.464-2.79-3.069.465-2.511 2.232-2.418 4.836l.837-.279c-.651-1.209.093-4.557-1.767-4.743-.651-.093-2.046 0-2.604.279-.744.279-.744.93-1.116 1.581.279.093.558.279.837.372.465-1.209-.279-2.139-1.581-2.325-1.674-.279-1.674.744-2.046 2.139.279.093.558.186.93.279.186-.651.279-1.302.465-1.953.093-.465-.465-.837-.744-.465-.372.465-.744.93-1.209 1.395.279.093.558.186.837.372 1.209-9.114.93-18.693 1.209-27.9.279-7.719.372-15.345.651-23.064.372-15.345.837-30.783 2.325-46.035.837-8.649 1.488-17.298 2.604-25.947.558-4.092 1.116-8.184 2.139-12.183.837-3.255 2.046-6.51 2.976-9.765.186-.558-.744-.837-.93-.279-.837 2.976-1.86 5.952-2.79 8.928-1.023 3.348-1.395 6.882-1.953 10.323-1.116 7.533-1.674 15.159-2.418 22.692-.837 8.835-1.395 17.67-1.86 26.598-.837 15.624-1.116 31.248-1.581 46.872-.279 9.858 0 19.995-1.209 29.667-.093.372.558.651.837.372.372-.465.744-.93 1.209-1.395-.279-.186-.558-.279-.744-.465-.186.651-.279 1.302-.465 1.953-.186.558.744.837.93.279.093-1.023.651-1.209 1.86-.279-.186.465.558.744.837.372.651-.93 1.767-1.581 2.697-.837.93.651.558 2.697 1.209 3.72.186.372.837.186.837-.279-.093-1.86-.186-3.627 2.046-3.999 1.674-.279 2.511.744 3.069 2.139.186.465.93.465.93-.093 0-.93-.279-1.395-.744-2.325-.093.279-.279.465-.372.744.93-.093 2.139-.372 3.069-.279 1.581.186 1.302 1.395 1.488 2.883.093.558.93.372.93-.093 0-.93-.093-1.767.558-2.139.279-.186 1.209-.279 1.209.186s.651.651.837.279c.186-.279 1.395-.186 1.674-.186 1.209-.093 1.209-.651 1.86.837.186.465.93.465.93-.093-.465-8.742-.093-17.298.372-26.04.465-9.114.837-18.228 1.209-27.342.465-10.881 2.325-21.855 3.813-32.922.837-5.859 1.581-11.811 2.418-17.67h-.93c1.86 12.648 3.813 25.296 5.673 38.037 1.767 11.811 1.581 24.273 2.139 36.456.465 9.765 1.023 19.437.558 29.202 0 .558.744.558.93.093.093-.279.744-1.116.744-1.116l.186.186c.093 0 .837.093.837.093.372 0 1.488-.093 1.674.186.279.372.837.279.837-.279 0-.465.93-.372 1.209-.186.744.372.558 1.209.558 2.139 0 .465.837.651.93.093.186-1.302 0-2.79 1.488-2.883.93-.093 2.139.279 3.069.279-.093-.279-.279-.465-.372-.744-.465.837-.744 1.302-.744 2.325 0 .558.744.558.93.093.651-1.488 1.302-2.418 3.069-2.139 2.139.372 2.139 2.232 2.046 3.999 0 .465.651.651.837.279.651-1.116.279-3.069 1.209-3.72 1.023-.744 2.139-.186 2.697.837.279.465 1.023.186.837-.372 1.209-.837 1.767-.744 1.86.279.186.558 1.023.372.93-.279-.186-.651-.279-1.302-.465-1.953-.279.186-.558.279-.744.465.372.465.744.93 1.209 1.395.279.279.837.093.837-.372-1.209-9.114-.93-18.693-1.209-27.9-.279-7.812-.465-15.624-.651-23.529-.372-15.345-.837-30.783-2.325-46.128-.837-8.463-1.395-16.926-2.604-25.389-.558-4.185-1.116-8.37-2.139-12.462-.837-3.255-2.046-6.51-2.976-9.765-.558-.372-1.395-.093-1.209.465z" transform="translate(37 16)"/>
                    <path stroke="#231F20" stroke-dasharray=".465" stroke-width=".5" d="M7.719 17.949s1.953 2.232 5.487.837c3.534-1.395 2.976-.93 6.324-3.534 3.348-2.604 3.162-5.301 3.162-5.301M60.264 17.484s-2.046 2.232-5.859.837c-3.813-1.395-3.162-.93-6.789-3.534-3.627-2.604-3.348-5.301-3.348-5.301" transform="translate(37 16)"/>
                    <path fill="#231F20" fill-rule="nonzero" d="M16.647 16.089c.465-1.023 1.674-3.72.558-4.557-1.023-.744-2.79-1.116-3.906-1.581-.651-.279-1.302-.372-2.046-.558-.186-.093-.558.093-.558.279-.372 2.418-1.116 4.743-1.767 7.068-.186.558.744.837.93.279.651-2.325 1.395-4.65 1.767-7.068l-.558.279c1.209.279 2.232.651 3.441 1.116l1.395.558c.651.372.837.279.837.93 0 .837-.465 1.953-.744 2.79-.372.465.372 1.023.651.465z" transform="translate(37 16)"/>
                    <path stroke="#231F20" stroke-dasharray=".465" stroke-width=".5" d="M11.067 10.974c.093 0 6.138 2.046 6.138 2.046" transform="translate(37 16)"/>
                    <path stroke="#231F20" stroke-width=".698" d="M33.666 42.873c-.186-.372-.558-37.572-.558-37.572" transform="translate(37 16)"/>
                    <path stroke="#231F20" stroke-width=".5" d="M33.387 34.875s1.488.279 3.348-2.046c1.581-1.86 1.581-3.999 1.581-3.999V10.044" transform="translate(37 16)"/>
                    <path fill="#FFF" fill-rule="nonzero" stroke="#231F20" stroke-width=".698" d="M40.269 5.022L41.664 14.508 43.896 13.95 42.687 5.022M26.319 5.301L24.924 14.694 22.692 14.136 23.901 5.301" transform="translate(37 16)"/>
                    <g fill-rule="nonzero">
                        <path fill="#BCBEC0" d="M24.366 2.604C16.74 3.069.93.93.93.93c3.441 1.953 7.254 3.255 11.253 3.813 1.116.186 4.185.465 5.301.465 9.672.558 18.6-.372 27.342-4.557 0 0-13.857 1.581-20.46 1.953z" transform="translate(37 16) translate(11.16)"/>
                        <path fill="#231F20" d="M24.366 2.139C16.647 2.511 8.649 1.488 1.023.372.558.279.186.93.651 1.209c6.51 3.534 13.578 4.464 20.925 4.464C29.76 5.766 37.665 4.278 45.105.93c.372-.186.186-.93-.279-.837-6.789.837-13.671 1.674-20.46 2.046-.558 0-.558.93 0 .93 6.882-.372 13.671-1.209 20.46-2.046l-.279-.837c-7.254 3.348-15.066 4.743-23.064 4.65-7.161-.093-14.043-.93-20.46-4.371-.093.279-.279.558-.372.837C8.37 2.325 16.368 3.441 24.273 3.069c.651 0 .651-.93.093-.93z" transform="translate(37 16) translate(11.16)"/>
                    </g>
                </g>
            </g>
        </g>
    </g>
</svg>
