<svg xmlns="http://www.w3.org/2000/svg" width="146" height="212" viewBox="0 0 146 212">
    <g fill="none" fill-rule="evenodd">
        <g>
            <g transform="translate(-976 -162) translate(977 163)">
                <rect width="145" height="211" x="-.5" y="-.5" fill="#F4F4F4" stroke="#000" rx="4"/>
                <path fill="#000" fill-rule="nonzero" d="M62.25 197h-3.103l-1.784-6.925c-.05-.206-.116-.504-.198-.894l-.173-.843c-.103-.523-.164-.888-.183-1.094l-.053.38c-.047.297-.117.678-.21 1.145l-.169.815c-.062.29-.114.518-.157.684L54.49 197h-3.094l-3.278-12.85h2.68l1.644 7.014c.287 1.295.495 2.417.624 3.366l.035-.285c.029-.212.069-.47.12-.775l.087-.491c.126-.7.244-1.244.356-1.63l1.872-7.199h2.575l1.872 7.199.065.273c.058.255.124.576.197.963l.046.24c.123.662.216 1.23.28 1.705l.06-.42c.045-.297.101-.632.169-1.004l.16-.838c.088-.435.17-.803.245-1.104l1.634-7.014h2.681L62.249 197zm4.886 0v-12.85h2.725V197h-2.725zm16.62-6.548c0 2.115-.602 3.735-1.806 4.86-1.204 1.126-2.943 1.688-5.216 1.688h-3.639v-12.85h4.034c2.098 0 3.727.554 4.887 1.662 1.16 1.107 1.74 2.654 1.74 4.64zm-2.83.07c0-2.76-1.218-4.14-3.656-4.14h-1.45v8.368h1.169c2.625 0 3.937-1.41 3.937-4.228zM93.82 197h-7.4v-12.85h7.4v2.233h-4.676v2.821h4.35v2.233h-4.35v3.313h4.676V197z"/>
                <g>
                    <g>
                        <path stroke="#231F20" stroke-width=".93" d="M10.044 17.298s3.348 1.953 7.44-.558c4.092-2.511 5.208-6.696 5.208-6.696M61.287 16.926s-3.906 1.953-8.649-.558c-4.743-2.604-6.045-6.696-6.045-6.696" transform="translate(35 16)"/>
                        <path stroke="#231F20" stroke-width=".93" d="M11.718 7.068s5.301 3.534 17.019 3.627c11.718.093 12.462 0 12.462 0s10.044-1.023 17.298-4.092" transform="translate(35 16)"/>
                        <path fill="#231F20" fill-rule="nonzero" d="M13.02 1.488C4.836 37.851 3.999 75.144 2.697 112.251c-.372 10.509-.837 20.925-1.395 31.434 0 .558.93.558.93 0 2.232-36.549 1.674-73.377 6.231-109.74 1.302-10.788 3.162-21.576 5.487-32.178.093-.651-.837-.837-.93-.279zM34.968 143.685c.651-33.573-2.232-67.053.558-100.533-.279 0-.651.093-.93.093.372 2.418.372 5.394.465 7.998.279 6.045.558 11.997.837 18.042.651 16.368 1.116 32.829 1.302 49.197.093 8.463.093 16.833-.186 25.296 0 .558.93.558.93 0 .93-30.318-.372-60.822-1.86-91.047-.186-3.162-.093-6.417-.558-9.579-.093-.558-.837-.372-.93.093-2.79 33.48 0 67.053-.558 100.533 0 .465.93.465.93-.093zM56.823 1.395c5.394 17.949 7.254 37.014 8.928 55.521 1.581 18.414 2.325 37.014 3.534 55.428.651 10.416 1.395 20.832 2.604 31.248.093.558 1.023.558.93 0-4.092-37.2-3.72-74.772-8.835-111.879-1.488-10.323-3.162-20.646-6.138-30.597-.279-.465-1.116-.279-1.023.279z" transform="translate(35 16)"/>
                        <g fill="#231F20" fill-rule="nonzero">
                            <path d="M.744 8.37L1.116 8.742 1.116 8.742zM1.488 9.021L1.86 9.207 1.86 9.3zM2.325 9.393L2.79 9.486 2.697 9.579 2.325 9.486zM3.162 9.579L3.627 9.579 3.627 9.765 3.162 9.672zM4.092 9.579L4.557 9.486 4.557 9.672 4.092 9.765zM5.022 9.393L5.487 9.3 5.487 9.393 5.022 9.579zM5.859 9.114L6.324 8.928 6.417 9.114 5.952 9.3zM6.696 8.742L7.161 8.556 7.254 8.742 6.789 8.928zM7.626 8.37L7.998 8.184 8.091 8.37 7.719 8.556zM8.463 7.998L8.835 7.812 8.928 7.998 8.556 8.184zM9.207 7.626L9.579 7.347 9.765 7.533 9.393 7.812zM9.951 7.068L10.323 6.789 10.509 6.975 10.137 7.254zM10.695 6.51L11.067 6.231 11.16 6.324 10.881 6.696zM11.439 5.952L11.811 5.673 11.904 5.766 11.532 6.045zM12.183 5.301L12.462 5.022 12.648 5.115 12.276 5.487zM12.834 4.65L13.113 4.371 13.206 4.464 12.927 4.743zM13.392 3.999L13.671 3.627 13.764 3.72 13.485 4.092zM13.95 3.255L14.136 2.79 14.229 2.883 14.043 3.255zM14.322 2.418L14.508 1.953 14.601 1.953 14.415 2.418zM14.601 1.488L14.694 1.023 14.787 1.023 14.694 1.488zM14.787.558L14.787.465z" transform="translate(35 16) translate(9.3 10.23)"/>
                        </g>
                        <g fill="#231F20" fill-rule="nonzero">
                            <path d="M16.926 7.998L16.647 8.277 16.647 8.277zM16.275 8.556L15.81 8.742 15.81 8.742 16.182 8.556zM15.438 8.928L14.973 9.114 14.973 9.021 15.345 8.928zM14.508 9.207L14.043 9.3 14.043 9.207 14.508 9.114zM13.578 9.3L13.113 9.3 13.113 9.114 13.578 9.207zM12.648 9.207L12.183 9.207 12.183 9.021 12.648 9.114zM11.718 9.021L11.253 8.928 11.346 8.742 11.811 8.928zM10.881 8.742L10.416 8.649 10.509 8.463 10.881 8.556zM9.951 8.463L9.486 8.277 9.579 8.091 10.044 8.277z" transform="translate(35 16) translate(44.64 10.23)"/>
                            <path d="M8.785 7.709H9.785V8.709H8.785z" transform="translate(35 16) translate(44.64 10.23) rotate(-70.67 8.878 7.941)"/>
                            <path d="M8.184 7.812L7.812 7.626 7.905 7.44 8.277 7.626zM7.347 7.44L6.975 7.254 7.068 6.975 7.44 7.254zM6.51 6.975L6.138 6.696 6.324 6.51 6.696 6.789zM5.766 6.417L5.394 6.138 5.487 6.045 5.952 6.231zM5.022 5.859L4.65 5.58 4.743 5.487 5.115 5.766zM4.278 5.301L3.906 5.022 3.999 4.929 4.371 5.208zM3.534 4.743L3.255 4.464 3.348 4.278 3.627 4.65zM2.883 4.092L2.604 3.72 2.697 3.627 2.976 3.999zM2.232 3.348L1.953 2.976 2.139 2.976 2.418 3.348zM1.767 2.604L1.488 2.232 1.581 2.139 1.86 2.511zM1.302 1.767L1.209 1.302 1.209 1.302 1.395 1.767zM1.116.837L1.023.372 1.023.372z" transform="translate(35 16) translate(44.64 10.23)"/>
                        </g>
                        <path fill="#231F20" fill-rule="nonzero" d="M18.042 16.74c.465-1.023 1.674-3.72.558-4.557-1.023-.744-2.79-1.116-3.906-1.581-.651-.279-1.302-.372-2.046-.558-.186-.093-.558.093-.558.279-.372 2.418-1.116 4.743-1.767 7.068-.186.558.744.837.93.279.651-2.325 1.395-4.65 1.767-7.068l-.558.279c1.209.279 2.232.651 3.441 1.116l1.395.558c.651.372.837.279.837.93 0 .837-.465 1.953-.744 2.79-.372.558.372 1.023.651.465z" transform="translate(35 16)"/>
                        <path stroke="#231F20" stroke-dasharray=".465" stroke-width=".5" d="M12.462 11.718c.093 0 6.138 2.046 6.138 2.046" transform="translate(35 16)"/>
                        <path stroke="#231F20" stroke-width=".698" d="M35.061 43.617c-.186-.372-.558-37.572-.558-37.572" transform="translate(35 16)"/>
                        <path stroke="#231F20" stroke-width=".5" d="M34.782 31.62s1.302.279 3.069-1.674c1.395-1.581 1.395-3.348 1.395-3.348v-15.81" transform="translate(35 16)"/>
                        <path fill="#FFF" fill-rule="nonzero" stroke="#231F20" stroke-width=".698" d="M41.664 5.766L43.059 15.159 45.291 14.601 44.082 5.766M27.714 5.952L26.319 15.438 24.087 14.88 25.296 5.952" transform="translate(35 16)"/>
                        <g fill-rule="nonzero">
                            <path fill="#BCBEC0" d="M24.831 3.348c-7.533.465-23.436-1.767-23.436-1.767 3.441 1.953 7.254 3.255 11.253 3.813 1.116.186 4.185.465 5.301.465 9.672.558 18.6-.372 27.342-4.557 0 0-13.857 1.674-20.46 2.046z" transform="translate(35 16) translate(12.09)"/>
                            <path fill="#231F20" d="M24.831 2.883c-7.719.372-15.717-.651-23.343-1.767-.465-.093-.837.558-.372.837 6.51 3.534 13.578 4.464 20.925 4.464 8.184.093 16.089-1.395 23.529-4.743.372-.186.186-.93-.279-.837-6.789.837-13.671 1.674-20.46 2.046-.558 0-.558.93 0 .93 6.882-.372 13.671-1.209 20.46-2.046L45.012.93c-7.254 3.348-15.066 4.743-23.064 4.65-7.161-.093-14.043-.93-20.46-4.371-.093.279-.279.558-.372.837 7.719 1.023 15.717 2.139 23.622 1.767.651 0 .651-.93.093-.93z" transform="translate(35 16) translate(12.09)"/>
                        </g>
                        <path fill="#231F20" fill-rule="nonzero" d="M37.758 142.383c-.651 1.674-1.209 3.441-1.581 5.208l-.186-.093 1.581-4.929c0-.093.093-.093.186-.093s.093.093.093.186l-.093 2.883h-.372c.093-.93.279-1.86.651-2.697 0-.093.186-.093.279-.093.093 0 .093.093.093.186v4.743h-.372c.093-1.674.465-3.348 1.116-4.836 0-.093.186-.186.279-.093.093 0 .093.093.093.186l.093 4.185h-.465l.837-3.813c0-.093.186-.186.279-.186.093 0 .186.093.186.186.279 1.302.372 2.697.186 3.999l-.558-.093.744-3.999c0-.186.186-.279.372-.186.093 0 .186.093.186.186.279 1.209.279 2.418.186 3.534l-.558-.093.558-3.534c0-.186.186-.279.372-.279s.279.186.279.279l.093 3.627-.558-.093.837-3.813c0-.186.186-.279.372-.186.093 0 .186.093.186.279.186 1.581.186 3.162 0 4.65l-.558-.093.558-4.092c0-.093.186-.279.279-.186.093 0 .186.093.186.186.279 1.395.372 2.79.186 4.185l-.465-.093.558-3.627c0-.093.093-.186.279-.186.093 0 .186.093.186.186.186 1.395.186 2.79.093 4.092l-.372-.093c.558-1.488.837-2.976 1.023-4.557 0-.093.093-.186.186-.186s.186.093.186.186c0 1.86-.093 3.627.186 5.487h-.279l.837-4.743c0-.093.093-.093.186-.093s.093.093.093.093c-.093 1.302 0 2.511.093 3.813h-.186c.465-1.674.837-3.441.93-5.115 0-.093.093-.093.093-.093.093 0 .093.093.093.093-.093 1.674 0 3.348.186 5.022h-.279c.372-1.116.558-2.232.651-3.441h.279c-.093 1.023.093 2.046.465 2.976h-.279l.465-3.069c0-.093.093-.186.186-.186s.186.093.186.186c0 1.209.186 2.418.465 3.627h-.372c.372-.93.651-1.86.744-2.883 0-.093.093-.186.186-.186s.186.093.186.186c0 .837.186 1.581.558 2.325h-.372l.744-3.534c0-.093.186-.186.279-.186.093 0 .186.093.186.186.093 1.302.279 2.604.651 3.906h-.465c.372-1.023.558-2.139.558-3.255 0-.186.093-.279.279-.279.093 0 .279.093.279.186l.372 2.79h-.558l.744-2.418c0-.186.186-.279.372-.186.093 0 .186.186.186.279-.093 1.116 0 2.232.465 3.348l-.558.186c-.093-1.023 0-2.046.372-2.976.093-.186.279-.279.372-.186.093 0 .186.186.186.279l.186 1.488h-.651l.372-2.232c0-.186.186-.279.372-.279.093 0 .279.093.279.279l.465 2.976-.558-.093c.465-.744.744-1.767.651-2.697h.651c0 .837.093 1.581.372 2.325h-.651c.372-.93.651-1.953.744-2.976 0-.186.186-.279.372-.279s.279.186.279.279l.093 4.092-.651-.186c.465-.837.651-1.767.558-2.697 0-.186.093-.372.279-.372.186 0 .279.093.372.186.372.744.558 1.488.651 2.232l-.651-.093.651-2.418c.093-.186.279-.279.372-.186.093 0 .186.186.279.279l.186 2.139-.651-.093.558-2.232c.093-.186.279-.279.372-.279.186 0 .279.186.279.279l.186 2.511-.651-.093.744-2.697c.093-.186.186-.279.372-.279.093 0 .186.093.279.279.186.744.279 1.581.186 2.325l-.651-.093.651-2.697c0-.186.186-.279.372-.279.093 0 .093.093.186.093.279.279.279.651.372 1.023v.93c0 .558 0 1.116.279 1.302l-.558.186.837-3.162c.093-.186.279-.279.465-.279.093 0 .186.093.186.186.465.837.558 1.767.465 2.604l-.651-.186.651-2.232c.093-.186.186-.279.372-.186.093 0 .186.186.186.279l.279 2.325h-.651l.279-1.488c.093-.279.093-.465.186-.744.093-.186.093-.279.279-.465.093-.093.186-.186.372-.186s.279.093.372.186c.279.372.186.651.279.93 0 .279 0 .558.093.837 0 .558 0 1.023-.093 1.581l-.372-.279c.093 0 .279-.186.279-.465.093-.279.093-.465.093-.744 0-.279 0-.558.093-.93.093-.279.279-.744.651-.837.093 0 .279 0 .279.186l.279 2.79h-.465c.093-1.302.558-2.511 1.302-3.534.093-.093.186-.093.279-.093.093 0 .093.093.093.186 0 1.023.186 1.953.465 2.883h-.372l.558-2.883c0-.093.093-.186.186-.186s.186.093.186.186l.279 3.162h-.372c.186-1.395.558-2.79 1.302-3.999 0-.093.186-.093.186-.093l.093.093c.186.465.186.93.279 1.395.093.465.093.93.186 1.395.093.93.186 1.86.186 2.79 0 .093-.093.093-.093.093-.093 0-.093 0-.093-.093-.093-.837-.093-1.674-.093-2.511v-1.209c0-.372 0-.837.186-1.209h.093l.558 1.302.279.651c.093.093.093.186.186.279h.093v-.093h-.093.093v.186c-.093.093-.186 0-.186 0-.093-.093-.093-.186-.186-.279l-.279-.651-.558-1.302h.093c-.093.372-.093.744-.186 1.209v1.209c0 .837.093 1.674.186 2.418h-.186c0-.93-.186-1.86-.279-2.79-.093-.465-.093-.93-.186-1.395-.093-.465-.186-.93-.279-1.302h.279c-.651 1.209-1.116 2.511-1.209 3.906 0 .093-.093.186-.186.186s-.186-.093-.186-.186l-.279-3.162h.372l-.465 2.883c0 .093-.093.186-.279.186-.093 0-.186-.093-.186-.186-.279-1.023-.465-2.046-.465-3.069l.372.093c-.744.93-1.116 2.139-1.209 3.348 0 .093-.093.279-.279.279-.093 0-.186-.093-.279-.186l-.279-2.79.372.186c-.093 0-.279.186-.279.465-.093.279-.093.465-.093.744 0 .279 0 .558-.093.93-.093.279-.186.744-.651.837-.186.093-.279 0-.372-.186v-.093c.093-.465.093-1.023.093-1.488 0-.279 0-.465-.093-.744 0-.279-.093-.558-.093-.558h.093s-.093.093-.093.186c-.093.186-.093.465-.186.744l-.279 1.488c0 .186-.186.279-.372.279-.093 0-.186-.093-.279-.279l-.372-2.325.651.093-.651 2.232c-.093.186-.279.279-.465.186-.186-.093-.279-.186-.279-.372.093-.744 0-1.581-.372-2.232l.651-.093-.558 3.627c0 .186-.186.279-.372.279h-.093c-.372-.279-.465-.651-.558-1.023v-.93c0-.558.093-1.116-.186-1.395l.558-.093-.651 2.697c0 .186-.186.279-.372.279s-.279-.186-.279-.372c.093-.744 0-1.395-.186-2.139h.651l-.744 2.697c-.093.186-.186.279-.372.279s-.279-.186-.279-.279l-.186-2.511.651.093-.558 2.232c-.093.186-.279.279-.372.279-.186 0-.279-.186-.279-.279l-.186-2.139.651.093-.651 2.418c-.093.186-.279.279-.372.186-.093 0-.186-.186-.279-.279-.093-.651-.279-1.395-.558-2.046l.651-.186c.093 1.023-.093 2.139-.558 3.069-.093.186-.279.186-.465.093-.093-.093-.186-.186-.186-.279l-.093-4.092h.651c-.093 1.116-.372 2.139-.744 3.162-.093.186-.279.279-.465.186-.093 0-.186-.093-.186-.186-.279-.837-.372-1.674-.372-2.604 0-.186.186-.279.279-.279.186 0 .279.093.279.279.093 1.023-.186 2.139-.744 2.976-.093.186-.279.186-.465.093l-.186-.186-.465-2.976h.651l-.372 2.325c0 .186-.186.279-.372.279-.093 0-.279-.093-.279-.279l-.186-1.488.651.093c-.279.837-.465 1.767-.279 2.697 0 .186-.093.279-.279.372-.093 0-.279-.093-.279-.186-.465-1.116-.651-2.418-.465-3.627l.558.093-.744 2.418c0 .186-.186.186-.372.186-.093 0-.186-.093-.186-.186l-.372-2.883h.465c0 1.209-.186 2.418-.651 3.441-.093.093-.186.186-.279.093-.093 0-.093-.093-.186-.186-.372-1.302-.558-2.604-.651-3.999h.465l-.837 3.534c0 .093-.093.186-.279.186-.093 0-.093-.093-.186-.093-.372-.744-.558-1.674-.558-2.511h.372c-.093 1.023-.372 2.046-.837 2.976 0 .093-.186.093-.279.093-.093 0-.093-.093-.093-.093-.279-1.209-.372-2.418-.372-3.72h.372l-.465 3.069c0 .093-.093.186-.186.093-.093 0-.093-.093-.093-.093-.372-1.023-.558-2.046-.465-3.162 0-.093.093-.093.186-.093s.093.093.093.186c-.093 1.209-.372 2.325-.744 3.441 0 .093-.093.093-.186.093s-.093-.093-.093-.093c-.186-1.674-.279-3.348-.093-5.022h.186c-.186 1.767-.465 3.534-.93 5.208 0 .093-.093.093-.186.093l-.093-.093c-.186-1.302-.186-2.604-.186-3.813h.279l-.837 4.743c0 .093-.093.186-.186.093-.093 0-.093-.093-.093-.093-.279-1.86-.186-3.627-.186-5.487h.372c-.186 1.581-.465 3.162-1.023 4.65 0 .093-.186.186-.279.093-.093 0-.093-.093-.093-.186.093-1.302 0-2.697-.093-3.999h.465l-.558 3.72c0 .093-.093.186-.279.186-.093 0-.186-.093-.186-.279.093-1.395 0-2.697-.279-4.092h.465l-.558 4.092c0 .186-.186.279-.279.186-.186 0-.279-.186-.186-.279.186-1.488.186-3.069 0-4.557h.558l-.837 3.813c0 .186-.186.279-.372.186-.093 0-.186-.186-.279-.279l-.186-3.627.651.093-.651 3.441c0 .186-.186.279-.372.279s-.279-.186-.279-.279c.093-1.116.093-2.325-.186-3.441h.558l-.744 3.999c0 .186-.186.279-.279.186-.186 0-.279-.186-.186-.279.186-1.302.186-2.604-.093-3.813h.465l-.93 3.813c0 .093-.186.186-.279.186-.093 0-.186-.093-.186-.186l-.093-4.185.465.093c-.651 1.488-1.023 3.069-1.116 4.743 0 .093-.093.186-.186.186s-.186-.093-.186-.186v-4.743l.372.093c-.372.837-.651 1.674-.651 2.604 0 .093-.093.186-.186.186s-.186-.093-.186-.186l.093-2.883.279.093-1.674 4.836c0 .093-.093.093-.093.093l-.093-.093c.744-2.046 1.302-3.813 2.139-5.487z" transform="translate(35 16)"/>
                        <path fill="#231F20" fill-rule="nonzero" d="M34.224 142.383c.744 1.674 1.209 3.441 1.581 5.208 0 .093 0 .093-.093.093 0 0-.093 0-.093-.093l-1.581-4.836.279-.093.093 2.883c0 .093-.093.186-.186.186s-.186-.093-.186-.186c-.093-.93-.279-1.767-.651-2.604l.372-.093v4.743c0 .093-.093.186-.186.186s-.186-.093-.186-.186c-.093-1.581-.465-3.255-1.023-4.743l.465-.093-.093 4.185c0 .093-.093.279-.279.186-.093 0-.186-.093-.186-.186l-.837-3.813h.465c-.279 1.302-.279 2.604-.093 3.813 0 .186-.093.279-.186.279-.186 0-.279-.093-.279-.186l-.744-3.999h.558c-.186 1.116-.279 2.232-.186 3.441 0 .186-.093.279-.279.279-.186 0-.279-.093-.279-.279l-.558-3.441.651-.093-.186 3.627c0 .186-.186.279-.279.279-.186 0-.279-.093-.279-.279l-.744-3.813h.558c-.186 1.488-.186 3.069 0 4.557 0 .186-.093.279-.279.279-.186 0-.279-.093-.279-.279l-.465-4.092h.465c-.279 1.302-.372 2.697-.186 4.092 0 .093-.093.279-.186.279s-.279-.093-.279-.186l-.465-3.72h.465c-.186 1.302-.186 2.697-.093 3.999 0 .093-.093.186-.186.186s-.186-.093-.186-.093c-.465-1.488-.837-3.069-.93-4.65h.372c0 1.86 0 3.627-.186 5.487 0 .093-.093.186-.186.093-.093 0-.093-.093-.093-.093l-.744-4.743h.279c.093 1.302 0 2.604-.186 3.813 0 .093-.093.093-.093.093-.093 0-.093 0-.093-.093-.465-1.674-.744-3.441-.93-5.208h.186c.093 1.674.093 3.348-.093 5.022 0 .093-.093.093-.186.093s-.093 0-.093-.093c-.372-1.116-.558-2.325-.651-3.441 0-.093.093-.186.093-.186.093 0 .186.093.186.093.093 1.023 0 2.139-.372 3.162 0 .093-.093.093-.186.093s-.093-.093-.093-.093l-.465-3.069h.372c0 1.209-.186 2.511-.372 3.72 0 .093-.093.186-.186.093-.093 0-.093-.093-.093-.093-.372-.93-.651-1.953-.744-2.976h.372c0 .837-.186 1.674-.558 2.511 0 .093-.186.186-.279.093-.093 0-.093-.093-.093-.186l-1.395-3.069h.465c-.093 1.302-.279 2.697-.651 3.999 0 .093-.186.186-.279.186-.093 0-.093-.093-.186-.186-.465-1.116-.651-2.325-.558-3.441h.558l-.372 2.883c0 .186-.186.279-.279.279-.093 0-.186-.093-.186-.186l-.744-2.418.558-.093c.186 1.209 0 2.418-.465 3.627-.093.186-.279.186-.372.186-.093-.093-.186-.186-.186-.279.093-.93 0-1.86-.279-2.697l.651-.093-.186 1.488c0 .186-.186.279-.372.279-.093 0-.279-.093-.279-.279l-.372-2.325h.651l-.465 2.976c0 .186-.186.279-.372.279-.093 0-.186-.093-.186-.186-.558-.93-.744-1.953-.744-2.976 0-.186.186-.279.372-.279s.279.186.279.279c0 .837-.093 1.767-.372 2.604-.093.186-.186.279-.372.186-.093 0-.186-.093-.186-.186-.372-1.023-.651-2.046-.744-3.162h.651l-.093 4.092c0 .186-.186.372-.372.279-.093 0-.279-.093-.279-.186-.465-.93-.651-2.046-.558-3.069l.651.186c-.279.651-.465 1.302-.558 2.046 0 .186-.186.279-.372.279s-.279-.093-.279-.279l-.651-2.418.651-.093-.186 2.139c0 .186-.186.279-.372.279s-.279-.093-.279-.279l-.558-2.232.651-.093-.186 2.511c0 .186-.186.279-.372.279s-.279-.093-.279-.279l-.837-2.697h.651c-.186.651-.279 1.395-.186 2.139 0 .186-.093.372-.279.372-.186 0-.279-.093-.372-.279l-.558-2.697.558.093c-.186.279-.186.837-.186 1.395v.93c0 .279-.186.744-.465 1.023-.186.093-.372.093-.465-.093 0 0 0-.093-.093-.093l-.744-3.255.651.093c-.372.651-.465 1.488-.372 2.232 0 .186-.093.372-.279.372-.186 0-.372-.093-.372-.279l-.651-2.232.651-.093-.279 2.325c0 .186-.186.279-.372.279-.093 0-.279-.093-.279-.279l-.279-1.488c-.093-.279-.093-.558-.186-.744 0-.093-.093-.186-.093-.186h.186c-.093 0-.093.372-.093.558 0 .279 0 .465-.093.744 0 .465 0 1.023.093 1.488 0 .186-.093.279-.279.279h-.186c-.465-.186-.558-.558-.651-.837-.093-.279-.093-.651-.093-.93s0-.558-.093-.744c-.093-.279-.186-.465-.279-.465l.372-.186-.279 2.79c0 .093-.093.279-.279.186-.093 0-.186-.093-.186-.279-.093-1.209-.465-2.325-1.116-3.348l.372-.093c0 1.023-.186 2.046-.465 3.069 0 .093-.186.186-.279.186-.093 0-.093-.093-.186-.186l-.465-2.883h.372l-.279 3.162c0 .093-.093.186-.186.186s-.186-.093-.186-.186c-.093-1.395-.558-2.697-1.209-3.906h.279c-.093.372-.186.837-.279 1.302-.093.465-.186.93-.186 1.395-.093.93-.279 1.86-.279 2.79h-.186c.093-.837.093-1.674.186-2.418v-1.209c0-.372 0-.837-.093-1.209h.093l-.558 1.302-.279.651c-.093.093-.093.186-.186.279 0 0-.186.093-.186 0v-.093-.093h.093H0v.093h.093c.093-.093.093-.186.093-.279l.279-.651.465-1.302h.093c.186.465.186.837.186 1.209v1.209c0 .837 0 1.674-.093 2.511 0 .093-.093.093-.093.093-.093 0-.093-.093-.093-.093 0-.93.093-1.86.186-2.79.093-.465.093-.93.186-1.395l.279-1.395c0-.093.093-.093.186-.093 0 0 .093 0 .093.093.651 1.209 1.116 2.604 1.302 3.999H2.79l.186-3.162c0-.093.093-.186.186-.186s.186.093.186.186l.558 2.883h-.372c.279-.93.372-1.953.465-2.883 0-.093.093-.186.186-.186s.186 0 .186.093c.744 1.023 1.116 2.325 1.209 3.534h-.465l.279-2.79c0-.186.093-.279.279-.186h.093c.465.186.558.558.651.837.093.279.093.651.093.93s0 .558.093.744c.093.279.186.465.279.465l-.372.279c-.093-.558-.093-1.023-.093-1.581v-.837c.093-.279 0-.558.279-.93.093-.093.186-.186.372-.186s.279.093.372.186c.186.186.186.279.279.465.093.279.093.558.186.744l.279 1.488h-.651l.279-2.325c0-.186.186-.279.372-.279.093 0 .279.093.279.279l.837 2.232-.651.186c-.093-.93 0-1.86.372-2.604.093-.186.279-.279.465-.186.093.093.186.093.186.186l.744 3.162-.558-.186c.279-.186.279-.744.186-1.302v-.93c0-.279.093-.651.372-1.023.093-.186.279-.186.465-.093.093.093.093.093.093.186l.651 2.697-.651.093c-.093-.744 0-1.581.186-2.325.093-.186.279-.279.372-.279.093 0 .186.093.279.279l.651 2.697-.651.093.186-2.511c0-.186.186-.279.372-.279s.279.093.279.279l.558 2.232-.651.093.186-2.139c0-.186.186-.279.372-.279s.279.093.279.279l.651 2.418-.651.093c.093-.744.279-1.488.651-2.232.093-.186.279-.279.465-.186.093.093.186.186.186.372-.093.93.093 1.86.465 2.697l-.651.186.093-4.092c0-.186.186-.279.372-.279s.279.093.279.279c.093 1.023.279 2.046.651 2.976h-.651c.279-.744.372-1.581.372-2.325h.651c0 .93.186 1.86.651 2.697l-.558.093.465-2.976c0-.186.186-.279.372-.279s.279.093.279.279l.372 2.232h-.651l.186-1.488c0-.186.186-.279.372-.279.093 0 .186.093.279.186.372.93.465 1.953.279 2.976l-.558-.186c.465-1.023.558-2.232.465-3.348 0-.186.093-.279.279-.279.186 0 .279.093.279.186l.651 2.418h-.558l.372-2.79c0-.186.186-.279.279-.186.093 0 .186.093.186.279 0 1.116.186 2.232.558 3.255h-.465c.372-1.302.558-2.604.651-3.906 0-.093.093-.186.186-.186s.186.093.186.186l.744 3.534h-.372c.372-.744.465-1.581.558-2.325 0-.093.093-.186.186-.186s.186.093.186.186c.093 1.023.372 1.953.744 2.883h-.372c.279-1.209.372-2.418.372-3.627 0-.093.093-.186.186-.186s.186.093.186.186l.465 3.069h-.279c.372-.93.465-1.953.372-2.976h.279c.093 1.116.279 2.325.651 3.441h-.279c.186-1.674.279-3.348.186-5.022 0-.093 0-.093.093-.093s.093 0 .093.093c.186 1.767.465 3.441.93 5.115h-.186c.186-1.302.186-2.511.093-3.813 0-.093.093-.093.093-.093.093 0 .093 0 .093.093l.837 4.743h-.279c.186-1.767.186-3.627.186-5.487 0-.093.093-.186.186-.186s.186.093.186.186c.186 1.581.465 3.069 1.023 4.557l-.372.093c-.093-1.395-.093-2.79.093-4.092 0-.093.093-.186.279-.186.093 0 .186.093.186.186l.558 3.627-.465.093c-.093-1.395-.093-2.79.186-4.185 0-.093.186-.186.279-.186.093 0 .186.093.186.186l.558 4.092-.558.093c-.186-1.581-.186-3.162 0-4.65 0-.186.186-.279.279-.279.093 0 .186.093.279.186l.837 3.813-.558.093v-3.813c0-.186.186-.279.279-.279.186 0 .279.093.279.279l.558 3.534-.558.093c-.093-1.209 0-2.418.186-3.534 0-.186.186-.279.372-.186.093 0 .186.093.186.186l.651 3.999-.558.093c-.186-1.302-.186-2.697.186-3.999 0-.093.186-.186.279-.186.093 0 .186.093.186.186l.837 3.813h-.465l.093-4.185c0-.093.093-.186.186-.186s.186.093.186.093c.651 1.581.93 3.255 1.023 4.836h-.372v-4.743c0-.093.093-.186.186-.186s.093 0 .186.093c.372.837.651 1.767.651 2.697h-.372l-.093-2.883c0-.093.093-.186.093-.186.093 0 .093 0 .186.093l1.488 4.929h-.186c-.186-1.767-.651-3.441-1.209-5.208z" transform="translate(35 16)"/>
                        <g fill="#231F20" fill-rule="nonzero">
                            <path d="M.93 1.116c.093.186.186.279.279.372-.186-.093-.279-.186-.279-.372zM1.581 1.767L1.953 1.953 1.953 1.953zM2.418 2.139L2.883 2.232 2.79 2.325zM3.255 2.418L3.72 2.511 3.72 2.604zM4.185 2.604L4.65 2.604 4.65 2.79 4.185 2.697zM5.115 2.697L5.58 2.79 5.58 2.883 5.115 2.79zM6.045 2.79L6.51 2.883 6.51 2.976 6.045 2.976zM6.975 2.883L7.44 2.883 7.347 3.069 6.882 2.976z" transform="translate(35 16) translate(.93 140.43)"/>
                            <path d="M7.994 2.779H8.994V3.779H7.994z" transform="translate(35 16) translate(.93 140.43) rotate(-87.72 8.087 3.012)"/>
                            <path d="M8.889 2.803H9.889V3.803H8.889z" transform="translate(35 16) translate(.93 140.43) rotate(-88.817 8.982 3.036)"/>
                            <path d="M9.797 2.815H10.797V3.815H9.797z" transform="translate(35 16) translate(.93 140.43) rotate(-89.767 9.89 3.047)"/>
                            <path d="M10.602 2.976L11.067 2.976 11.067 3.162 10.602 3.162zM11.532 2.976L11.997 2.976 11.997 3.162 11.532 3.162zM12.462 2.976L12.927 2.976 12.927 3.162 12.462 3.162zM13.392 2.883L13.857 2.883 13.857 3.069 13.392 3.069zM14.322 2.883L14.787 2.883 14.787 3.069 14.322 3.069zM15.252 2.79L15.717 2.79 15.717 2.976 15.252 3.069zM16.182 2.79L16.647 2.697 16.647 2.976 16.182 2.976zM17.112 2.697L17.577 2.697 17.577 2.883 17.112 2.883zM18.042 2.604L18.507 2.604 18.507 2.79 18.042 2.883zM18.879 2.511L19.344 2.511 19.437 2.697 18.972 2.79zM19.809 2.511L20.274 2.418 20.367 2.604 19.902 2.697zM20.739 2.418L21.204 2.325 21.204 2.511 20.832 2.604zM21.669 2.325L22.134 2.232 22.134 2.418 21.669 2.511zM22.599 2.232L23.064 2.139 23.064 2.325 22.599 2.418zM23.529 2.139L23.994 2.046 23.994 2.232 23.529 2.325zM24.459 2.046L24.924 1.953 24.924 2.139 24.459 2.139zM25.389 1.953L25.854 1.86 25.854 2.046 25.389 2.046zM26.319 1.767L26.784 1.767 26.784 1.86 26.319 1.953zM27.249 1.674L27.714 1.674 27.714 1.767 27.249 1.86zM28.086 1.581L28.551 1.488 28.644 1.674 28.179 1.674zM29.016 1.488L29.481 1.395 29.481 1.488 29.109 1.581zM29.946 1.302L30.411 1.302 30.411 1.395 29.946 1.395zM30.876 1.209L31.341 1.116 31.341 1.209 30.876 1.302zM31.806 1.116L32.271 1.023 32.271 1.023zM32.736.93L33.201.93 33.201.93 32.736 1.023z" transform="translate(35 16) translate(.93 140.43)"/>
                        </g>
                        <g fill="#231F20" fill-rule="nonzero">
                            <path d="M34.596 1.302c-.093.186-.186.279-.279.372.093-.093.186-.186.279-.372zM33.945 1.953L33.48 2.139 33.48 2.139 33.852 1.953zM33.108 2.325L32.643 2.511 32.643 2.418 33.015 2.325zM32.178 2.604L31.713 2.697 31.713 2.604 32.178 2.511zM31.248 2.79L30.783 2.883 30.783 2.79 31.248 2.697zM30.411 2.976L29.946 3.069 29.853 2.883 30.318 2.883zM29.481 3.069L29.016 3.162 29.016 2.976 29.481 2.976zM28.551 3.162L28.086 3.255 28.086 3.069 28.551 3.069z" transform="translate(35 16) translate(37.2 140.43)"/>
                            <path d="M27.162 3.165H28.162V4.165H27.162z" transform="translate(35 16) translate(37.2 140.43) rotate(-3.058 27.394 3.258)"/>
                            <path d="M26.228 3.163H27.228V4.163H26.228z" transform="translate(35 16) translate(37.2 140.43) rotate(-1.995 26.46 3.256)"/>
                            <path d="M25.294 3.158H26.294V4.1579999999999995H25.294z" transform="translate(35 16) translate(37.2 140.43) rotate(-1.079 25.526 3.251)"/>
                            <path d="M24.831 3.348L24.366 3.348 24.366 3.162 24.831 3.162zM23.901 3.348L23.436 3.348 23.436 3.162 23.901 3.162zM22.971 3.348L22.506 3.348 22.506 3.162 22.971 3.162zM22.041 3.348L21.576 3.255 21.576 3.069 22.041 3.162zM21.111 3.255L20.646 3.255 20.646 3.069 21.111 3.069zM20.181 3.255L19.716 3.255 19.716 2.976 20.181 3.069zM19.251 3.162L18.786 3.162 18.879 2.976 19.251 2.976zM18.321 3.162L17.856 3.162 17.949 2.883 18.414 2.883zM17.391 3.069L16.926 3.069 17.019 2.79 17.484 2.883zM16.554 2.976L16.089 2.976 16.089 2.79 16.554 2.79zM15.624 2.976L15.159 2.883 15.159 2.697 15.624 2.697zM14.694 2.883L14.229 2.79 14.229 2.604 14.694 2.604zM13.764 2.79L13.299 2.697 13.299 2.511 13.764 2.604zM12.834 2.697L12.369 2.604 12.369 2.418 12.834 2.511zM11.904 2.604L11.439 2.511 11.439 2.325 11.904 2.418zM10.974 2.511L10.509 2.418 10.509 2.232 10.974 2.325zM10.044 2.325L9.579 2.325 9.579 2.139 10.044 2.232zM9.114 2.232L8.649 2.232 8.742 2.046 9.114 2.139zM8.184 2.139L7.719 2.046 7.812 1.953 8.277 2.046zM7.347 2.046L6.882 1.953 6.882 1.86 7.347 1.86zM6.417 1.953L5.952 1.86 5.952 1.767 6.417 1.767zM5.487 1.767L5.022 1.767 5.022 1.581 5.487 1.674zM4.557 1.674L4.092 1.581 4.092 1.488 4.557 1.581zM3.627 1.488L3.162 1.488 3.162 1.395zM2.697 1.395L2.232 1.302 2.232 1.302 2.697 1.302zM1.767 1.209L1.302 1.209 1.302 1.116zM.837 1.116L.465 1.023z" transform="translate(35 16) translate(37.2 140.43)"/>
                        </g>
                    </g>
                </g>
            </g>
        </g>
    </g>
</svg>
